<svg width="400" height="90" viewBox="0 0 400 90" fill="none" xmlns="http://www.w3.org/2000/svg">
<path d="M0 0H400V90H0V0Z" fill="url(#paint0_linear)"/>
<g opacity="0.4" filter="url(#filter0_d)">
<path d="M363.862 30.0673L366.656 28.0673L366.276 24.6286L363.145 23.2411L360.352 25.2411L360.731 28.6799L363.862 30.0673ZM363.305 24.5324L365.211 25.3769L365.44 27.4308L363.763 28.6401L361.857 27.7956L361.624 25.7886L363.305 24.5324Z" fill="white"/>
<path d="M376.294 24.4399L373.803 25.959L375.324 28.4481L377.815 26.929L376.294 24.4399Z" fill="white"/>
<path d="M347.336 11.6315L345.496 14.4761L348.344 16.314L350.183 13.4694L347.336 11.6315Z" fill="white"/>
<path d="M390.367 47.7483L387.978 41.0924C387.945 40.9474 387.86 40.8448 387.724 40.7844L383.971 38.4867L386.272 32.7535C386.388 32.5284 386.274 32.234 386.1 32.0755C385.879 31.9125 385.598 31.8855 385.393 32.0548L380.627 35.3777C380.575 35.42 380.473 35.5046 380.468 35.5514L377.956 40.0357L372.182 42.0332L349.813 31.6162L332.615 18.5769C332.615 18.5769 332.569 18.5724 332.573 18.5256L332.526 18.5211L332.479 18.5166L332.432 18.5121L322.974 16.5172C322.833 16.5037 322.739 16.4947 322.59 16.5748L317.833 18.8117C317.782 18.8541 317.731 18.8964 317.679 18.9387C317.679 18.9387 317.675 18.9855 317.628 18.981C317.577 19.0233 317.525 19.0657 317.516 19.1593C317.512 19.2061 317.507 19.253 317.503 19.2998L317.121 22.2874C317.117 22.3343 317.112 22.3811 317.103 22.4747L318.455 31.063C318.45 31.1098 318.488 31.208 318.531 31.2593L324.684 43.0493C324.722 43.1475 324.811 43.2033 324.9 43.2591L337.179 50.8645C337.269 50.9203 337.316 50.9248 337.409 50.9338L350.42 52.8916C350.42 52.8916 350.42 52.8916 350.467 52.8961C350.514 52.9006 350.56 52.9051 350.659 52.8673L350.949 52.8007L354.604 58.5858C354.646 58.6371 354.689 58.6884 354.735 58.6929L355.521 59.3826C355.605 59.4853 355.746 59.4988 355.84 59.5078C355.98 59.5213 356.126 59.4879 356.28 59.361L357.924 58.0067C358.026 57.922 358.133 57.7905 358.151 57.6032L358.843 51.3848L370.912 48.8576C370.912 48.8576 370.912 48.8576 370.959 48.8621C371.006 48.8666 371.006 48.8666 371.057 48.8243L377.31 45.7859L382.29 48.107C382.337 48.1115 382.38 48.1628 382.427 48.1673L387.308 49.0612C387.402 49.0702 387.495 49.0792 387.547 49.0369L390.018 48.4236C390.163 48.3903 390.317 48.2633 390.378 48.1273C390.382 48.0805 390.4 47.8932 390.367 47.7483ZM381.441 36.2591L384.483 34.1412L382.808 38.2806L379.622 39.4396L381.441 36.2591ZM347.828 45.8855L367.069 48.4886L351.403 51.5211L347.828 45.8855ZM347.383 44.6141L343.989 38.5705L360.568 41.2963L368.587 47.4531L347.383 44.6141ZM343.215 37.2676L342.002 35.1193L349.419 32.7598L358.585 39.7827L343.215 37.2676ZM341.724 37.03L337.908 36.3801L340.837 35.4327L341.724 37.03ZM354.086 34.9089L367.991 41.3472L361.004 40.204L354.086 34.9089ZM341.394 34.0685L334.158 21.2295L348.226 31.8891L341.394 34.0685ZM332.106 19.9456L340.271 34.4332L335.441 35.9543L332.16 29.7324L328.07 23.055L332.106 19.9456ZM342.498 38.3329L345.651 43.928L341.258 40.9073L336.862 37.4138L342.498 38.3329ZM370.743 47.66L362.988 41.7175L371.976 43.1947L375.855 45.1737L370.743 47.66ZM376.784 44.3651L373.628 42.739L377.493 41.4089L376.784 44.3651ZM322.955 17.6967L330.932 19.3604L327.251 22.2203L322.425 18.78C322.336 18.7242 322.2 18.6639 322.059 18.6504L320.874 18.6783L322.955 17.6967ZM337.662 49.7767L325.604 42.3343L319.62 30.7496L318.298 22.3531L318.63 19.8805L321.806 19.8074L326.985 23.5179L331.155 30.3448L334.795 37.2626C334.838 37.314 334.876 37.4121 334.965 37.4679L340.592 41.9302L346.54 45.9981L350.153 51.7319L337.662 49.7767ZM355.821 58.2301L355.473 57.9131L352.105 52.5809L357.555 51.4974L356.904 57.2945L355.821 58.2301ZM387.318 47.9753L382.619 47.1462L377.868 44.8945L378.86 40.973L383.22 39.407L386.973 41.7047L389.063 47.5286L387.318 47.9753Z" fill="white"/>
</g>
<path opacity="0.5" d="M58.1888 32.2124L62.3331 28.2459L60.8957 22.648L55.3961 21.0915L51.2519 25.0581L52.6892 30.6559L58.1888 32.2124ZM55.9646 23.1894L59.3121 24.1368L60.1738 27.4798L57.688 29.8754L54.3405 28.928L53.4824 25.6635L55.9646 23.1894Z" fill="white"/>
<path opacity="0.7" d="M379.779 65.5397L376.539 67.0884L378.088 70.3287L381.328 68.78L379.779 65.5397Z" fill="white"/>
<path opacity="0.5" d="M18.7085 57.9999L15 65.1597L22.1598 68.8682L25.8683 61.7084L18.7085 57.9999Z" fill="white"/>
<path opacity="0.2" d="M30.11 17L28 21.0737L32.0737 23.1838L34.1838 19.11L30.11 17Z" fill="white"/>
<g filter="url(#filter1_d)">
<path d="M96.7391 44.366C89.4601 44.366 84.0951 49.615 84.0951 56.778C84.0951 63.941 89.4601 69.19 96.7391 69.19C103.902 69.19 109.267 63.941 109.267 56.778V55.386H96.4201V59.852H103.641C103.09 62.172 100.538 64.434 96.8551 64.434C92.5631 64.434 89.3731 61.215 89.3731 56.778C89.3731 52.37 92.5631 49.209 96.8551 49.209C99.7261 49.209 101.959 50.543 102.945 52.283H108.745C107.382 47.846 102.916 44.366 96.7391 44.366ZM133.176 68.61L127.695 60.113C130.479 58.808 132.016 56.314 132.016 53.066C132.016 48.165 128.507 44.975 122.504 44.975H112.992V68.61H118.27V61.157H122.475L127.057 68.61H133.176ZM118.27 49.644H122.272C125.056 49.644 126.738 50.833 126.738 53.066C126.738 55.299 125.056 56.488 122.272 56.488H118.27V49.644ZM152.607 68.61H158.494L149.33 44.975H143.849L134.685 68.61H140.137L141.79 64.028H150.954L152.607 68.61ZM143.414 59.446L146.372 51.21L149.33 59.446H143.414ZM161.447 68.61H166.725V54.11L178.528 68.32H182.936V44.685H177.658V59.185L165.855 44.975H161.447V68.61ZM187.685 68.61H196.849C204.679 68.61 209.522 63.796 209.522 56.807C209.522 49.818 204.679 44.975 196.849 44.975H187.685V68.61ZM192.963 63.941V49.644H196.936C201.46 49.644 204.244 52.254 204.244 56.807C204.244 61.36 201.46 63.941 196.936 63.941H192.963ZM233.695 69.19C241.032 69.19 246.455 63.941 246.455 56.778C246.455 49.615 241.032 44.366 233.695 44.366C226.358 44.366 220.935 49.615 220.935 56.778C220.935 63.941 226.358 69.19 233.695 69.19ZM233.695 64.434C229.403 64.434 226.213 61.215 226.213 56.778C226.213 52.312 229.403 49.122 233.695 49.122C237.987 49.122 241.177 52.312 241.177 56.778C241.177 61.215 237.987 64.434 233.695 64.434ZM250.172 68.61H255.45V62.317H259.249C265.397 62.317 268.993 58.895 268.993 53.617C268.993 48.397 265.397 44.975 259.249 44.975H250.172V68.61ZM255.45 57.648V49.644H259.017C261.946 49.644 263.715 51.007 263.715 53.617C263.715 56.256 261.946 57.648 259.017 57.648H255.45ZM272.417 68.61H290.252V64.028H277.695V58.953H288.976V54.371H277.695V49.557H289.991V44.975H272.417V68.61ZM294.379 68.61H299.657V54.11L311.46 68.32H315.868V44.685H310.59V59.185L298.787 44.975H294.379V68.61Z" fill="white"/>
</g>
<path d="M110.185 21.8H105.433V33H107.289V29.608H110.185C112.937 29.608 114.201 27.704 114.201 25.672C114.201 23.688 112.937 21.8 110.185 21.8ZM110.073 27.912H107.289V23.496H110.073C111.689 23.496 112.313 24.6 112.313 25.736C112.313 26.84 111.689 27.912 110.073 27.912ZM122.84 33H125.192L121.768 29.064C123.544 28.68 124.664 27.32 124.664 25.464C124.664 23.256 123.08 21.8 120.712 21.8H116.152V33H118.04V29.176H119.592L122.84 33ZM122.776 25.528C122.776 26.76 121.976 27.496 120.632 27.496H118.04V23.496H120.616C121.976 23.496 122.776 24.264 122.776 25.528ZM128.992 31.288V28.152H134.608V26.488H128.992V23.48H134.88V21.8H127.136V33H134.976V31.288H128.992ZM147.45 21.8L143.338 27.96L139.226 21.8H137.402V33H139.258V26.184C139.258 25.736 139.242 25.368 139.21 25.064L139.258 25.048C139.418 25.288 139.77 25.816 140.074 26.248L143.002 30.616H143.642L146.602 26.232C146.954 25.704 147.274 25.24 147.418 24.984L147.45 25C147.418 25.304 147.402 25.672 147.402 26.12V33H149.258V21.8H147.45ZM152.23 33H154.086V21.8H152.23V33ZM161.634 33.224C164.482 33.224 166.338 31.336 166.338 28.36V21.8H164.482V28.36C164.482 30.328 163.362 31.528 161.634 31.528C159.922 31.528 158.786 30.328 158.786 28.344V21.8H156.93V28.36C156.93 31.352 158.802 33.224 161.634 33.224ZM179.231 21.8L175.119 27.96L171.007 21.8H169.183V33H171.039V26.184C171.039 25.736 171.023 25.368 170.991 25.064L171.039 25.048C171.199 25.288 171.551 25.816 171.855 26.248L174.783 30.616H175.423L178.383 26.232C178.735 25.704 179.055 25.24 179.199 24.984L179.231 25C179.199 25.304 179.183 25.672 179.183 26.12V33H181.039V21.8H179.231ZM198.013 21.8L193.901 27.96L189.789 21.8H187.965V33H189.821V26.184C189.821 25.736 189.805 25.368 189.773 25.064L189.821 25.048C189.981 25.288 190.333 25.816 190.637 26.248L193.565 30.616H194.205L197.165 26.232C197.517 25.704 197.837 25.24 197.981 24.984L198.013 25C197.981 25.304 197.965 25.672 197.965 26.12V33H199.821V21.8H198.013ZM204.649 31.288V28.152H210.265V26.488H204.649V23.48H210.537V21.8H202.793V33H210.633V31.288H204.649ZM223.106 21.8L218.994 27.96L214.882 21.8H213.058V33H214.914V26.184C214.914 25.736 214.898 25.368 214.866 25.064L214.914 25.048C215.074 25.288 215.426 25.816 215.73 26.248L218.658 30.616H219.298L222.258 26.232C222.61 25.704 222.93 25.24 223.074 24.984L223.106 25C223.074 25.304 223.058 25.672 223.058 26.12V33H224.914V21.8H223.106ZM234.958 27.176V27.128C235.902 26.68 236.462 25.832 236.462 24.808C236.462 22.92 235.134 21.8 232.942 21.8H227.886V33H232.942C235.438 33 236.814 31.896 236.814 29.848C236.814 28.6 236.03 27.576 234.958 27.176ZM232.974 23.432C233.998 23.432 234.606 23.992 234.606 24.952C234.606 25.896 233.998 26.456 232.926 26.456H229.742V23.432H232.974ZM233.118 31.32H229.742V28.024H233.086C234.27 28.024 234.926 28.648 234.926 29.656C234.926 30.712 234.27 31.32 233.118 31.32ZM240.946 31.288V28.152H246.562V26.488H240.946V23.48H246.834V21.8H239.09V33H246.93V31.288H240.946ZM256.043 33H258.395L254.971 29.064C256.747 28.68 257.867 27.32 257.867 25.464C257.867 23.256 256.283 21.8 253.915 21.8H249.355V33H251.243V29.176H252.795L256.043 33ZM255.979 25.528C255.979 26.76 255.179 27.496 253.835 27.496H251.243V23.496H253.819C255.179 23.496 255.979 24.264 255.979 25.528ZM263.941 33.224C266.517 33.224 268.293 31.88 268.293 29.704C268.293 27.896 267.157 26.808 264.325 26.344C262.533 26.04 261.781 25.64 261.781 24.776C261.781 23.848 262.757 23.24 264.069 23.24C265.029 23.24 266.085 23.512 266.901 24.136L267.845 22.776C266.661 21.896 265.445 21.576 264.021 21.576C261.685 21.576 259.909 22.888 259.909 24.872C259.909 26.616 261.189 27.592 263.845 27.96C265.749 28.232 266.421 28.808 266.421 29.736C266.421 30.856 265.365 31.512 263.941 31.512C262.645 31.512 261.429 31.032 260.485 30.328L259.589 31.752C260.645 32.632 262.197 33.224 263.941 33.224ZM278.13 21.8V26.456H272.274V21.8H270.418V33L272.274 33V28.152H278.13V33H280.002V21.8H278.13ZM282.98 33H284.836V21.8H282.98V33ZM292.576 21.8H287.824V33H289.68V29.608H292.576C295.328 29.608 296.592 27.704 296.592 25.672C296.592 23.688 295.328 21.8 292.576 21.8ZM292.464 27.912H289.68V23.496H292.464C294.08 23.496 294.704 24.6 294.704 25.736C294.704 26.84 294.08 27.912 292.464 27.912Z" fill="white"/>
<defs>
<filter id="filter0_d" x="313.104" y="11.6313" width="81.2834" height="55.8792" filterUnits="userSpaceOnUse" color-interpolation-filters="sRGB">
<feFlood flood-opacity="0" result="BackgroundImageFix"/>
<feColorMatrix in="SourceAlpha" type="matrix" values="0 0 0 0 0 0 0 0 0 0 0 0 0 0 0 0 0 0 127 0"/>
<feOffset dy="4"/>
<feGaussianBlur stdDeviation="2"/>
<feColorMatrix type="matrix" values="0 0 0 0 0 0 0 0 0 0 0 0 0 0 0 0 0 0 0.25 0"/>
<feBlend mode="normal" in2="BackgroundImageFix" result="effect1_dropShadow"/>
<feBlend mode="normal" in="SourceGraphic" in2="effect1_dropShadow" result="shape"/>
</filter>
<filter id="filter1_d" x="82.0952" y="44.3662" width="235.773" height="28.824" filterUnits="userSpaceOnUse" color-interpolation-filters="sRGB">
<feFlood flood-opacity="0" result="BackgroundImageFix"/>
<feColorMatrix in="SourceAlpha" type="matrix" values="0 0 0 0 0 0 0 0 0 0 0 0 0 0 0 0 0 0 127 0"/>
<feOffset dy="2"/>
<feGaussianBlur stdDeviation="1"/>
<feColorMatrix type="matrix" values="0 0 0 0 0 0 0 0 0 0 0 0 0 0 0 0 0 0 0.25 0"/>
<feBlend mode="normal" in2="BackgroundImageFix" result="effect1_dropShadow"/>
<feBlend mode="normal" in="SourceGraphic" in2="effect1_dropShadow" result="shape"/>
</filter>
<linearGradient id="paint0_linear" x1="311.35" y1="7.04728" x2="291.337" y2="119.423" gradientUnits="userSpaceOnUse">
<stop stop-color="#FF2264"/>
<stop offset="0.842871" stop-color="#9227AF"/>
</linearGradient>
</defs>
</svg>
