<svg width="800" height="90" viewBox="0 0 800 90" fill="none" xmlns="http://www.w3.org/2000/svg">
<path d="M0 0H800V90H0V0Z" fill="url(#paint0_linear)"/>
<g opacity="0.4" filter="url(#filter0_d)">
<path d="M724.864 36.9968L728.895 33.8819L728.146 28.8073L723.432 26.9213L719.401 30.0362L720.15 35.1108L724.864 36.9968ZM723.739 28.8258L726.609 29.9738L727.059 33.0047L724.639 34.8875L721.769 33.7395L721.315 30.7783L723.739 28.8258Z" fill="white"/>
<path d="M742.98 27.9842L739.371 30.3701L741.76 33.9758L745.369 31.5899L742.98 27.9842Z" fill="white"/>
<path d="M699.377 10.5756L696.806 14.8901L701.125 17.4589L703.696 13.1444L699.377 10.5756Z" fill="white"/>
<path d="M765.096 61.7567L761.196 52.0242C761.138 51.8112 761.007 51.6637 760.802 51.5817L755.117 48.3806L758.215 39.761C758.375 39.4212 758.19 38.9911 757.924 38.7657C757.588 38.5362 757.17 38.5114 756.874 38.7734L749.993 43.9553C749.919 44.0208 749.772 44.1517 749.767 44.2214L746.289 51.0019L737.842 54.2746L704.132 40.0526L677.944 21.6646C677.944 21.6646 677.874 21.6605 677.878 21.5909L677.808 21.5867L677.739 21.5826L677.669 21.5785L663.545 19.1355C663.336 19.1231 663.197 19.1148 662.98 19.2417L656.054 22.814C655.98 22.8795 655.906 22.945 655.832 23.0105C655.832 23.0105 655.828 23.0801 655.758 23.076C655.685 23.1415 655.611 23.207 655.603 23.3462C655.598 23.4158 655.594 23.4855 655.59 23.5551L655.187 28.0026C655.183 28.0722 655.179 28.1418 655.17 28.2811L657.639 40.9331C657.635 41.0027 657.696 41.1461 657.762 41.2198L667.518 58.3555C667.58 58.4989 667.715 58.5767 667.85 58.6546L686.457 69.2578C686.592 69.3357 686.662 69.3398 686.801 69.348L706.185 71.5436C706.185 71.5436 706.185 71.5436 706.254 71.5477C706.324 71.5518 706.394 71.5559 706.537 71.4946L706.964 71.3801L712.693 79.7538C712.759 79.8275 712.824 79.9013 712.894 79.9054L714.095 80.8847C714.226 81.0322 714.435 81.0446 714.574 81.0529C714.784 81.0652 714.997 81.008 715.218 80.8115L717.58 78.7157C717.728 78.5847 717.88 78.3841 717.896 78.1056L718.584 68.8542L736.33 64.4553C736.33 64.4553 736.33 64.4553 736.399 64.4594C736.469 64.4635 736.469 64.4635 736.543 64.398L745.642 59.5571L753.148 62.7262C753.218 62.7303 753.284 62.8041 753.353 62.8082L760.634 63.8681C760.774 63.8763 760.913 63.8846 760.987 63.8191L764.616 62.7763C764.829 62.7191 765.05 62.5226 765.132 62.3178C765.137 62.2482 765.153 61.9697 765.096 61.7567ZM751.247 45.2172L755.639 41.9141L753.382 48.1382L748.724 50.0283L751.247 45.2172ZM701.965 61.303L730.615 64.1169L707.567 69.4596L701.965 61.303ZM701.236 59.4434L695.88 50.6726L720.593 53.8124L732.809 62.5002L701.236 59.4434ZM694.663 48.784L692.749 45.6665L703.611 41.7683L717.572 51.6773L694.663 48.784ZM692.441 48.5128L686.75 47.7567L691.039 46.1941L692.441 48.5128ZM710.642 44.6997L731.594 53.4855L721.18 52.1704L710.642 44.6997ZM691.79 44.1426L680.374 25.5113L701.795 40.543L691.79 44.1426ZM677.262 23.7203L690.146 44.7439L683.073 47.2595L677.873 38.2185L671.451 28.5463L677.262 23.7203ZM693.658 50.4013L698.633 58.5207L691.959 54.2831L685.257 49.3451L693.658 50.4013ZM736.015 62.69L724.201 54.3055L737.599 56.0069L743.453 58.7289L736.015 62.69ZM744.786 57.4803L740.023 55.2421L745.677 53.0617L744.786 57.4803ZM663.582 20.8843L675.491 22.9168L670.193 27.3539L662.856 22.518C662.72 22.4402 662.515 22.3582 662.306 22.3458L660.551 22.4515L663.582 20.8843ZM687.113 67.6199L668.843 57.2462L659.349 40.4055L656.934 28.0361L657.291 24.3544L661.994 24.0739L669.868 29.2909L676.417 39.1803L682.187 49.2331C682.252 49.3069 682.314 49.4503 682.449 49.5281L691.028 55.8348L700.063 61.5397L705.726 69.8396L687.113 67.6199ZM714.477 79.1607L713.944 78.71L708.665 70.9918L716.681 69.0909L716.031 77.7157L714.477 79.1607ZM760.59 62.2585L753.583 61.2848L746.422 58.2059L747.678 52.3418L754.054 49.7849L759.74 52.986L763.152 61.502L760.59 62.2585Z" fill="white"/>
</g>
<path opacity="0.5" d="M134.195 32.1665L138.971 27.5949L137.314 21.1432L130.976 19.3493L126.2 23.9209L127.856 30.3726L134.195 32.1665ZM131.631 21.7672L135.489 22.8591L136.483 26.712L133.618 29.4731L129.759 28.3811L128.77 24.6187L131.631 21.7672Z" fill="white"/>
<path opacity="0.5" d="M627.252 70L632 65.6364L630.705 59.0909L624.748 57L620 61.3636L621.295 67.9091L627.252 70ZM625.266 59.4545L628.892 60.7273L629.669 64.6364L626.82 67.2727L623.194 66L622.417 62.1818L625.266 59.4545Z" fill="white"/>
<path opacity="0.5" d="M34.9998 26.9334L36.9331 32.5083L42.508 30.575L40.5746 25.0001L34.9998 26.9334Z" fill="white"/>
<path opacity="0.5" d="M209.397 46.0001L206 47.6235L207.623 51.0202L211.02 49.3967L209.397 46.0001Z" fill="white"/>
<path opacity="0.2" d="M80.4795 61.7967L71.5342 65.582L75.3195 74.5274L84.2649 70.7421L80.4795 61.7967Z" fill="white"/>
<path opacity="0.5" d="M158.192 65.0001L155 71.1626L161.162 74.3545L164.354 68.1921L158.192 65.0001Z" fill="white"/>
<path opacity="0.2" d="M594.252 39.811L592 44.6953L596.884 46.947L599.136 42.0627L594.252 39.811Z" fill="white"/>
<path opacity="0.2" d="M101.099 34.5333L98.3276 39.8838L103.678 42.6552L106.45 37.3046L101.099 34.5333Z" fill="white"/>
<g filter="url(#filter1_d)">
<path d="M296.739 43.366C289.46 43.366 284.095 48.615 284.095 55.778C284.095 62.941 289.46 68.19 296.739 68.19C303.902 68.19 309.267 62.941 309.267 55.778V54.386H296.42V58.852H303.641C303.09 61.172 300.538 63.434 296.855 63.434C292.563 63.434 289.373 60.215 289.373 55.778C289.373 51.37 292.563 48.209 296.855 48.209C299.726 48.209 301.959 49.543 302.945 51.283H308.745C307.382 46.846 302.916 43.366 296.739 43.366ZM333.176 67.61L327.695 59.113C330.479 57.808 332.016 55.314 332.016 52.066C332.016 47.165 328.507 43.975 322.504 43.975H312.992V67.61H318.27V60.157H322.475L327.057 67.61H333.176ZM318.27 48.644H322.272C325.056 48.644 326.738 49.833 326.738 52.066C326.738 54.299 325.056 55.488 322.272 55.488H318.27V48.644ZM352.607 67.61H358.494L349.33 43.975H343.849L334.685 67.61H340.137L341.79 63.028H350.954L352.607 67.61ZM343.414 58.446L346.372 50.21L349.33 58.446H343.414ZM361.447 67.61H366.725V53.11L378.528 67.32H382.936V43.685H377.658V58.185L365.855 43.975H361.447V67.61ZM387.685 67.61H396.849C404.679 67.61 409.522 62.796 409.522 55.807C409.522 48.818 404.679 43.975 396.849 43.975H387.685V67.61ZM392.963 62.941V48.644H396.936C401.46 48.644 404.244 51.254 404.244 55.807C404.244 60.36 401.46 62.941 396.936 62.941H392.963ZM433.695 68.19C441.032 68.19 446.455 62.941 446.455 55.778C446.455 48.615 441.032 43.366 433.695 43.366C426.358 43.366 420.935 48.615 420.935 55.778C420.935 62.941 426.358 68.19 433.695 68.19ZM433.695 63.434C429.403 63.434 426.213 60.215 426.213 55.778C426.213 51.312 429.403 48.122 433.695 48.122C437.987 48.122 441.177 51.312 441.177 55.778C441.177 60.215 437.987 63.434 433.695 63.434ZM450.172 67.61H455.45V61.317H459.249C465.397 61.317 468.993 57.895 468.993 52.617C468.993 47.397 465.397 43.975 459.249 43.975H450.172V67.61ZM455.45 56.648V48.644H459.017C461.946 48.644 463.715 50.007 463.715 52.617C463.715 55.256 461.946 56.648 459.017 56.648H455.45ZM472.417 67.61H490.252V63.028H477.695V57.953H488.976V53.371H477.695V48.557H489.991V43.975H472.417V67.61ZM494.379 67.61H499.657V53.11L511.46 67.32H515.868V43.685H510.59V58.185L498.787 43.975H494.379V67.61Z" fill="white"/>
</g>
<path d="M237.47 19.512V32.328H243.182C246.062 32.328 247.742 30.92 247.742 28.712C247.742 27.128 246.606 25.992 245.15 25.704C246.302 25.432 247.134 24.264 247.134 23.064C247.134 20.872 245.534 19.512 242.702 19.512H237.47ZM242.654 25.16H239.15V20.968H242.654C244.43 20.968 245.438 21.704 245.438 23.064C245.438 24.424 244.43 25.16 242.654 25.16ZM243.134 30.872H239.15V26.552H243.134C244.926 26.552 246.046 27.304 246.046 28.712C246.046 30.12 244.926 30.872 243.134 30.872ZM251.587 19.512H249.907V32.328H258.627V30.808H251.587V19.512ZM259.903 19.512V26.808C259.903 30.328 262.095 32.632 265.503 32.632C268.895 32.632 271.087 30.328 271.087 26.808V19.512H269.407V26.808C269.407 29.384 267.935 31.096 265.503 31.096C263.071 31.096 261.583 29.384 261.583 26.808V19.512H259.903ZM273.657 19.512V32.328H282.905V30.84H275.337V26.52H282.201V25.032H275.337V21H282.761V19.512H273.657ZM299.784 19.512L296.744 29.816L293.704 19.512H291.911L288.888 29.784L285.848 19.512H284.104L287.992 32.328H289.688L292.792 22.104L295.88 32.328H297.576L301.48 19.512H299.784ZM312.371 19.512V25H304.931V19.512L303.251 19.512V32.328H304.931V26.536H312.371V32.328H314.051V19.512H312.371ZM326.238 32.328H328.078L322.814 19.512H321.038L315.758 32.328H317.518L318.798 29.16H324.958L326.238 32.328ZM319.39 27.672L321.886 21.48L324.366 27.672H319.39ZM331.462 19.512H329.782V32.328H338.502V30.808L331.462 30.808V19.512ZM340.392 19.512V32.328H349.64V30.84H342.072V26.52H348.936V25.032H342.072V21H349.496V19.512H340.392ZM356.282 19.512V32.328H357.962V28.408H360.826C364.154 28.408 366.106 26.632 366.106 23.96C366.106 21.288 364.154 19.512 360.826 19.512H356.282ZM360.698 26.888H357.962V21.032H360.698C363.018 21.032 364.426 22.056 364.426 23.96C364.426 25.864 363.018 26.888 360.698 26.888ZM378.386 32.328L375.17 27.432C376.93 26.808 377.906 25.464 377.906 23.656C377.906 21.128 376.002 19.512 372.77 19.512H367.97V32.328H369.65V27.8H372.77C373.01 27.8 373.25 27.784 373.49 27.768L376.402 32.328H378.386ZM372.642 26.296H369.65V21.016H372.642C374.866 21.016 376.226 21.928 376.226 23.656C376.226 25.384 374.866 26.296 372.642 26.296ZM380.173 19.512V32.328H389.421V30.84H381.853V26.52H388.717V25.032H381.853V21H389.277V19.512H380.173ZM391.579 19.512V32.328H393.259V22.872L397.387 30.168H398.603L402.731 22.872V32.328H404.411V19.512H402.939L397.995 28.216L393.051 19.512H391.579ZM408.822 19.512H407.142V32.328H408.822V19.512ZM411.403 19.512V26.808C411.403 30.328 413.595 32.632 417.003 32.632C420.395 32.632 422.587 30.328 422.587 26.808V19.512H420.907V26.808C420.907 29.384 419.435 31.096 417.003 31.096C414.571 31.096 413.083 29.384 413.083 26.808V19.512H411.403ZM425.157 19.512V32.328H426.837V22.872L430.965 30.168H432.181L436.309 22.872V32.328H437.989V19.512H436.517L431.573 28.216L426.629 19.512H425.157ZM445.204 19.512V32.328H446.884V22.872L451.012 30.168H452.228L456.356 22.872V32.328H458.036V19.512H456.564L451.62 28.216L446.676 19.512H445.204ZM460.767 19.512V32.328H470.015V30.84H462.447V26.52H469.311V25.032H462.447V21H469.871V19.512H460.767ZM472.173 19.512V32.328H473.853V22.872L477.981 30.168H479.197L483.325 22.872V32.328H485.005V19.512H483.533L478.589 28.216L473.645 19.512H472.173ZM487.735 19.512V32.328H493.447C496.327 32.328 498.007 30.92 498.007 28.712C498.007 27.128 496.871 25.992 495.415 25.704C496.567 25.432 497.399 24.264 497.399 23.064C497.399 20.872 495.799 19.512 492.967 19.512H487.735ZM492.919 25.16H489.415V20.968H492.919C494.695 20.968 495.703 21.704 495.703 23.064C495.703 24.424 494.695 25.16 492.919 25.16ZM493.399 30.872H489.415V26.552H493.399C495.191 26.552 496.311 27.304 496.311 28.712C496.311 30.12 495.191 30.872 493.399 30.872ZM500.173 19.512V32.328H509.421V30.84H501.853V26.52H508.717V25.032H501.853V21H509.277V19.512H500.173ZM521.995 32.328L518.779 27.432C520.539 26.808 521.515 25.464 521.515 23.656C521.515 21.128 519.611 19.512 516.379 19.512H511.579V32.328H513.259V27.8H516.379C516.619 27.8 516.859 27.784 517.099 27.768L520.011 32.328H521.995ZM516.251 26.296H513.259V21.016H516.251C518.475 21.016 519.835 21.928 519.835 23.656C519.835 25.384 518.475 26.296 516.251 26.296ZM528.377 19.208C525.545 19.208 523.449 20.504 523.449 22.632C523.449 24.76 524.921 25.8 527.817 26.408C530.601 27 531.769 27.576 531.769 29C531.769 30.28 530.409 31.16 528.489 31.16C526.345 31.16 524.953 30.056 524.777 28.504H523.049C523.225 30.984 525.385 32.616 528.377 32.616C531.225 32.616 533.481 31.208 533.481 28.904C533.481 27 532.217 25.784 529.065 25.112C526.329 24.536 525.145 23.96 525.145 22.632C525.145 21.48 526.281 20.648 528.297 20.648C530.297 20.648 531.529 21.688 531.705 23.048H533.433C533.273 20.808 531.193 19.208 528.377 19.208ZM544.73 19.512V25H537.29V19.512H535.61V32.328H537.29V26.536H544.73V32.328H546.41V19.512H544.73ZM550.837 19.512H549.157V32.328H550.837V19.512ZM553.595 19.512V32.328H555.275V28.408H558.139C561.467 28.408 563.419 26.632 563.419 23.96C563.419 21.288 561.467 19.512 558.139 19.512H553.595ZM558.011 26.888H555.275V21.032H558.011C560.331 21.032 561.739 22.056 561.739 23.96C561.739 25.864 560.331 26.888 558.011 26.888Z" fill="white"/>
<defs>
<filter id="filter0_d" x="651.171" y="10.5757" width="117.967" height="78.4788" filterUnits="userSpaceOnUse" color-interpolation-filters="sRGB">
<feFlood flood-opacity="0" result="BackgroundImageFix"/>
<feColorMatrix in="SourceAlpha" type="matrix" values="0 0 0 0 0 0 0 0 0 0 0 0 0 0 0 0 0 0 127 0"/>
<feOffset dy="4"/>
<feGaussianBlur stdDeviation="2"/>
<feColorMatrix type="matrix" values="0 0 0 0 0 0 0 0 0 0 0 0 0 0 0 0 0 0 0.25 0"/>
<feBlend mode="normal" in2="BackgroundImageFix" result="effect1_dropShadow"/>
<feBlend mode="normal" in="SourceGraphic" in2="effect1_dropShadow" result="shape"/>
</filter>
<filter id="filter1_d" x="282.095" y="43.3662" width="235.773" height="28.824" filterUnits="userSpaceOnUse" color-interpolation-filters="sRGB">
<feFlood flood-opacity="0" result="BackgroundImageFix"/>
<feColorMatrix in="SourceAlpha" type="matrix" values="0 0 0 0 0 0 0 0 0 0 0 0 0 0 0 0 0 0 127 0"/>
<feOffset dy="2"/>
<feGaussianBlur stdDeviation="1"/>
<feColorMatrix type="matrix" values="0 0 0 0 0 0 0 0 0 0 0 0 0 0 0 0 0 0 0.25 0"/>
<feBlend mode="normal" in2="BackgroundImageFix" result="effect1_dropShadow"/>
<feBlend mode="normal" in="SourceGraphic" in2="effect1_dropShadow" result="shape"/>
</filter>
<linearGradient id="paint0_linear" x1="622.699" y1="7.04728" x2="612.457" y2="122.075" gradientUnits="userSpaceOnUse">
<stop stop-color="#FF2264"/>
<stop offset="0.842871" stop-color="#9227AF"/>
</linearGradient>
</defs>
</svg>
