<svg width="192" height="48" viewBox="0 0 192 48" fill="none" xmlns="http://www.w3.org/2000/svg">
<rect x="0.5" width="191" height="48" rx="10" fill="#FFEE53"/>
<path d="M32.996 28.52V25.608C36.26 25.384 38.356 23.768 38.356 21.448C38.356 18.92 35.908 17.24 32.196 17.24C28.484 17.24 26.036 18.92 26.036 21.448C26.036 23.768 28.132 25.384 31.38 25.608V28.52H25.38V30.008H39.028V28.52H32.996ZM27.716 21.448C27.716 19.784 29.508 18.68 32.196 18.68C34.9 18.68 36.692 19.784 36.692 21.448C36.692 23.096 34.9 24.2 32.196 24.2C29.508 24.2 27.716 23.096 27.716 21.448ZM53.6186 21.64H51.2026V18.456H53.4746V17.16H41.6986V18.456H43.9706V21.64H41.5546V22.936H53.6186V21.64ZM45.5546 18.456H49.6186V21.64H45.5546V18.456ZM40.7706 24.328V25.672H54.4186V24.328H40.7706ZM43.3306 26.808H41.7146V30.504H53.7146V29.16H43.3306V26.808ZM70.4493 22.536H68.5293V17H66.9453V30.664H68.5293V24.056H70.4493V22.536ZM56.6573 18.936H62.6413V21.416C62.6413 21.784 62.6253 22.12 62.5933 22.456H56.6573V23.896H62.3533C61.6333 26.808 59.5373 28.312 56.6573 28.328V29.816C61.0893 29.8 64.2253 26.664 64.2253 21.32V17.496H56.6573V18.936ZM79.1519 24.488V23.144H84.4159V21.944H74.1279V20.712H84.0639V19.56H74.1279V18.36H84.2879V17.16H72.5439V23.144H77.5839V24.488H71.5519V25.752H85.1999V24.488H79.1519ZM72.3839 28.264H82.6399V30.68H84.2399V26.984H72.3839V28.264ZM99.3105 19.88V17H97.7265V24.792H99.3105V21.4H101.231V19.88H99.3105ZM95.4065 17.24H93.8545V19.208H88.9745V17.24H87.4225V23.992H95.4065V17.24ZM88.9745 22.68V20.504H93.8545V22.68H88.9745ZM93.6625 25.224C90.3985 25.224 87.8065 25.976 87.8065 27.944C87.8065 29.912 90.3985 30.664 93.6625 30.664C96.9425 30.664 99.5185 29.912 99.5185 27.944C99.5185 25.976 96.9425 25.224 93.6625 25.224ZM93.6625 29.368C91.3425 29.368 89.4865 28.936 89.4865 27.944C89.4865 26.968 91.3425 26.52 93.6625 26.52C95.9985 26.52 97.8385 26.968 97.8385 27.944C97.8385 28.936 95.9985 29.368 93.6625 29.368ZM107.794 21.528H119.65V20.312H109.378V18.376H119.49V17.16H107.794V21.528ZM106.818 23.928H120.466V22.696H106.818V23.928ZM107.762 30.504H119.762V29.32H109.314V28.36H119.522V25.096H107.73V26.28H117.97V27.24H107.762V30.504ZM133.488 17V22.664H130.832C130.592 19.016 128.992 17.32 126.8 17.32C124.4 17.32 122.72 19.336 122.72 23.672C122.72 28.008 124.4 30.024 126.8 30.024C129.088 30.024 130.736 28.152 130.864 24.152H133.488V30.664H135.072V17H133.488ZM126.8 28.568C125.376 28.568 124.304 27.144 124.304 23.672C124.304 20.216 125.376 18.776 126.8 18.776C128.208 18.776 129.28 20.216 129.28 23.672C129.28 27.144 128.208 28.568 126.8 28.568ZM151.887 22.536H149.967V17H148.383V30.664H149.967V24.056H151.887V22.536ZM138.095 18.952H143.919V20.824C143.919 25.4 141.807 28.296 138.095 28.312V29.816C142.735 29.816 145.535 26.232 145.535 20.792V17.496H138.095V18.952ZM164.157 30.664H165.741V17H164.157V30.664ZM153.629 29.816C158.301 29.816 161.213 26.264 161.213 20.792V17.496H153.629V18.952H159.597V20.824C159.597 25.4 157.357 28.296 153.629 28.312V29.816Z" fill="#482727"/>
</svg>
