<svg width="312" height="474" viewBox="0 0 312 474" fill="none" xmlns="http://www.w3.org/2000/svg">
<path d="M0 16C0 7.16346 7.16344 0 16 0H296C304.837 0 312 7.16344 312 16V458C312 466.837 304.837 474 296 474H16C7.16344 474 0 466.837 0 458V16Z" fill="url(#paint0_linear_1250_13638)"/>
<path opacity="0.5" d="M276.862 38.0255L280.862 34.1973L279.475 28.7947L274.167 27.2925L270.167 31.1207L271.554 36.5233L276.862 38.0255ZM274.716 29.3172L277.946 30.2316L278.778 33.458L276.379 35.77L273.148 34.8557L272.32 31.705L274.716 29.3172Z" fill="white"/>
<path opacity="0.5" d="M260 285.551L262.551 289.782L266.783 287.232L264.232 283L260 285.551Z" fill="white"/>
<path opacity="0.5" d="M48.4581 50.0001L44 52.1309L46.1307 56.5889L50.5888 54.4582L48.4581 50.0001Z" fill="white"/>
<path opacity="0.2" d="M285.799 294.79L277.492 300.582L283.284 308.889L291.591 303.096L285.799 294.79Z" fill="white"/>
<path opacity="0.15" d="M34.7246 313.637L32.4502 321.519L40.3318 323.793L42.6062 315.911L34.7246 313.637Z" fill="white"/>
<path opacity="0.2" d="M25.3303 28.0001L22 34.4297L28.4296 37.76L31.7599 31.3304L25.3303 28.0001Z" fill="white"/>
<g filter="url(#filter0_d_1250_13638)">
<path d="M56.944 189.296V182.576C67.584 181.232 74.472 175.408 74.472 167.456C74.472 158.384 65.456 152.056 52.128 152.056C38.8 152.056 29.784 158.384 29.784 167.456C29.784 175.408 36.672 181.232 47.312 182.576V189.296H27.936V198.144H76.32V189.296H56.944ZM39.808 167.456C39.808 163.312 44.848 160.568 52.128 160.568C59.408 160.568 64.448 163.312 64.448 167.456C64.448 171.544 59.408 174.344 52.128 174.344C44.848 174.344 39.808 171.544 39.808 167.456ZM126.043 166.056H118.763V159.448H125.539V152H83.0912V159.448H89.8672V166.056H82.5872V173.504H126.043V166.056ZM99.3312 159.448H109.299V166.056H99.3312V159.448ZM80.1232 176.36V184.144H128.507V176.36H80.1232ZM92.5552 186.328H82.9232V199.824H126.267V192.04H92.5552V186.328ZM182.822 169.472H177.222V152H167.758V199.824H177.222V178.656H182.822V169.472ZM133.654 161.632H151.742V168.128V169.528H133.654V178.096H150.174C147.43 185.32 141.438 188.68 133.654 188.736V197.584C149.67 197.528 161.15 186.608 161.15 167.456V153.12H133.654V161.632ZM213.394 176.696V174.232H230.53V168.016H196.818V165.888H229.186V160.344H196.818V158.216H229.97V152H187.466V174.232H203.986V176.696H184.498V183.92H232.882V176.696H213.394ZM187.074 193.328H220.506V200.384H230.082V186.104H187.074V193.328ZM281.597 160.232V152H272.133V178.992H281.597V169.416H287.197V160.232H281.597ZM266.925 152.56H257.741V157.32H246.933V152.56H237.749V177.2H266.925V152.56ZM246.933 169.584V164.712H257.741V169.584H246.933ZM260.485 179.776C248.445 179.776 238.925 182.408 238.925 190.08C238.925 197.752 248.445 200.384 260.485 200.384C272.525 200.384 282.045 197.752 282.045 190.08C282.045 182.408 272.525 179.776 260.485 179.776ZM260.485 192.936C254.157 192.936 249.117 192.208 249.117 190.08C249.117 188.008 254.157 187.224 260.485 187.224C266.813 187.224 271.853 188.008 271.853 190.08C271.853 192.208 266.813 192.936 260.485 192.936ZM84.6605 264.16C98.8285 264.16 109.301 254.024 109.301 240.192C109.301 226.36 98.8285 216.224 84.6605 216.224C70.4925 216.224 60.0205 226.36 60.0205 240.192C60.0205 254.024 70.4925 264.16 84.6605 264.16ZM84.6605 254.976C76.3725 254.976 70.2125 248.76 70.2125 240.192C70.2125 231.568 76.3725 225.408 84.6605 225.408C92.9485 225.408 99.1085 231.568 99.1085 240.192C99.1085 248.76 92.9485 254.976 84.6605 254.976ZM113.677 263.04H123.869V250.888H131.205C143.077 250.888 150.021 244.28 150.021 234.088C150.021 224.008 143.077 217.4 131.205 217.4H113.677V263.04ZM123.869 241.872V226.416H130.757C136.413 226.416 139.829 229.048 139.829 234.088C139.829 239.184 136.413 241.872 130.757 241.872H123.869ZM153.833 263.04H188.273V254.192H164.025V244.392H185.809V235.544H164.025V226.248H187.769V217.4H153.833V263.04ZM193.442 263.04H203.634V235.04L226.426 262.48H234.938V216.84H224.746V244.84L201.954 217.4H193.442V263.04ZM252.173 217.4H240.077L242.653 247.92H249.597L252.173 217.4ZM246.125 252.008C242.709 252.008 240.189 254.528 240.189 257.944C240.189 261.36 242.709 263.824 246.125 263.824C249.541 263.824 252.061 261.36 252.061 257.944C252.061 254.528 249.541 252.008 246.125 252.008Z" fill="white"/>
</g>
<path d="M88.574 83.492H85.856V77.804H88.412V76.148H74.984V77.804H77.54V83.492H74.822V85.13H88.574V83.492ZM79.34 77.804H84.056V83.492H79.34V77.804ZM74.03 88.442V90.134H89.384V88.442H74.03ZM103.908 90.872H105.69V75.5H103.908V90.872ZM92.2265 89.954H98.4545C99.9485 89.954 101.55 89.684 102.486 89.216V87.578C101.55 88.028 99.9665 88.316 98.5085 88.316H94.0085V83.708H100.884V76.058H92.1905V77.696H99.1025V82.07H92.2265V89.954ZM121.223 90.872H123.005V75.5H121.223V90.872ZM109.541 89.954H118.253V76.058H109.541V89.954ZM111.323 88.28V77.732H116.471V88.28H111.323ZM138.663 75.5V78.668H135.513C135.099 76.886 133.389 75.68 130.869 75.68C127.953 75.68 126.135 77.3 126.135 79.568C126.135 81.836 127.953 83.456 130.869 83.456C133.443 83.456 135.189 82.196 135.549 80.324H138.663V83.852H140.445V75.5H138.663ZM130.869 81.962C129.105 81.962 127.899 81.062 127.899 79.568C127.899 78.074 129.105 77.174 130.869 77.174C132.633 77.174 133.839 78.074 133.839 79.568C133.839 81.062 132.633 81.962 130.869 81.962ZM127.539 90.674H140.445V84.698H127.539V90.674ZM129.321 86.21H138.663V89.162H129.321V86.21ZM161.419 75.5V84.14H163.111V75.5H161.419ZM155.461 80.288H157.711V83.978H159.385V75.59H157.711V78.668H155.461V75.878H148.801V83.384H155.461V80.288ZM153.805 81.89H150.457V77.372H153.805V81.89ZM149.683 90.674H163.111V84.986H149.683V90.674ZM151.447 86.48H161.347V89.18H151.447V86.48ZM178.319 75.5V81.8H174.989V75.95H173.225V81.242H168.203V75.95H166.439V89.954H174.989V83.474H178.319V90.872H180.119V75.5H178.319ZM168.203 88.316V82.88H173.225V88.316H168.203ZM188.146 79.064L192.736 81.152L193.402 79.82L189.028 77.804C189.406 77.066 189.622 76.256 189.622 75.464L187.84 75.356C187.804 77.246 186.238 79.424 183.448 79.802V81.278C185.482 81.08 187.084 80.234 188.146 79.064ZM195.58 75.5V84.302H197.362V75.5H195.58ZM187.354 85.364H189.1V83.726H189.19C191.386 83.726 193.312 83.564 194.284 83.132V81.746C193.222 82.196 191.35 82.34 189.244 82.34H182.962V83.726H187.354V85.364ZM195.598 86.462H186.13V85.148H184.348V90.674H197.362V85.148H195.598V86.462ZM186.13 89.27V87.848H195.598V89.27H186.13ZM215.023 79.136V80.702H218.011V86.93H219.793V75.5H218.011V79.136H215.023ZM210.739 81.314L215.077 84.608L216.085 83.312L211.369 79.802C211.585 79.064 211.729 78.272 211.765 77.444H215.635V75.896H205.825V77.444H209.965C209.803 80.522 208.201 82.736 205.627 83.096V84.734C207.895 84.5 209.695 83.24 210.739 81.314ZM208.525 89.072V85.778H206.707V90.674H220.117V89.072H208.525ZM234.606 82.7V80.774C236.118 80.324 237.09 79.532 237.09 78.344C237.09 76.256 234.03 75.41 230.304 75.41C226.578 75.41 223.518 76.256 223.518 78.344C223.518 79.532 224.49 80.324 226.002 80.774V82.7H222.636V84.14H237.99V82.7H234.606ZM225.408 78.344C225.408 77.282 227.622 76.814 230.304 76.814C232.986 76.814 235.2 77.282 235.2 78.344C235.2 79.424 232.986 79.892 230.304 79.892C227.622 79.892 225.408 79.424 225.408 78.344ZM227.766 81.152C228.558 81.242 229.404 81.296 230.304 81.296C231.204 81.296 232.05 81.242 232.842 81.152V82.7H227.766V81.152ZM230.304 85.328C226.632 85.328 223.554 85.994 223.554 88.1C223.554 90.206 226.632 90.908 230.304 90.908C233.976 90.908 237.054 90.206 237.054 88.1C237.054 85.994 233.976 85.328 230.304 85.328ZM230.304 89.504C227.82 89.504 225.444 89.162 225.444 88.1C225.444 87.056 227.82 86.732 230.304 86.732C232.788 86.732 235.182 87.056 235.182 88.1C235.182 89.162 232.788 89.504 230.304 89.504ZM56.8109 110.46V107.184C60.4829 106.932 62.8409 105.114 62.8409 102.504C62.8409 99.66 60.0869 97.77 55.9109 97.77C51.7349 97.77 48.9809 99.66 48.9809 102.504C48.9809 105.114 51.3389 106.932 54.9929 107.184V110.46H48.2429V112.134H63.5969V110.46H56.8109ZM50.8709 102.504C50.8709 100.632 52.8869 99.39 55.9109 99.39C58.9529 99.39 60.9689 100.632 60.9689 102.504C60.9689 104.358 58.9529 105.6 55.9109 105.6C52.8869 105.6 50.8709 104.358 50.8709 102.504ZM80.0114 102.72H77.2934V99.138H79.8494V97.68H66.6014V99.138H69.1574V102.72H66.4394V104.178H80.0114V102.72ZM70.9394 99.138H75.5114V102.72H70.9394V99.138ZM65.5574 105.744V107.256H80.9114V105.744H65.5574ZM68.4374 108.534H66.6194V112.692H80.1194V111.18H68.4374V108.534ZM98.9458 103.728H96.7858V97.5H95.0038V112.872H96.7858V105.438H98.9458V103.728ZM83.4298 99.678H90.1618V102.468C90.1618 102.882 90.1438 103.26 90.1078 103.638H83.4298V105.258H89.8378C89.0278 108.534 86.6698 110.226 83.4298 110.244V111.918C88.4158 111.9 91.9438 108.372 91.9438 102.36V98.058H83.4298V99.678ZM108.736 105.924V104.412H114.658V103.062H103.084V101.676H114.262V100.38H103.084V99.03H114.514V97.68H101.302V104.412H106.972V105.924H100.186V107.346H115.54V105.924H108.736ZM101.122 110.172H112.66V112.89H114.46V108.732H101.122V110.172ZM131.415 100.74V97.5H129.633V106.266H131.415V102.45H133.575V100.74H131.415ZM127.023 97.77H125.277V99.984H119.787V97.77H118.041V105.366H127.023V97.77ZM119.787 103.89V101.442H125.277V103.89H119.787ZM125.061 106.752C121.389 106.752 118.473 107.598 118.473 109.812C118.473 112.026 121.389 112.872 125.061 112.872C128.751 112.872 131.649 112.026 131.649 109.812C131.649 107.598 128.751 106.752 125.061 106.752ZM125.061 111.414C122.451 111.414 120.363 110.928 120.363 109.812C120.363 108.714 122.451 108.21 125.061 108.21C127.689 108.21 129.759 108.714 129.759 109.812C129.759 110.928 127.689 111.414 125.061 111.414ZM147.379 112.872H149.179V97.5H147.379V112.872ZM140.125 112.152C142.843 112.152 144.769 109.884 144.769 105.006C144.769 100.128 142.843 97.86 140.125 97.86C137.389 97.86 135.463 100.128 135.463 105.006C135.463 109.884 137.389 112.152 140.125 112.152ZM140.125 110.514C138.487 110.514 137.245 108.912 137.245 105.006C137.245 101.118 138.487 99.498 140.125 99.498C141.727 99.498 142.987 101.118 142.987 105.006C142.987 108.912 141.727 110.514 140.125 110.514ZM165.743 110.46V107.184C169.415 106.932 171.773 105.114 171.773 102.504C171.773 99.66 169.019 97.77 164.843 97.77C160.667 97.77 157.913 99.66 157.913 102.504C157.913 105.114 160.271 106.932 163.925 107.184V110.46H157.175V112.134H172.529V110.46H165.743ZM159.803 102.504C159.803 100.632 161.819 99.39 164.843 99.39C167.885 99.39 169.901 100.632 169.901 102.504C169.901 104.358 167.885 105.6 164.843 105.6C161.819 105.6 159.803 104.358 159.803 102.504ZM188.943 102.72H186.225V99.138H188.781V97.68H175.533V99.138H178.089V102.72H175.371V104.178H188.943V102.72ZM179.871 99.138H184.443V102.72H179.871V99.138ZM174.489 105.744V107.256H189.843V105.744H174.489ZM177.369 108.534H175.551V112.692H189.051V111.18H177.369V108.534ZM199.705 98.976H196.573V97.284H194.791V98.976H191.533V100.38H199.705V98.976ZM202.495 102.774H204.925V107.13H206.581V97.5H204.925V101.136H202.495V97.59H200.839V106.932H202.495V102.774ZM195.709 106.86C197.743 106.86 199.327 105.78 199.327 103.998C199.327 102.216 197.743 101.136 195.709 101.136C193.675 101.136 192.091 102.216 192.091 103.998C192.091 105.78 193.675 106.86 195.709 106.86ZM195.709 102.45C196.933 102.45 197.725 103.134 197.725 103.998C197.725 104.88 196.933 105.546 195.709 105.546C194.485 105.546 193.693 104.88 193.693 103.998C193.693 103.134 194.485 102.45 195.709 102.45ZM207.589 111.414L204.241 109.452C204.511 108.912 204.691 108.336 204.781 107.724L203.071 107.49C202.891 109.182 201.397 110.73 199.849 111.054L197.509 109.56C197.815 109.002 198.013 108.372 198.103 107.724L196.411 107.49C196.213 109.308 194.449 110.964 192.757 111.108V112.674C194.233 112.566 195.655 111.846 196.663 110.748L199.489 112.674C200.983 112.566 202.423 111.828 203.413 110.676L206.725 112.764L207.589 111.414ZM223.392 103.08L223.986 101.73L217.614 99.21C217.956 98.67 218.208 98.076 218.334 97.446L216.552 97.14C215.958 99.768 212.646 101.478 209.676 101.586V103.062C212.286 103.008 214.968 102.018 216.66 100.362L223.392 103.08ZM209.118 104.268V105.69H224.472V104.268H209.118ZM221.646 108.282H211.944V106.842H210.18V112.692H223.392V106.842H221.646V108.282ZM211.944 111.288V109.668H221.646V111.288H211.944ZM238.996 112.89L240.778 112.872V97.5H238.996V112.89ZM227.314 111.954H233.596C235.072 111.954 236.638 111.666 237.574 111.198V109.56C236.638 110.01 235.054 110.316 233.596 110.316H229.132V97.968H227.314V111.954ZM259.821 103.728H257.661V97.5H255.879V112.872H257.661V105.438H259.821V103.728ZM246.285 110.334V99.678H253.341V98.058H244.467V111.954H250.479C251.955 111.954 253.611 111.684 254.547 111.216V109.596C253.611 110.046 252.027 110.334 250.569 110.334H246.285ZM261.727 108.498H263.095L263.563 98.076H261.277L261.727 108.498ZM262.411 112.782C263.167 112.782 263.743 112.206 263.743 111.45C263.743 110.712 263.167 110.136 262.411 110.136C261.655 110.136 261.079 110.712 261.079 111.45C261.079 112.206 261.655 112.782 262.411 112.782Z" fill="white"/>
<path d="M32.2646 358.022H30.3016V353.914H32.1476V352.718H22.4496V353.914H24.2956V358.022H22.3326V359.205H32.2646V358.022ZM25.5956 353.914H29.0016V358.022H25.5956V353.914ZM21.7606 361.597V362.819H32.8496V361.597H21.7606ZM42.9495 363.352H44.2365V352.25H42.9495V363.352ZM34.5125 362.689H39.0105C40.0895 362.689 41.2465 362.494 41.9225 362.156V360.973C41.2465 361.298 40.1025 361.506 39.0495 361.506H35.7995V358.178H40.7655V352.653H34.4865V353.836H39.4785V356.995H34.5125V362.689ZM55.0644 363.352H56.3514V352.25H55.0644V363.352ZM46.6274 362.689H52.9194V352.653H46.6274V362.689ZM47.9144 361.48V353.862H51.6324V361.48H47.9144ZM67.2702 352.25V354.538H64.9952C64.6962 353.251 63.4612 352.38 61.6412 352.38C59.5352 352.38 58.2222 353.55 58.2222 355.188C58.2222 356.826 59.5352 357.996 61.6412 357.996C63.5002 357.996 64.7612 357.086 65.0212 355.734H67.2702V358.282H68.5572V352.25H67.2702ZM61.6412 356.917C60.3672 356.917 59.4962 356.267 59.4962 355.188C59.4962 354.109 60.3672 353.459 61.6412 353.459C62.9152 353.459 63.7862 354.109 63.7862 355.188C63.7862 356.267 62.9152 356.917 61.6412 356.917ZM59.2362 363.209H68.5572V358.893H59.2362V363.209ZM60.5232 359.985H67.2702V362.117H60.5232V359.985ZM82.5477 363.352H83.8347V352.25H82.5477V363.352ZM73.9937 362.663C77.7897 362.663 80.1557 359.777 80.1557 355.331V352.653H73.9937V353.836H78.8427V355.357C78.8427 359.075 77.0227 361.428 73.9937 361.441V362.663ZM86.3816 356.163H96.0146V355.123H87.6816V352.25H86.3816V356.163ZM85.5886 358.308H96.6776V357.268H85.5886V358.308ZM91.1266 363.378C93.7786 363.378 96.0016 362.858 96.0016 361.337C96.0016 359.816 93.7786 359.309 91.1266 359.309C88.4746 359.309 86.2516 359.816 86.2516 361.337C86.2516 362.858 88.4746 363.378 91.1266 363.378ZM91.1266 362.364C89.3326 362.364 87.6036 362.104 87.6036 361.337C87.6036 360.583 89.3326 360.323 91.1266 360.323C92.9206 360.323 94.6496 360.583 94.6496 361.337C94.6496 362.104 92.9206 362.364 91.1266 362.364ZM103.241 356.254C105.919 356.254 108.116 355.708 108.116 354.226C108.116 352.757 105.919 352.211 103.241 352.211C100.563 352.211 98.3664 352.757 98.3664 354.226C98.3664 355.708 100.563 356.254 103.241 356.254ZM103.241 355.266C101.304 355.266 99.6924 354.967 99.6924 354.226C99.6924 353.498 101.304 353.186 103.241 353.186C105.178 353.186 106.79 353.498 106.79 354.226C106.79 354.967 105.178 355.266 103.241 355.266ZM97.7034 357.944H108.792V356.943H97.7034V357.944ZM98.4704 363.222H108.22V362.26H99.7314V361.48H108.025V358.828H98.4444V359.79H106.764V360.57H98.4704V363.222ZM122.146 352.25V363.352H123.433V352.25H122.146ZM118.727 356.397H114.983V352.575H113.709V362.689H120.001V352.575H118.727V356.397ZM114.983 361.506V357.58H118.727V361.506H114.983ZM131.362 358.36V357.281H135.639V356.293H127.254V355.305H135.483V352.38H125.993V353.355H134.222V354.343H125.993V357.281H130.088V358.36H125.187V359.387H136.276V358.36H131.362ZM131.661 360.024L130.387 359.842C130.062 361.298 127.852 362.156 125.733 362.156V363.209C127.475 363.209 129.334 362.728 130.504 361.779L135.522 363.339L135.912 362.312L131.271 360.96C131.453 360.674 131.583 360.362 131.661 360.024ZM144.803 353.303H141.683V352.055H140.383V353.303H137.263V354.356H144.803V353.303ZM147.351 355.292V352.25H146.064V360.57H147.351V356.527H148.911V355.292H147.351ZM141.033 359.53C142.879 359.53 144.309 358.711 144.309 357.255C144.309 355.799 142.879 354.98 141.033 354.98C139.187 354.98 137.744 355.799 137.744 357.255C137.744 358.711 139.187 359.53 141.033 359.53ZM141.033 355.968C142.281 355.968 143.074 356.514 143.074 357.255C143.074 358.009 142.281 358.542 141.033 358.542C139.785 358.542 138.992 358.009 138.992 357.255C138.992 356.514 139.785 355.968 141.033 355.968ZM139.369 360.167H138.069V363.209H147.65V362.065H139.369V360.167ZM153.073 352.666V363.079H157.714C160.054 363.079 161.419 361.935 161.419 360.141C161.419 358.854 160.496 357.931 159.313 357.697C160.249 357.476 160.925 356.527 160.925 355.552C160.925 353.771 159.625 352.666 157.324 352.666H153.073ZM157.285 357.255H154.438V353.849H157.285C158.728 353.849 159.547 354.447 159.547 355.552C159.547 356.657 158.728 357.255 157.285 357.255ZM157.675 361.896H154.438V358.386H157.675C159.131 358.386 160.041 358.997 160.041 360.141C160.041 361.285 159.131 361.896 157.675 361.896ZM174.33 352.666L171.86 361.038L169.39 352.666H167.934L165.477 361.012L163.007 352.666H161.59L164.749 363.079H166.127L168.649 354.772L171.158 363.079H172.536L175.708 352.666H174.33ZM176.757 352.666V363.079H178.122V359.894H180.449C183.153 359.894 184.739 358.451 184.739 356.28C184.739 354.109 183.153 352.666 180.449 352.666H176.757ZM180.345 358.659H178.122V353.901H180.345C182.23 353.901 183.374 354.733 183.374 356.28C183.374 357.827 182.23 358.659 180.345 358.659ZM185.863 352.666V363.079H187.228V355.396L190.582 361.324H191.57L194.924 355.396V363.079H196.289V352.666H195.093L191.076 359.738L187.059 352.666H185.863ZM206.828 363.352H208.115V352.25H206.828V363.352ZM201.524 359.478C203.513 359.478 204.956 358.048 204.956 355.981C204.956 353.914 203.513 352.484 201.524 352.484C199.522 352.484 198.092 353.914 198.092 355.981C198.092 358.048 199.522 359.478 201.524 359.478ZM201.524 358.308C200.198 358.308 199.353 357.307 199.353 355.981C199.353 354.655 200.198 353.641 201.524 353.641C202.837 353.641 203.695 354.655 203.695 355.981C203.695 357.307 202.837 358.308 201.524 358.308ZM197.715 362.689H202.174C203.773 362.689 205.151 362.494 205.892 362.156V360.96C205.138 361.311 203.773 361.48 202.252 361.48H197.715V362.689ZM223.132 354.59V352.25H221.845V358.581H223.132V355.825H224.692V354.59H223.132ZM219.96 352.445H218.699V354.044H214.734V352.445H213.473V357.931H219.96V352.445ZM214.734 356.865V355.097H218.699V356.865H214.734ZM218.543 358.932C215.891 358.932 213.785 359.543 213.785 361.142C213.785 362.741 215.891 363.352 218.543 363.352C221.208 363.352 223.301 362.741 223.301 361.142C223.301 359.543 221.208 358.932 218.543 358.932ZM218.543 362.299C216.658 362.299 215.15 361.948 215.15 361.142C215.15 360.349 216.658 359.985 218.543 359.985C220.441 359.985 221.936 360.349 221.936 361.142C221.936 361.948 220.441 362.299 218.543 362.299ZM232.699 353.186H229.579V352.055H228.279V353.186H225.159V354.187H232.699V353.186ZM236.807 354.72V353.615H235.247V352.25H233.96V358.997H235.247V357.19H236.807V356.098H235.247V354.72H236.807ZM228.929 358.776C230.762 358.776 232.179 358.074 232.179 356.8C232.179 355.487 230.762 354.772 228.929 354.772C227.083 354.772 225.666 355.487 225.666 356.8C225.666 358.074 227.083 358.776 228.929 358.776ZM228.929 355.734C230.164 355.734 230.957 356.176 230.957 356.8C230.957 357.398 230.164 357.814 228.929 357.814C227.681 357.814 226.901 357.398 226.901 356.8C226.901 356.176 227.681 355.734 228.929 355.734ZM230.671 359.322C228.006 359.322 225.939 359.842 225.939 361.337C225.939 362.819 228.006 363.352 230.671 363.352C233.336 363.352 235.403 362.819 235.403 361.337C235.403 359.842 233.336 359.322 230.671 359.322ZM230.671 362.351C228.773 362.351 227.304 362.052 227.304 361.337C227.304 360.622 228.773 360.323 230.671 360.323C232.582 360.323 234.051 360.622 234.051 361.337C234.051 362.052 232.582 362.351 230.671 362.351ZM246.478 358.49H247.765V352.25H246.478V354.057H243.8V355.201H246.478V358.49ZM241.031 355.864L244.203 358.048L244.918 357.138L241.538 354.824C241.811 354.096 241.954 353.29 241.954 352.432L240.667 352.354C240.641 354.72 239.419 356.709 237.339 357.099V358.269C238.964 358.048 240.238 357.151 241.031 355.864ZM243.059 358.854C240.368 358.854 238.262 359.478 238.262 361.103C238.262 362.728 240.368 363.352 243.059 363.352C245.75 363.352 247.856 362.728 247.856 361.103C247.856 359.478 245.75 358.854 243.059 358.854ZM243.059 362.299C241.148 362.299 239.627 361.922 239.627 361.103C239.627 360.284 241.148 359.907 243.059 359.907C244.97 359.907 246.491 360.284 246.491 361.103C246.491 361.922 244.97 362.299 243.059 362.299ZM258.879 352.25V363.352H260.101V352.25H258.879ZM256.201 356.878H254.719C254.589 353.849 253.705 352.51 252.158 352.51C250.481 352.51 249.571 354.083 249.571 357.671C249.571 361.259 250.481 362.832 252.158 362.832C253.77 362.832 254.654 361.389 254.732 358.1H256.201V363.157H257.41V352.315H256.201V356.878ZM252.158 361.662C251.235 361.662 250.793 360.401 250.793 357.671C250.793 354.941 251.235 353.68 252.158 353.68C253.081 353.68 253.51 354.941 253.51 357.671C253.51 360.401 253.081 361.662 252.158 361.662ZM274.247 352.25V356.722H272.44V352.315H271.218V363.157H272.44V357.931H274.247V363.352H275.469V352.25H274.247ZM266.395 361.545V353.797H269.931V352.653H265.134V362.689H267.682C268.683 362.689 269.749 362.533 270.412 362.247V361.116C269.736 361.389 268.774 361.545 267.825 361.545H266.395ZM280.265 352.224H278.991V353.979H276.664V355.136H282.592V353.979H280.265V352.224ZM286.388 352.25V356.722H284.607V352.315H283.411V363.157H284.607V357.931H286.388V363.352H287.584V352.25H286.388ZM279.68 356.007C278.198 356.007 277.106 357.203 277.106 359.413C277.106 361.623 278.198 362.819 279.68 362.819C281.175 362.819 282.267 361.623 282.267 359.413C282.267 357.203 281.175 356.007 279.68 356.007ZM279.68 361.688C278.887 361.688 278.302 360.869 278.302 359.413C278.302 357.957 278.887 357.138 279.68 357.138C280.486 357.138 281.084 357.957 281.084 359.413C281.084 360.869 280.486 361.688 279.68 361.688ZM62.1016 375.748H60.5416V371.25H59.2546V382.352H60.5416V376.983H62.1016V375.748ZM52.3256 380.519V372.823H57.4216V371.653H51.0126V381.689H55.3546C56.4206 381.689 57.6166 381.494 58.2926 381.156V379.986C57.6166 380.311 56.4726 380.519 55.4196 380.519H52.3256ZM74.2165 373.421V372.316H72.6565V371.25H71.3695V377.386H72.6565V376.073H74.2165V374.981H72.6565V373.421H74.2165ZM69.4975 374.188C69.4975 372.524 68.1715 371.367 66.0785 371.367C63.9725 371.367 62.6465 372.524 62.6465 374.188C62.6465 375.865 63.9725 377.009 66.0785 377.009C68.1715 377.009 69.4975 375.865 69.4975 374.188ZM63.9335 374.188C63.9335 373.083 64.8045 372.433 66.0785 372.433C67.3525 372.433 68.2105 373.083 68.2105 374.188C68.2105 375.293 67.3525 375.943 66.0785 375.943C64.8045 375.943 63.9335 375.293 63.9335 374.188ZM68.1325 377.75C65.5195 377.75 63.4395 378.387 63.4395 380.051C63.4395 381.715 65.5195 382.352 68.1325 382.352C70.7585 382.352 72.8255 381.715 72.8255 380.051C72.8255 378.387 70.7585 377.75 68.1325 377.75ZM68.1325 381.286C66.2865 381.286 64.8175 380.909 64.8175 380.051C64.8175 379.206 66.2865 378.816 68.1325 378.816C69.9915 378.816 71.4475 379.206 71.4475 380.051C71.4475 380.909 69.9915 381.286 68.1325 381.286ZM82.2234 372.303H79.1034V371.055H77.8034V372.303H74.6834V373.356H82.2234V372.303ZM84.7714 374.292V371.25H83.4844V379.57H84.7714V375.527H86.3314V374.292H84.7714ZM78.4534 378.53C80.2994 378.53 81.7294 377.711 81.7294 376.255C81.7294 374.799 80.2994 373.98 78.4534 373.98C76.6074 373.98 75.1644 374.799 75.1644 376.255C75.1644 377.711 76.6074 378.53 78.4534 378.53ZM78.4534 374.968C79.7014 374.968 80.4944 375.514 80.4944 376.255C80.4944 377.009 79.7014 377.542 78.4534 377.542C77.2054 377.542 76.4124 377.009 76.4124 376.255C76.4124 375.514 77.2054 374.968 78.4534 374.968ZM76.7894 379.167H75.4894V382.209H85.0704V381.065H76.7894V379.167ZM99.2038 382.352H100.491V371.25H99.2038V382.352ZM93.8998 378.478C95.8888 378.478 97.3318 377.048 97.3318 374.981C97.3318 372.914 95.8888 371.484 93.8998 371.484C91.8978 371.484 90.4678 372.914 90.4678 374.981C90.4678 377.048 91.8978 378.478 93.8998 378.478ZM93.8998 377.308C92.5738 377.308 91.7288 376.307 91.7288 374.981C91.7288 373.655 92.5738 372.641 93.8998 372.641C95.2128 372.641 96.0708 373.655 96.0708 374.981C96.0708 376.307 95.2128 377.308 93.8998 377.308ZM90.0908 381.689H94.5498C96.1488 381.689 97.5268 381.494 98.2678 381.156V379.96C97.5138 380.311 96.1488 380.48 94.6278 380.48H90.0908V381.689ZM111.371 379.505H112.658V371.25H111.371V372.732H109.434V373.889H111.371V375.553H109.005V376.71H111.371V379.505ZM108.888 373.031V371.523H102.557V372.654H107.588V373.187C107.588 375.371 105.638 376.58 102.557 376.593V377.75C106.34 377.75 108.888 376.177 108.888 373.031ZM104.52 381.052V378.673H103.207V382.209H112.892V381.052H104.52ZM119.859 375.254C122.537 375.254 124.734 374.708 124.734 373.226C124.734 371.757 122.537 371.211 119.859 371.211C117.181 371.211 114.984 371.757 114.984 373.226C114.984 374.708 117.181 375.254 119.859 375.254ZM119.859 374.266C117.922 374.266 116.31 373.967 116.31 373.226C116.31 372.498 117.922 372.186 119.859 372.186C121.796 372.186 123.408 372.498 123.408 373.226C123.408 373.967 121.796 374.266 119.859 374.266ZM114.321 376.944H125.41V375.943H114.321V376.944ZM115.088 382.222H124.838V381.26H116.349V380.48H124.643V377.828H115.062V378.79H123.382V379.57H115.088V382.222ZM141.298 375.748H139.738V371.25H138.451V382.352H139.738V376.983H141.298V375.748ZM131.522 380.493V371.588H130.209V381.689H134.59C135.656 381.689 136.813 381.494 137.489 381.156V379.986C136.813 380.298 135.669 380.493 134.616 380.493H131.522ZM152.23 373.889H143.884V371.25H142.597V374.903H152.23V373.889ZM152.893 376.775V375.761H141.804V376.775H146.705V377.737H142.545V378.712H150.865V379.518H142.571V382.222H152.321V381.247H143.832V380.441H152.126V377.737H147.979V376.775H152.893ZM162.593 374.396L167.377 377.126L167.975 376.047L163.217 373.408C163.529 372.784 163.763 372.095 163.893 371.38L162.567 371.172C162.086 373.798 159.824 375.93 157.432 375.917V377.139C159.46 377.126 161.358 376.073 162.593 374.396ZM168.261 378.309H157.172V379.505H162.047V382.612H163.36V379.505H168.261V378.309ZM182.902 371.25H181.615V377.425H182.902V371.25ZM179.652 374.253C179.652 372.55 178.3 371.367 176.181 371.367C174.049 371.367 172.697 372.55 172.697 374.253C172.697 375.969 174.049 377.139 176.181 377.139C178.3 377.139 179.652 375.969 179.652 374.253ZM173.984 374.253C173.984 373.109 174.881 372.433 176.181 372.433C177.468 372.433 178.365 373.109 178.365 374.253C178.365 375.397 177.468 376.073 176.181 376.073C174.881 376.073 173.984 375.397 173.984 374.253ZM183.799 381.351L181.407 379.492C181.589 379.011 181.706 378.504 181.758 377.945L180.51 377.763C180.393 379.323 179.522 380.649 178.482 380.974L176.779 379.57C176.987 379.076 177.13 378.53 177.195 377.932L175.947 377.763C175.804 379.479 174.725 380.922 173.503 381.039V382.209C174.569 382.131 175.557 381.52 176.246 380.545L178.131 382.209C179.223 382.144 180.224 381.507 180.9 380.48L183.032 382.261L183.799 381.351ZM185.449 375.553H195.056V374.409H186.749V371.25H185.449V375.553ZM184.656 377.919H195.745V376.775H184.656V377.919ZM185.423 382.222H195.173V381.078H186.736V378.907H185.423V382.222ZM209.007 375.15H210.294V371.38H200.765V372.472H209.007V375.15ZM205.484 375.93V373.759H204.184V375.93H200.024V376.996H211.113V375.93H205.484ZM205.562 378.036C202.91 378.036 200.687 378.595 200.687 380.194C200.687 381.754 202.91 382.365 205.562 382.365C208.214 382.365 210.437 381.754 210.437 380.194C210.437 378.647 208.214 378.036 205.562 378.036ZM205.562 381.338C203.768 381.338 202.039 380.987 202.039 380.194C202.039 379.375 203.768 379.063 205.562 379.063C207.356 379.063 209.085 379.414 209.085 380.194C209.085 380.987 207.356 381.338 205.562 381.338ZM222.188 373.889V371.25H220.901V379.492H222.188V375.124H223.748V373.889H222.188ZM218.821 373.031V371.523H212.425V372.654H217.521V373.187C217.521 375.397 215.532 376.58 212.425 376.593V377.75C216.234 377.75 218.821 376.19 218.821 373.031ZM214.206 378.712H212.906V382.209H222.487V381.039H214.206V378.712ZM233.328 371.25V376.944H234.615V371.25H233.328ZM231.365 374.123C231.365 372.498 230.013 371.367 227.894 371.367C225.762 371.367 224.41 372.498 224.41 374.123C224.41 375.761 225.762 376.879 227.894 376.879C230.013 376.879 231.365 375.761 231.365 374.123ZM225.697 374.123C225.697 373.057 226.594 372.42 227.894 372.42C229.194 372.42 230.078 373.057 230.078 374.123C230.078 375.189 229.194 375.826 227.894 375.826C226.594 375.826 225.697 375.189 225.697 374.123ZM233.354 378.725H226.607V377.555H225.333V382.209H234.615V377.555H233.354V378.725ZM226.607 381.156V379.752H233.354V381.156H226.607ZM245.443 382.365L246.73 382.352V371.25H245.443V382.365ZM237.006 381.689H241.543C242.609 381.689 243.74 381.481 244.416 381.143V379.96C243.74 380.285 242.596 380.506 241.543 380.506H238.319V371.588H237.006V381.689ZM260.093 375.748H258.533V371.25H257.246V382.352H258.533V376.983H260.093V375.748ZM250.317 380.519V372.823H255.413V371.653H249.004V381.689H253.346C254.412 381.689 255.608 381.494 256.284 381.156V379.986C255.608 380.311 254.464 380.519 253.411 380.519H250.317ZM261.561 382.248C262.081 382.248 262.471 381.845 262.471 381.325C262.471 380.805 262.081 380.402 261.561 380.402C261.041 380.402 260.638 380.805 260.638 381.325C260.638 381.845 261.041 382.248 261.561 382.248Z" fill="#B3B7C6"/>
<path d="M115.236 301V308.008H116.82V301H115.236ZM112.82 304.536C112.82 302.536 111.156 301.144 108.548 301.144C105.924 301.144 104.26 302.536 104.26 304.536C104.26 306.552 105.924 307.928 108.548 307.928C111.156 307.928 112.82 306.552 112.82 304.536ZM105.844 304.536C105.844 303.224 106.948 302.44 108.548 302.44C110.148 302.44 111.236 303.224 111.236 304.536C111.236 305.848 110.148 306.632 108.548 306.632C106.948 306.632 105.844 305.848 105.844 304.536ZM115.268 310.2H106.964V308.76H105.396V314.488H116.82V308.76H115.268V310.2ZM106.964 313.192V311.464H115.268V313.192H106.964ZM131.826 303.608V301H130.242V308.552H131.826V305.112H133.746V303.608H131.826ZM124.242 305.496L128.194 307.976L128.978 306.792L124.818 304.232C124.962 303.752 125.058 303.24 125.09 302.712H128.546V301.352H119.826V302.712H123.506C123.298 304.888 121.906 306.552 119.65 306.856V308.28C121.698 308.072 123.314 307.016 124.242 305.496ZM126.178 309C122.914 309 120.322 309.784 120.322 311.832C120.322 313.88 122.914 314.664 126.178 314.664C129.458 314.664 132.034 313.88 132.034 311.832C132.034 309.784 129.458 309 126.178 309ZM126.178 313.352C123.858 313.352 122.018 312.888 122.018 311.832C122.018 310.792 123.858 310.312 126.178 310.312C128.514 310.312 130.338 310.792 130.338 311.832C130.338 312.888 128.514 313.352 126.178 313.352ZM145.873 310.952H147.489V301.4H135.729V302.888H145.873V306.088H135.729V307.56H145.873V310.952ZM141.617 312.52V309.4H140.017V312.52H134.849V314.008H148.497V312.52H141.617ZM151.135 309.56H163.151V308.088H152.751V302.968H162.991V301.496H151.135V309.56ZM150.239 314.008H163.887V312.52H150.239V314.008ZM166.814 303.624C166.174 303.624 165.694 304.12 165.694 304.744C165.694 305.368 166.174 305.864 166.814 305.864C167.438 305.864 167.918 305.368 167.918 304.744C167.918 304.12 167.438 303.624 166.814 303.624ZM166.814 309.992C166.174 309.992 165.694 310.472 165.694 311.112C165.694 311.736 166.174 312.216 166.814 312.216C167.438 312.216 167.918 311.736 167.918 311.112C167.918 310.472 167.438 309.992 166.814 309.992ZM176.72 314.328H178.4V301.512H174.064V302.984H176.72V314.328ZM183.954 314.328H185.634V301.512H181.298V302.984H183.954V314.328ZM193.029 314.616C195.717 314.616 197.557 312.776 197.557 310.232C197.557 307.672 195.765 305.928 193.333 305.928C191.861 305.928 190.917 306.568 190.437 307.16L190.661 302.968H196.901V301.512H189.125L188.757 308.888H190.405C190.837 308.088 191.653 307.368 193.061 307.368C194.757 307.368 195.909 308.584 195.909 310.232C195.909 311.912 194.805 313.16 193.029 313.16C191.221 313.16 190.213 312.088 190.164 310.712H188.501C188.597 312.936 190.261 314.616 193.029 314.616ZM202.44 306.216L205.672 301.512H203.752L200.28 306.712C199.48 307.896 199.032 308.92 199.032 310.232C199.032 312.904 201.096 314.616 203.688 314.616C206.264 314.616 208.328 312.904 208.328 310.232C208.328 307.624 206.312 305.912 203.816 305.912C203.256 305.912 202.744 306.072 202.44 306.216ZM203.688 313.16C201.832 313.16 200.68 311.88 200.68 310.248C200.68 308.616 201.832 307.32 203.688 307.32C205.528 307.32 206.68 308.6 206.68 310.248C206.68 311.88 205.528 313.16 203.688 313.16Z" fill="white"/>
<defs>
<filter id="filter0_d_1250_13638" x="23.9355" y="152" width="267.261" height="120.16" filterUnits="userSpaceOnUse" color-interpolation-filters="sRGB">
<feFlood flood-opacity="0" result="BackgroundImageFix"/>
<feColorMatrix in="SourceAlpha" type="matrix" values="0 0 0 0 0 0 0 0 0 0 0 0 0 0 0 0 0 0 127 0" result="hardAlpha"/>
<feOffset dy="4"/>
<feGaussianBlur stdDeviation="2"/>
<feColorMatrix type="matrix" values="0 0 0 0 0 0 0 0 0 0 0 0 0 0 0 0 0 0 0.25 0"/>
<feBlend mode="normal" in2="BackgroundImageFix" result="effect1_dropShadow_1250_13638"/>
<feBlend mode="normal" in="SourceGraphic" in2="effect1_dropShadow_1250_13638" result="shape"/>
</filter>
<linearGradient id="paint0_linear_1250_13638" x1="56.0591" y1="433.016" x2="367.674" y2="217.613" gradientUnits="userSpaceOnUse">
<stop offset="0.115508" stop-color="#0A167D"/>
<stop offset="0.959308" stop-color="#6D81F6"/>
</linearGradient>
</defs>
</svg>
