<svg width="340" height="474" viewBox="0 0 340 474" fill="none" xmlns="http://www.w3.org/2000/svg">
<path d="M0 16C0 7.16346 7.16344 0 16 0H324C332.837 0 340 7.16344 340 16V458C340 466.837 332.837 474 324 474H16C7.16344 474 0 466.837 0 458V16Z" fill="url(#paint0_linear_3:6483)"/>
<path opacity="0.5" d="M290.862 39.0255L294.862 35.1973L293.475 29.7947L288.167 28.2925L284.167 32.1207L285.554 37.5233L290.862 39.0255ZM288.716 30.3172L291.946 31.2316L292.778 34.458L290.379 36.77L287.148 35.8557L286.32 32.705L288.716 30.3172Z" fill="white"/>
<path opacity="0.5" d="M274 286.551L276.551 290.782L280.783 288.232L278.232 284L274 286.551Z" fill="white"/>
<path opacity="0.5" d="M62.4581 51.0001L58 53.1309L60.1307 57.5889L64.5888 55.4582L62.4581 51.0001Z" fill="white"/>
<path opacity="0.2" d="M299.799 295.79L291.492 301.582L297.284 309.889L305.591 304.096L299.799 295.79Z" fill="white"/>
<path opacity="0.15" d="M48.7246 314.637L46.4502 322.519L54.3318 324.793L56.6062 316.911L48.7246 314.637Z" fill="white"/>
<path opacity="0.2" d="M39.3303 29.0001L36 35.4297L42.4296 38.76L45.7599 32.3304L39.3303 29.0001Z" fill="white"/>
<g filter="url(#filter0_d_3:6483)">
<path d="M70.944 190.296V183.576C81.584 182.232 88.472 176.408 88.472 168.456C88.472 159.384 79.456 153.056 66.128 153.056C52.8 153.056 43.784 159.384 43.784 168.456C43.784 176.408 50.672 182.232 61.312 183.576V190.296H41.936V199.144H90.32V190.296H70.944ZM53.808 168.456C53.808 164.312 58.848 161.568 66.128 161.568C73.408 161.568 78.448 164.312 78.448 168.456C78.448 172.544 73.408 175.344 66.128 175.344C58.848 175.344 53.808 172.544 53.808 168.456ZM140.043 167.056H132.763V160.448H139.539V153H97.0912V160.448H103.867V167.056H96.5872V174.504H140.043V167.056ZM113.331 160.448H123.299V167.056H113.331V160.448ZM94.1232 177.36V185.144H142.507V177.36H94.1232ZM106.555 187.328H96.9232V200.824H140.267V193.04H106.555V187.328ZM196.822 170.472H191.222V153H181.758V200.824H191.222V179.656H196.822V170.472ZM147.654 162.632H165.742V169.128V170.528H147.654V179.096H164.174C161.43 186.32 155.438 189.68 147.654 189.736V198.584C163.67 198.528 175.15 187.608 175.15 168.456V154.12H147.654V162.632ZM227.394 177.696V175.232H244.53V169.016H210.818V166.888H243.186V161.344H210.818V159.216H243.97V153H201.466V175.232H217.986V177.696H198.498V184.92H246.882V177.696H227.394ZM201.074 194.328H234.506V201.384H244.082V187.104H201.074V194.328ZM295.597 161.232V153H286.133V179.992H295.597V170.416H301.197V161.232H295.597ZM280.925 153.56H271.741V158.32H260.933V153.56H251.749V178.2H280.925V153.56ZM260.933 170.584V165.712H271.741V170.584H260.933ZM274.485 180.776C262.445 180.776 252.925 183.408 252.925 191.08C252.925 198.752 262.445 201.384 274.485 201.384C286.525 201.384 296.045 198.752 296.045 191.08C296.045 183.408 286.525 180.776 274.485 180.776ZM274.485 193.936C268.157 193.936 263.117 193.208 263.117 191.08C263.117 189.008 268.157 188.224 274.485 188.224C280.813 188.224 285.853 189.008 285.853 191.08C285.853 193.208 280.813 193.936 274.485 193.936ZM98.6605 265.16C112.829 265.16 123.301 255.024 123.301 241.192C123.301 227.36 112.829 217.224 98.6605 217.224C84.4925 217.224 74.0205 227.36 74.0205 241.192C74.0205 255.024 84.4925 265.16 98.6605 265.16ZM98.6605 255.976C90.3725 255.976 84.2125 249.76 84.2125 241.192C84.2125 232.568 90.3725 226.408 98.6605 226.408C106.949 226.408 113.109 232.568 113.109 241.192C113.109 249.76 106.949 255.976 98.6605 255.976ZM127.677 264.04H137.869V251.888H145.205C157.077 251.888 164.021 245.28 164.021 235.088C164.021 225.008 157.077 218.4 145.205 218.4H127.677V264.04ZM137.869 242.872V227.416H144.757C150.413 227.416 153.829 230.048 153.829 235.088C153.829 240.184 150.413 242.872 144.757 242.872H137.869ZM167.833 264.04H202.273V255.192H178.025V245.392H199.809V236.544H178.025V227.248H201.769V218.4H167.833V264.04ZM207.442 264.04H217.634V236.04L240.426 263.48H248.938V217.84H238.746V245.84L215.954 218.4H207.442V264.04ZM266.173 218.4H254.077L256.653 248.92H263.597L266.173 218.4ZM260.125 253.008C256.709 253.008 254.189 255.528 254.189 258.944C254.189 262.36 256.709 264.824 260.125 264.824C263.541 264.824 266.061 262.36 266.061 258.944C266.061 255.528 263.541 253.008 260.125 253.008Z" fill="white"/>
</g>
<path d="M103.074 84.492H100.356V78.804H102.912V77.148H89.484V78.804H92.04V84.492H89.322V86.13H103.074V84.492ZM93.84 78.804H98.556V84.492H93.84V78.804ZM88.53 89.442V91.134H103.884V89.442H88.53ZM118.408 91.872H120.19V76.5H118.408V91.872ZM106.726 90.954H112.954C114.448 90.954 116.05 90.684 116.986 90.216V88.578C116.05 89.028 114.466 89.316 113.008 89.316H108.508V84.708H115.384V77.058H106.69V78.696H113.602V83.07H106.726V90.954ZM135.723 91.872H137.505V76.5H135.723V91.872ZM124.041 90.954H132.753V77.058H124.041V90.954ZM125.823 89.28V78.732H130.971V89.28H125.823ZM153.163 76.5V79.668H150.013C149.599 77.886 147.889 76.68 145.369 76.68C142.453 76.68 140.635 78.3 140.635 80.568C140.635 82.836 142.453 84.456 145.369 84.456C147.943 84.456 149.689 83.196 150.049 81.324H153.163V84.852H154.945V76.5H153.163ZM145.369 82.962C143.605 82.962 142.399 82.062 142.399 80.568C142.399 79.074 143.605 78.174 145.369 78.174C147.133 78.174 148.339 79.074 148.339 80.568C148.339 82.062 147.133 82.962 145.369 82.962ZM142.039 91.674H154.945V85.698H142.039V91.674ZM143.821 87.21H153.163V90.162H143.821V87.21ZM175.919 76.5V85.14H177.611V76.5H175.919ZM169.961 81.288H172.211V84.978H173.885V76.59H172.211V79.668H169.961V76.878H163.301V84.384H169.961V81.288ZM168.305 82.89H164.957V78.372H168.305V82.89ZM164.183 91.674H177.611V85.986H164.183V91.674ZM165.947 87.48H175.847V90.18H165.947V87.48ZM192.819 76.5V82.8H189.489V76.95H187.725V82.242H182.703V76.95H180.939V90.954H189.489V84.474H192.819V91.872H194.619V76.5H192.819ZM182.703 89.316V83.88H187.725V89.316H182.703ZM210.026 76.5V84.384H211.808V76.5H210.026ZM202.916 81.162L207.596 84.132L208.514 82.818L203.636 79.812C204.032 78.876 204.23 77.85 204.23 76.752L202.448 76.644C202.43 79.686 200.612 82.17 197.696 82.692V84.312C199.946 84.006 201.764 82.854 202.916 81.162ZM210.062 86.868H200.522V85.23H198.776V91.674H211.808V85.23H210.062V86.868ZM200.522 90.216V88.308H210.062V90.216H200.522ZM229.523 80.136V81.702H232.511V87.93H234.293V76.5H232.511V80.136H229.523ZM225.239 82.314L229.577 85.608L230.585 84.312L225.869 80.802C226.085 80.064 226.229 79.272 226.265 78.444H230.135V76.896H220.325V78.444H224.465C224.303 81.522 222.701 83.736 220.127 84.096V85.734C222.395 85.5 224.195 84.24 225.239 82.314ZM223.025 90.072V86.778H221.207V91.674H234.617V90.072H223.025ZM249.106 83.7V81.774C250.618 81.324 251.59 80.532 251.59 79.344C251.59 77.256 248.53 76.41 244.804 76.41C241.078 76.41 238.018 77.256 238.018 79.344C238.018 80.532 238.99 81.324 240.502 81.774V83.7H237.136V85.14H252.49V83.7H249.106ZM239.908 79.344C239.908 78.282 242.122 77.814 244.804 77.814C247.486 77.814 249.7 78.282 249.7 79.344C249.7 80.424 247.486 80.892 244.804 80.892C242.122 80.892 239.908 80.424 239.908 79.344ZM242.266 82.152C243.058 82.242 243.904 82.296 244.804 82.296C245.704 82.296 246.55 82.242 247.342 82.152V83.7H242.266V82.152ZM244.804 86.328C241.132 86.328 238.054 86.994 238.054 89.1C238.054 91.206 241.132 91.908 244.804 91.908C248.476 91.908 251.554 91.206 251.554 89.1C251.554 86.994 248.476 86.328 244.804 86.328ZM244.804 90.504C242.32 90.504 239.944 90.162 239.944 89.1C239.944 88.056 242.32 87.732 244.804 87.732C247.288 87.732 249.682 88.056 249.682 89.1C249.682 90.162 247.288 90.504 244.804 90.504ZM62.6537 111.46V108.184C66.3257 107.932 68.6837 106.114 68.6837 103.504C68.6837 100.66 65.9297 98.77 61.7537 98.77C57.5777 98.77 54.8237 100.66 54.8237 103.504C54.8237 106.114 57.1817 107.932 60.8357 108.184V111.46H54.0857V113.134H69.4397V111.46H62.6537ZM56.7137 103.504C56.7137 101.632 58.7297 100.39 61.7537 100.39C64.7957 100.39 66.8117 101.632 66.8117 103.504C66.8117 105.358 64.7957 106.6 61.7537 106.6C58.7297 106.6 56.7137 105.358 56.7137 103.504ZM85.8542 103.72H83.1362V100.138H85.6922V98.68H72.4442V100.138H75.0002V103.72H72.2822V105.178H85.8542V103.72ZM76.7822 100.138H81.3542V103.72H76.7822V100.138ZM71.4002 106.744V108.256H86.7542V106.744H71.4002ZM74.2802 109.534H72.4622V113.692H85.9622V112.18H74.2802V109.534ZM104.789 104.728H102.629V98.5H100.847V113.872H102.629V106.438H104.789V104.728ZM89.2726 100.678H96.0046V103.468C96.0046 103.882 95.9866 104.26 95.9506 104.638H89.2726V106.258H95.6806C94.8706 109.534 92.5126 111.226 89.2726 111.244V112.918C94.2586 112.9 97.7866 109.372 97.7866 103.36V99.058H89.2726V100.678ZM114.579 106.924V105.412H120.501V104.062H108.927V102.676H120.105V101.38H108.927V100.03H120.357V98.68H107.145V105.412H112.815V106.924H106.029V108.346H121.383V106.924H114.579ZM106.965 111.172H118.503V113.89H120.303V109.732H106.965V111.172ZM137.258 101.74V98.5H135.476V107.266H137.258V103.45H139.418V101.74H137.258ZM132.866 98.77H131.12V100.984H125.63V98.77H123.884V106.366H132.866V98.77ZM125.63 104.89V102.442H131.12V104.89H125.63ZM130.904 107.752C127.232 107.752 124.316 108.598 124.316 110.812C124.316 113.026 127.232 113.872 130.904 113.872C134.594 113.872 137.492 113.026 137.492 110.812C137.492 108.598 134.594 107.752 130.904 107.752ZM130.904 112.414C128.294 112.414 126.206 111.928 126.206 110.812C126.206 109.714 128.294 109.21 130.904 109.21C133.532 109.21 135.602 109.714 135.602 110.812C135.602 111.928 133.532 112.414 130.904 112.414ZM153.222 113.872H155.022V98.5H153.222V113.872ZM145.968 113.152C148.686 113.152 150.612 110.884 150.612 106.006C150.612 101.128 148.686 98.86 145.968 98.86C143.232 98.86 141.306 101.128 141.306 106.006C141.306 110.884 143.232 113.152 145.968 113.152ZM145.968 111.514C144.33 111.514 143.088 109.912 143.088 106.006C143.088 102.118 144.33 100.498 145.968 100.498C147.57 100.498 148.83 102.118 148.83 106.006C148.83 109.912 147.57 111.514 145.968 111.514ZM171.585 111.46V108.184C175.257 107.932 177.615 106.114 177.615 103.504C177.615 100.66 174.861 98.77 170.685 98.77C166.509 98.77 163.755 100.66 163.755 103.504C163.755 106.114 166.113 107.932 169.767 108.184V111.46H163.017V113.134H178.371V111.46H171.585ZM165.645 103.504C165.645 101.632 167.661 100.39 170.685 100.39C173.727 100.39 175.743 101.632 175.743 103.504C175.743 105.358 173.727 106.6 170.685 106.6C167.661 106.6 165.645 105.358 165.645 103.504ZM194.786 103.72H192.068V100.138H194.624V98.68H181.376V100.138H183.932V103.72H181.214V105.178H194.786V103.72ZM185.714 100.138H190.286V103.72H185.714V100.138ZM180.332 106.744V108.256H195.686V106.744H180.332ZM183.212 109.534H181.394V113.692H194.894V112.18H183.212V109.534ZM210.246 98.5V113.872H212.028V98.5H210.246ZM203.82 111.28V107.356H207.654V105.718H200.31V100.732H207.474V99.094H198.546V107.356H202.038V111.28H197.646V112.954H203.946C206.052 112.954 207.87 112.756 208.968 112.306V110.632C207.87 111.1 205.998 111.28 203.928 111.28H203.82ZM224.555 103.378H227.651V107.05H229.433V98.5H227.651V101.722H224.501C224.069 99.904 222.359 98.68 219.857 98.68C216.941 98.68 215.123 100.336 215.123 102.658C215.123 104.98 216.941 106.636 219.857 106.636C222.467 106.636 224.213 105.322 224.555 103.378ZM216.887 102.658C216.887 101.128 218.093 100.174 219.857 100.174C221.621 100.174 222.827 101.128 222.827 102.658C222.827 104.188 221.621 105.142 219.857 105.142C218.093 105.142 216.887 104.188 216.887 102.658ZM230.711 112.486L227.363 109.948C227.633 109.282 227.813 108.562 227.885 107.77L226.157 107.518C225.995 109.696 224.753 111.514 223.313 111.964L220.883 110.002C221.153 109.318 221.351 108.58 221.423 107.77L219.713 107.518C219.533 109.948 218.003 111.892 216.311 112.054V113.674C217.805 113.566 219.191 112.72 220.145 111.352L222.809 113.674C224.321 113.584 225.707 112.72 226.661 111.316L229.685 113.782L230.711 112.486ZM246.549 104.08L247.143 102.73L240.771 100.21C241.113 99.67 241.365 99.076 241.491 98.446L239.709 98.14C239.115 100.768 235.803 102.478 232.833 102.586V104.062C235.443 104.008 238.125 103.018 239.817 101.362L246.549 104.08ZM232.275 105.268V106.69H247.629V105.268H232.275ZM244.803 109.282H235.101V107.842H233.337V113.692H246.549V107.842H244.803V109.282ZM235.101 112.288V110.668H244.803V112.288H235.101ZM262.154 113.89L263.936 113.872V98.5H262.154V113.89ZM250.472 112.954H256.754C258.23 112.954 259.796 112.666 260.732 112.198V110.56C259.796 111.01 258.212 111.316 256.754 111.316H252.29V98.968H250.472V112.954ZM282.978 104.728H280.818V98.5H279.036V113.872H280.818V106.438H282.978V104.728ZM269.442 111.334V100.678H276.498V99.058H267.624V112.954H273.636C275.112 112.954 276.768 112.684 277.704 112.216V110.596C276.768 111.046 275.184 111.334 273.726 111.334H269.442ZM284.885 109.498H286.253L286.721 99.076H284.435L284.885 109.498ZM285.569 113.782C286.325 113.782 286.901 113.206 286.901 112.45C286.901 111.712 286.325 111.136 285.569 111.136C284.813 111.136 284.237 111.712 284.237 112.45C284.237 113.206 284.813 113.782 285.569 113.782Z" fill="white"/>
<path d="M46.2646 359.022H44.3016V354.914H46.1476V353.718H36.4496V354.914H38.2956V359.022H36.3326V360.205H46.2646V359.022ZM39.5956 354.914H43.0016V359.022H39.5956V354.914ZM35.7606 362.597V363.819H46.8496V362.597H35.7606ZM56.9495 364.352H58.2365V353.25H56.9495V364.352ZM48.5125 363.689H53.0105C54.0895 363.689 55.2465 363.494 55.9225 363.156V361.973C55.2465 362.298 54.1025 362.506 53.0495 362.506H49.7995V359.178H54.7655V353.653H48.4865V354.836H53.4785V357.995H48.5125V363.689ZM69.0644 364.352H70.3514V353.25H69.0644V364.352ZM60.6274 363.689H66.9194V353.653H60.6274V363.689ZM61.9144 362.48V354.862H65.6324V362.48H61.9144ZM81.2702 353.25V355.538H78.9952C78.6962 354.251 77.4612 353.38 75.6412 353.38C73.5352 353.38 72.2222 354.55 72.2222 356.188C72.2222 357.826 73.5352 358.996 75.6412 358.996C77.5002 358.996 78.7612 358.086 79.0212 356.734H81.2702V359.282H82.5572V353.25H81.2702ZM75.6412 357.917C74.3672 357.917 73.4962 357.267 73.4962 356.188C73.4962 355.109 74.3672 354.459 75.6412 354.459C76.9152 354.459 77.7862 355.109 77.7862 356.188C77.7862 357.267 76.9152 357.917 75.6412 357.917ZM73.2362 364.209H82.5572V359.893H73.2362V364.209ZM74.5232 360.985H81.2702V363.117H74.5232V360.985ZM96.5477 364.352H97.8347V353.25H96.5477V364.352ZM87.9937 363.663C91.7897 363.663 94.1557 360.777 94.1557 356.331V353.653H87.9937V354.836H92.8427V356.357C92.8427 360.075 91.0227 362.428 87.9937 362.441V363.663ZM100.382 357.163H110.015V356.123H101.682V353.25H100.382V357.163ZM99.5886 359.308H110.678V358.268H99.5886V359.308ZM105.127 364.378C107.779 364.378 110.002 363.858 110.002 362.337C110.002 360.816 107.779 360.309 105.127 360.309C102.475 360.309 100.252 360.816 100.252 362.337C100.252 363.858 102.475 364.378 105.127 364.378ZM105.127 363.364C103.333 363.364 101.604 363.104 101.604 362.337C101.604 361.583 103.333 361.323 105.127 361.323C106.921 361.323 108.65 361.583 108.65 362.337C108.65 363.104 106.921 363.364 105.127 363.364ZM117.241 357.254C119.919 357.254 122.116 356.708 122.116 355.226C122.116 353.757 119.919 353.211 117.241 353.211C114.563 353.211 112.366 353.757 112.366 355.226C112.366 356.708 114.563 357.254 117.241 357.254ZM117.241 356.266C115.304 356.266 113.692 355.967 113.692 355.226C113.692 354.498 115.304 354.186 117.241 354.186C119.178 354.186 120.79 354.498 120.79 355.226C120.79 355.967 119.178 356.266 117.241 356.266ZM111.703 358.944H122.792V357.943H111.703V358.944ZM112.47 364.222H122.22V363.26H113.731V362.48H122.025V359.828H112.444V360.79H120.764V361.57H112.47V364.222ZM136.146 353.25V364.352H137.433V353.25H136.146ZM132.727 357.397H128.983V353.575H127.709V363.689H134.001V353.575H132.727V357.397ZM128.983 362.506V358.58H132.727V362.506H128.983ZM145.362 359.36V358.281H149.639V357.293H141.254V356.305H149.483V353.38H139.993V354.355H148.222V355.343H139.993V358.281H144.088V359.36H139.187V360.387H150.276V359.36H145.362ZM145.661 361.024L144.387 360.842C144.062 362.298 141.852 363.156 139.733 363.156V364.209C141.475 364.209 143.334 363.728 144.504 362.779L149.522 364.339L149.912 363.312L145.271 361.96C145.453 361.674 145.583 361.362 145.661 361.024ZM158.803 354.303H155.683V353.055H154.383V354.303H151.263V355.356H158.803V354.303ZM161.351 356.292V353.25H160.064V361.57H161.351V357.527H162.911V356.292H161.351ZM155.033 360.53C156.879 360.53 158.309 359.711 158.309 358.255C158.309 356.799 156.879 355.98 155.033 355.98C153.187 355.98 151.744 356.799 151.744 358.255C151.744 359.711 153.187 360.53 155.033 360.53ZM155.033 356.968C156.281 356.968 157.074 357.514 157.074 358.255C157.074 359.009 156.281 359.542 155.033 359.542C153.785 359.542 152.992 359.009 152.992 358.255C152.992 357.514 153.785 356.968 155.033 356.968ZM153.369 361.167H152.069V364.209H161.65V363.065H153.369V361.167ZM167.073 353.666V364.079H171.714C174.054 364.079 175.419 362.935 175.419 361.141C175.419 359.854 174.496 358.931 173.313 358.697C174.249 358.476 174.925 357.527 174.925 356.552C174.925 354.771 173.625 353.666 171.324 353.666H167.073ZM171.285 358.255H168.438V354.849H171.285C172.728 354.849 173.547 355.447 173.547 356.552C173.547 357.657 172.728 358.255 171.285 358.255ZM171.675 362.896H168.438V359.386H171.675C173.131 359.386 174.041 359.997 174.041 361.141C174.041 362.285 173.131 362.896 171.675 362.896ZM188.33 353.666L185.86 362.038L183.39 353.666H181.934L179.477 362.012L177.007 353.666H175.59L178.749 364.079H180.127L182.649 355.772L185.158 364.079H186.536L189.708 353.666H188.33ZM190.757 353.666V364.079H192.122V360.894H194.449C197.153 360.894 198.739 359.451 198.739 357.28C198.739 355.109 197.153 353.666 194.449 353.666H190.757ZM194.345 359.659H192.122V354.901H194.345C196.23 354.901 197.374 355.733 197.374 357.28C197.374 358.827 196.23 359.659 194.345 359.659ZM199.863 353.666V364.079H201.228V356.396L204.582 362.324H205.57L208.924 356.396V364.079H210.289V353.666H209.093L205.076 360.738L201.059 353.666H199.863ZM220.828 364.352H222.115V353.25H220.828V364.352ZM215.524 360.478C217.513 360.478 218.956 359.048 218.956 356.981C218.956 354.914 217.513 353.484 215.524 353.484C213.522 353.484 212.092 354.914 212.092 356.981C212.092 359.048 213.522 360.478 215.524 360.478ZM215.524 359.308C214.198 359.308 213.353 358.307 213.353 356.981C213.353 355.655 214.198 354.641 215.524 354.641C216.837 354.641 217.695 355.655 217.695 356.981C217.695 358.307 216.837 359.308 215.524 359.308ZM211.715 363.689H216.174C217.773 363.689 219.151 363.494 219.892 363.156V361.96C219.138 362.311 217.773 362.48 216.252 362.48H211.715V363.689ZM237.132 355.59V353.25H235.845V359.581H237.132V356.825H238.692V355.59H237.132ZM233.96 353.445H232.699V355.044H228.734V353.445H227.473V358.931H233.96V353.445ZM228.734 357.865V356.097H232.699V357.865H228.734ZM232.543 359.932C229.891 359.932 227.785 360.543 227.785 362.142C227.785 363.741 229.891 364.352 232.543 364.352C235.208 364.352 237.301 363.741 237.301 362.142C237.301 360.543 235.208 359.932 232.543 359.932ZM232.543 363.299C230.658 363.299 229.15 362.948 229.15 362.142C229.15 361.349 230.658 360.985 232.543 360.985C234.441 360.985 235.936 361.349 235.936 362.142C235.936 362.948 234.441 363.299 232.543 363.299ZM246.699 354.186H243.579V353.055H242.279V354.186H239.159V355.187H246.699V354.186ZM250.807 355.72V354.615H249.247V353.25H247.96V359.997H249.247V358.19H250.807V357.098H249.247V355.72H250.807ZM242.929 359.776C244.762 359.776 246.179 359.074 246.179 357.8C246.179 356.487 244.762 355.772 242.929 355.772C241.083 355.772 239.666 356.487 239.666 357.8C239.666 359.074 241.083 359.776 242.929 359.776ZM242.929 356.734C244.164 356.734 244.957 357.176 244.957 357.8C244.957 358.398 244.164 358.814 242.929 358.814C241.681 358.814 240.901 358.398 240.901 357.8C240.901 357.176 241.681 356.734 242.929 356.734ZM244.671 360.322C242.006 360.322 239.939 360.842 239.939 362.337C239.939 363.819 242.006 364.352 244.671 364.352C247.336 364.352 249.403 363.819 249.403 362.337C249.403 360.842 247.336 360.322 244.671 360.322ZM244.671 363.351C242.773 363.351 241.304 363.052 241.304 362.337C241.304 361.622 242.773 361.323 244.671 361.323C246.582 361.323 248.051 361.622 248.051 362.337C248.051 363.052 246.582 363.351 244.671 363.351ZM260.478 359.49H261.765V353.25H260.478V355.057H257.8V356.201H260.478V359.49ZM255.031 356.864L258.203 359.048L258.918 358.138L255.538 355.824C255.811 355.096 255.954 354.29 255.954 353.432L254.667 353.354C254.641 355.72 253.419 357.709 251.339 358.099V359.269C252.964 359.048 254.238 358.151 255.031 356.864ZM257.059 359.854C254.368 359.854 252.262 360.478 252.262 362.103C252.262 363.728 254.368 364.352 257.059 364.352C259.75 364.352 261.856 363.728 261.856 362.103C261.856 360.478 259.75 359.854 257.059 359.854ZM257.059 363.299C255.148 363.299 253.627 362.922 253.627 362.103C253.627 361.284 255.148 360.907 257.059 360.907C258.97 360.907 260.491 361.284 260.491 362.103C260.491 362.922 258.97 363.299 257.059 363.299ZM272.879 353.25V364.352H274.101V353.25H272.879ZM270.201 357.878H268.719C268.589 354.849 267.705 353.51 266.158 353.51C264.481 353.51 263.571 355.083 263.571 358.671C263.571 362.259 264.481 363.832 266.158 363.832C267.77 363.832 268.654 362.389 268.732 359.1H270.201V364.157H271.41V353.315H270.201V357.878ZM266.158 362.662C265.235 362.662 264.793 361.401 264.793 358.671C264.793 355.941 265.235 354.68 266.158 354.68C267.081 354.68 267.51 355.941 267.51 358.671C267.51 361.401 267.081 362.662 266.158 362.662ZM288.247 353.25V357.722H286.44V353.315H285.218V364.157H286.44V358.931H288.247V364.352H289.469V353.25H288.247ZM280.395 362.545V354.797H283.931V353.653H279.134V363.689H281.682C282.683 363.689 283.749 363.533 284.412 363.247V362.116C283.736 362.389 282.774 362.545 281.825 362.545H280.395ZM294.265 353.224H292.991V354.979H290.664V356.136H296.592V354.979H294.265V353.224ZM300.388 353.25V357.722H298.607V353.315H297.411V364.157H298.607V358.931H300.388V364.352H301.584V353.25H300.388ZM293.68 357.007C292.198 357.007 291.106 358.203 291.106 360.413C291.106 362.623 292.198 363.819 293.68 363.819C295.175 363.819 296.267 362.623 296.267 360.413C296.267 358.203 295.175 357.007 293.68 357.007ZM293.68 362.688C292.887 362.688 292.302 361.869 292.302 360.413C292.302 358.957 292.887 358.138 293.68 358.138C294.486 358.138 295.084 358.957 295.084 360.413C295.084 361.869 294.486 362.688 293.68 362.688ZM76.1016 376.748H74.5416V372.25H73.2546V383.352H74.5416V377.983H76.1016V376.748ZM66.3256 381.519V373.823H71.4216V372.653H65.0126V382.689H69.3546C70.4206 382.689 71.6166 382.494 72.2926 382.156V380.986C71.6166 381.311 70.4726 381.519 69.4196 381.519H66.3256ZM88.2165 374.421V373.316H86.6565V372.25H85.3695V378.386H86.6565V377.073H88.2165V375.981H86.6565V374.421H88.2165ZM83.4975 375.188C83.4975 373.524 82.1715 372.367 80.0785 372.367C77.9725 372.367 76.6465 373.524 76.6465 375.188C76.6465 376.865 77.9725 378.009 80.0785 378.009C82.1715 378.009 83.4975 376.865 83.4975 375.188ZM77.9335 375.188C77.9335 374.083 78.8045 373.433 80.0785 373.433C81.3525 373.433 82.2105 374.083 82.2105 375.188C82.2105 376.293 81.3525 376.943 80.0785 376.943C78.8045 376.943 77.9335 376.293 77.9335 375.188ZM82.1325 378.75C79.5195 378.75 77.4395 379.387 77.4395 381.051C77.4395 382.715 79.5195 383.352 82.1325 383.352C84.7585 383.352 86.8255 382.715 86.8255 381.051C86.8255 379.387 84.7585 378.75 82.1325 378.75ZM82.1325 382.286C80.2865 382.286 78.8175 381.909 78.8175 381.051C78.8175 380.206 80.2865 379.816 82.1325 379.816C83.9915 379.816 85.4475 380.206 85.4475 381.051C85.4475 381.909 83.9915 382.286 82.1325 382.286ZM96.2234 373.303H93.1034V372.055H91.8034V373.303H88.6834V374.356H96.2234V373.303ZM98.7714 375.292V372.25H97.4844V380.57H98.7714V376.527H100.331V375.292H98.7714ZM92.4534 379.53C94.2994 379.53 95.7294 378.711 95.7294 377.255C95.7294 375.799 94.2994 374.98 92.4534 374.98C90.6074 374.98 89.1644 375.799 89.1644 377.255C89.1644 378.711 90.6074 379.53 92.4534 379.53ZM92.4534 375.968C93.7014 375.968 94.4944 376.514 94.4944 377.255C94.4944 378.009 93.7014 378.542 92.4534 378.542C91.2054 378.542 90.4124 378.009 90.4124 377.255C90.4124 376.514 91.2054 375.968 92.4534 375.968ZM90.7894 380.167H89.4894V383.209H99.0704V382.065H90.7894V380.167ZM113.204 383.352H114.491V372.25H113.204V383.352ZM107.9 379.478C109.889 379.478 111.332 378.048 111.332 375.981C111.332 373.914 109.889 372.484 107.9 372.484C105.898 372.484 104.468 373.914 104.468 375.981C104.468 378.048 105.898 379.478 107.9 379.478ZM107.9 378.308C106.574 378.308 105.729 377.307 105.729 375.981C105.729 374.655 106.574 373.641 107.9 373.641C109.213 373.641 110.071 374.655 110.071 375.981C110.071 377.307 109.213 378.308 107.9 378.308ZM104.091 382.689H108.55C110.149 382.689 111.527 382.494 112.268 382.156V380.96C111.514 381.311 110.149 381.48 108.628 381.48H104.091V382.689ZM125.371 380.505H126.658V372.25H125.371V373.732H123.434V374.889H125.371V376.553H123.005V377.71H125.371V380.505ZM122.888 374.031V372.523H116.557V373.654H121.588V374.187C121.588 376.371 119.638 377.58 116.557 377.593V378.75C120.34 378.75 122.888 377.177 122.888 374.031ZM118.52 382.052V379.673H117.207V383.209H126.892V382.052H118.52ZM133.859 376.254C136.537 376.254 138.734 375.708 138.734 374.226C138.734 372.757 136.537 372.211 133.859 372.211C131.181 372.211 128.984 372.757 128.984 374.226C128.984 375.708 131.181 376.254 133.859 376.254ZM133.859 375.266C131.922 375.266 130.31 374.967 130.31 374.226C130.31 373.498 131.922 373.186 133.859 373.186C135.796 373.186 137.408 373.498 137.408 374.226C137.408 374.967 135.796 375.266 133.859 375.266ZM128.321 377.944H139.41V376.943H128.321V377.944ZM129.088 383.222H138.838V382.26H130.349V381.48H138.643V378.828H129.062V379.79H137.382V380.57H129.088V383.222ZM155.298 376.748H153.738V372.25H152.451V383.352H153.738V377.983H155.298V376.748ZM145.522 381.493V372.588H144.209V382.689H148.59C149.656 382.689 150.813 382.494 151.489 382.156V380.986C150.813 381.298 149.669 381.493 148.616 381.493H145.522ZM166.23 374.889H157.884V372.25H156.597V375.903H166.23V374.889ZM166.893 377.775V376.761H155.804V377.775H160.705V378.737H156.545V379.712H164.865V380.518H156.571V383.222H166.321V382.247H157.832V381.441H166.126V378.737H161.979V377.775H166.893ZM176.593 375.396L181.377 378.126L181.975 377.047L177.217 374.408C177.529 373.784 177.763 373.095 177.893 372.38L176.567 372.172C176.086 374.798 173.824 376.93 171.432 376.917V378.139C173.46 378.126 175.358 377.073 176.593 375.396ZM182.261 379.309H171.172V380.505H176.047V383.612H177.36V380.505H182.261V379.309ZM196.902 372.25H195.615V378.425H196.902V372.25ZM193.652 375.253C193.652 373.55 192.3 372.367 190.181 372.367C188.049 372.367 186.697 373.55 186.697 375.253C186.697 376.969 188.049 378.139 190.181 378.139C192.3 378.139 193.652 376.969 193.652 375.253ZM187.984 375.253C187.984 374.109 188.881 373.433 190.181 373.433C191.468 373.433 192.365 374.109 192.365 375.253C192.365 376.397 191.468 377.073 190.181 377.073C188.881 377.073 187.984 376.397 187.984 375.253ZM197.799 382.351L195.407 380.492C195.589 380.011 195.706 379.504 195.758 378.945L194.51 378.763C194.393 380.323 193.522 381.649 192.482 381.974L190.779 380.57C190.987 380.076 191.13 379.53 191.195 378.932L189.947 378.763C189.804 380.479 188.725 381.922 187.503 382.039V383.209C188.569 383.131 189.557 382.52 190.246 381.545L192.131 383.209C193.223 383.144 194.224 382.507 194.9 381.48L197.032 383.261L197.799 382.351ZM199.449 376.553H209.056V375.409H200.749V372.25H199.449V376.553ZM198.656 378.919H209.745V377.775H198.656V378.919ZM199.423 383.222H209.173V382.078H200.736V379.907H199.423V383.222ZM223.007 376.15H224.294V372.38H214.765V373.472H223.007V376.15ZM219.484 376.93V374.759H218.184V376.93H214.024V377.996H225.113V376.93H219.484ZM219.562 379.036C216.91 379.036 214.687 379.595 214.687 381.194C214.687 382.754 216.91 383.365 219.562 383.365C222.214 383.365 224.437 382.754 224.437 381.194C224.437 379.647 222.214 379.036 219.562 379.036ZM219.562 382.338C217.768 382.338 216.039 381.987 216.039 381.194C216.039 380.375 217.768 380.063 219.562 380.063C221.356 380.063 223.085 380.414 223.085 381.194C223.085 381.987 221.356 382.338 219.562 382.338ZM236.188 374.889V372.25H234.901V380.492H236.188V376.124H237.748V374.889H236.188ZM232.821 374.031V372.523H226.425V373.654H231.521V374.187C231.521 376.397 229.532 377.58 226.425 377.593V378.75C230.234 378.75 232.821 377.19 232.821 374.031ZM228.206 379.712H226.906V383.209H236.487V382.039H228.206V379.712ZM247.328 372.25V377.944H248.615V372.25H247.328ZM245.365 375.123C245.365 373.498 244.013 372.367 241.894 372.367C239.762 372.367 238.41 373.498 238.41 375.123C238.41 376.761 239.762 377.879 241.894 377.879C244.013 377.879 245.365 376.761 245.365 375.123ZM239.697 375.123C239.697 374.057 240.594 373.42 241.894 373.42C243.194 373.42 244.078 374.057 244.078 375.123C244.078 376.189 243.194 376.826 241.894 376.826C240.594 376.826 239.697 376.189 239.697 375.123ZM247.354 379.725H240.607V378.555H239.333V383.209H248.615V378.555H247.354V379.725ZM240.607 382.156V380.752H247.354V382.156H240.607ZM259.443 383.365L260.73 383.352V372.25H259.443V383.365ZM251.006 382.689H255.543C256.609 382.689 257.74 382.481 258.416 382.143V380.96C257.74 381.285 256.596 381.506 255.543 381.506H252.319V372.588H251.006V382.689ZM274.093 376.748H272.533V372.25H271.246V383.352H272.533V377.983H274.093V376.748ZM264.317 381.519V373.823H269.413V372.653H263.004V382.689H267.346C268.412 382.689 269.608 382.494 270.284 382.156V380.986C269.608 381.311 268.464 381.519 267.411 381.519H264.317ZM275.561 383.248C276.081 383.248 276.471 382.845 276.471 382.325C276.471 381.805 276.081 381.402 275.561 381.402C275.041 381.402 274.638 381.805 274.638 382.325C274.638 382.845 275.041 383.248 275.561 383.248Z" fill="#B3B7C6"/>
<path d="M129.532 302V309.008H131.116V302H129.532ZM127.116 305.536C127.116 303.536 125.452 302.144 122.844 302.144C120.22 302.144 118.556 303.536 118.556 305.536C118.556 307.552 120.22 308.928 122.844 308.928C125.452 308.928 127.116 307.552 127.116 305.536ZM120.14 305.536C120.14 304.224 121.244 303.44 122.844 303.44C124.444 303.44 125.532 304.224 125.532 305.536C125.532 306.848 124.444 307.632 122.844 307.632C121.244 307.632 120.14 306.848 120.14 305.536ZM129.564 311.2H121.26V309.76H119.692V315.488H131.116V309.76H129.564V311.2ZM121.26 314.192V312.464H129.564V314.192H121.26ZM146.123 304.608V302H144.539V309.552H146.123V306.112H148.043V304.608H146.123ZM138.539 306.496L142.491 308.976L143.275 307.792L139.115 305.232C139.259 304.752 139.355 304.24 139.387 303.712H142.843V302.352H134.123V303.712H137.803C137.595 305.888 136.203 307.552 133.947 307.856V309.28C135.995 309.072 137.611 308.016 138.539 306.496ZM140.475 310C137.211 310 134.619 310.784 134.619 312.832C134.619 314.88 137.211 315.664 140.475 315.664C143.755 315.664 146.331 314.88 146.331 312.832C146.331 310.784 143.755 310 140.475 310ZM140.475 314.352C138.155 314.352 136.315 313.888 136.315 312.832C136.315 311.792 138.155 311.312 140.475 311.312C142.811 311.312 144.635 311.792 144.635 312.832C144.635 313.888 142.811 314.352 140.475 314.352ZM160.17 311.952H161.786V302.4H150.026V303.888H160.17V307.088H150.026V308.56H160.17V311.952ZM155.914 313.52V310.4H154.314V313.52H149.146V315.008H162.794V313.52H155.914ZM165.432 310.56H177.448V309.088H167.048V303.968H177.288V302.496H165.432V310.56ZM164.536 315.008H178.184V313.52H164.536V315.008ZM181.111 304.624C180.471 304.624 179.991 305.12 179.991 305.744C179.991 306.368 180.471 306.864 181.111 306.864C181.735 306.864 182.215 306.368 182.215 305.744C182.215 305.12 181.735 304.624 181.111 304.624ZM181.111 310.992C180.471 310.992 179.991 311.472 179.991 312.112C179.991 312.736 180.471 313.216 181.111 313.216C181.735 313.216 182.215 312.736 182.215 312.112C182.215 311.472 181.735 310.992 181.111 310.992ZM191.017 315.328H192.697V302.512H188.361V303.984H191.017V315.328ZM198.251 315.328H199.931V302.512H195.595V303.984H198.251V315.328ZM207.373 315.616C210.045 315.616 211.901 314.112 211.901 311.968C211.901 310.032 210.381 308.96 209.213 308.688C210.205 308.384 211.453 307.344 211.453 305.712C211.453 303.808 209.805 302.208 207.373 302.208C204.925 302.208 203.277 303.792 203.277 305.712C203.277 307.344 204.525 308.384 205.517 308.688C204.365 308.96 202.829 310.032 202.829 311.968C202.829 314.112 204.685 315.616 207.373 315.616ZM207.373 307.936C205.917 307.936 204.893 306.96 204.893 305.728C204.893 304.544 205.869 303.616 207.373 303.616C208.877 303.616 209.853 304.576 209.853 305.76C209.853 306.976 208.829 307.936 207.373 307.936ZM207.373 314.208C205.597 314.208 204.461 313.2 204.461 311.872C204.461 310.528 205.693 309.488 207.373 309.488C209.037 309.488 210.269 310.528 210.269 311.872C210.269 313.2 209.133 314.208 207.373 314.208ZM219.505 315.328H221.105V312.432H223.201V311.008H221.105V302.512H219.121L213.041 311.008V312.432H219.505V315.328ZM214.769 311.008L219.505 304.352V311.008H214.769Z" fill="white"/>
<defs>
<filter id="filter0_d_3:6483" x="37.9355" y="153" width="267.262" height="120.16" filterUnits="userSpaceOnUse" color-interpolation-filters="sRGB">
<feFlood flood-opacity="0" result="BackgroundImageFix"/>
<feColorMatrix in="SourceAlpha" type="matrix" values="0 0 0 0 0 0 0 0 0 0 0 0 0 0 0 0 0 0 127 0" result="hardAlpha"/>
<feOffset dy="4"/>
<feGaussianBlur stdDeviation="2"/>
<feColorMatrix type="matrix" values="0 0 0 0 0 0 0 0 0 0 0 0 0 0 0 0 0 0 0.25 0"/>
<feBlend mode="normal" in2="BackgroundImageFix" result="effect1_dropShadow_3:6483"/>
<feBlend mode="normal" in="SourceGraphic" in2="effect1_dropShadow_3:6483" result="shape"/>
</filter>
<linearGradient id="paint0_linear_3:6483" x1="61.0901" y1="433.016" x2="381.256" y2="191.841" gradientUnits="userSpaceOnUse">
<stop offset="0.115508" stop-color="#0A167D"/>
<stop offset="0.959308" stop-color="#6D81F6"/>
</linearGradient>
</defs>
</svg>
