<svg width="340" height="502" viewBox="0 0 340 502" fill="none" xmlns="http://www.w3.org/2000/svg">
<path d="M0 0H340V502H0V0Z" fill="url(#paint0_linear)"/>
<path opacity="0.5" d="M47.4581 212L43 214.131L45.1307 218.589L49.5888 216.458L47.4581 212Z" fill="white"/>
<path opacity="0.2" d="M20.3303 187L17 193.43L23.4296 196.76L26.7599 190.33L20.3303 187Z" fill="white"/>
<path opacity="0.3" d="M71.871 37.1545L76.9685 34.9941L77.5879 29.4507L73.1582 26.1635L68.0607 28.3239L67.4413 33.8673L71.871 37.1545ZM72.953 28.2511L75.6493 30.252L75.2824 33.5637L72.2191 34.8743L69.5228 32.8734L69.8661 29.6338L72.953 28.2511Z" fill="white"/>
<path opacity="0.3" d="M309.054 206.29L314.152 204.13L314.771 198.586L310.341 195.299L305.244 197.459L304.624 203.003L309.054 206.29ZM310.136 197.387L312.832 199.388L312.465 202.699L309.402 204.01L306.706 202.009L307.049 198.769L310.136 197.387Z" fill="white"/>
<path opacity="0.2" d="M291.971 33L289 39.4441L295.444 42.4149L298.415 35.9707L291.971 33Z" fill="white"/>
<path opacity="0.15" d="M299 470.619L300.619 475.287L305.287 473.668L303.669 469L299 470.619Z" fill="white"/>
<path opacity="0.2" d="M320.258 447L313 450.071L316.071 457.329L323.329 454.258L320.258 447Z" fill="white"/>
<path opacity="0.15" d="M32.0002 456L29.3613 461.095L34.5071 463.76L37.146 458.665L32.0002 456Z" fill="white"/>
<g filter="url(#filter0_d)">
<path d="M64.7158 142.796C64.7158 141.442 64.2324 140.388 63.2656 139.632C62.3164 138.876 60.6377 138.094 58.2295 137.285C55.8213 136.477 53.8525 135.694 52.3232 134.938C47.3486 132.495 44.8613 129.138 44.8613 124.866C44.8613 122.739 45.4766 120.867 46.707 119.25C47.9551 117.615 49.7129 116.35 51.9805 115.453C54.248 114.539 56.7969 114.082 59.627 114.082C62.3867 114.082 64.8564 114.574 67.0361 115.559C69.2334 116.543 70.9385 117.949 72.1514 119.777C73.3643 121.588 73.9707 123.662 73.9707 126H64.7422C64.7422 124.436 64.2588 123.223 63.292 122.361C62.3428 121.5 61.0508 121.069 59.416 121.069C57.7637 121.069 56.4541 121.438 55.4873 122.177C54.5381 122.897 54.0635 123.82 54.0635 124.945C54.0635 125.93 54.5908 126.826 55.6455 127.635C56.7002 128.426 58.5547 129.252 61.209 130.113C63.8633 130.957 66.043 131.871 67.748 132.855C71.8965 135.246 73.9707 138.542 73.9707 142.743C73.9707 146.101 72.7051 148.737 70.1738 150.653C67.6426 152.569 64.1709 153.527 59.7588 153.527C56.6475 153.527 53.8262 152.974 51.2949 151.866C48.7812 150.741 46.8828 149.212 45.5996 147.278C44.334 145.327 43.7012 143.086 43.7012 140.555H52.9824C52.9824 142.611 53.5098 144.132 54.5645 145.116C55.6367 146.083 57.3682 146.566 59.7588 146.566C61.2881 146.566 62.4922 146.241 63.3711 145.591C64.2676 144.923 64.7158 143.991 64.7158 142.796ZM111.228 134.596C111.228 138.34 110.533 141.653 109.145 144.536C107.756 147.419 105.778 149.643 103.212 151.207C100.663 152.754 97.7539 153.527 94.4844 153.527C91.2148 153.527 88.3145 152.78 85.7832 151.286C83.252 149.774 81.2744 147.621 79.8506 144.826C78.4443 142.031 77.7061 138.823 77.6357 135.202V133.04C77.6357 129.278 78.3213 125.965 79.6924 123.1C81.0811 120.217 83.0586 117.993 85.625 116.429C88.209 114.864 91.1445 114.082 94.4316 114.082C97.6836 114.082 100.584 114.855 103.133 116.402C105.682 117.949 107.659 120.155 109.065 123.021C110.489 125.868 111.21 129.138 111.228 132.829V134.596ZM101.814 132.987C101.814 129.173 101.173 126.281 99.8896 124.312C98.624 122.326 96.8047 121.333 94.4316 121.333C89.791 121.333 87.3389 124.813 87.0752 131.774L87.0488 134.596C87.0488 138.357 87.6729 141.249 88.9209 143.271C90.1689 145.292 92.0234 146.303 94.4844 146.303C96.8223 146.303 98.624 145.31 99.8896 143.323C101.155 141.337 101.797 138.48 101.814 134.754V132.987ZM125.255 145.881H141.365V153H116V114.609H125.255V145.881ZM145.268 153V114.609H157.634C161.026 114.609 164.076 115.383 166.783 116.93C169.49 118.459 171.6 120.63 173.111 123.442C174.641 126.237 175.414 129.375 175.432 132.855V134.622C175.432 138.138 174.685 141.293 173.19 144.088C171.714 146.865 169.622 149.045 166.915 150.627C164.226 152.191 161.22 152.982 157.897 153H145.268ZM154.522 121.755V145.881H157.739C160.394 145.881 162.433 144.94 163.856 143.06C165.28 141.161 165.992 138.349 165.992 134.622V132.961C165.992 129.252 165.28 126.457 163.856 124.576C162.433 122.695 160.358 121.755 157.634 121.755H154.522ZM226.136 134.596C226.136 138.34 225.441 141.653 224.053 144.536C222.664 147.419 220.687 149.643 218.12 151.207C215.571 152.754 212.662 153.527 209.393 153.527C206.123 153.527 203.223 152.78 200.691 151.286C198.16 149.774 196.183 147.621 194.759 144.826C193.353 142.031 192.614 138.823 192.544 135.202V133.04C192.544 129.278 193.229 125.965 194.601 123.1C195.989 120.217 197.967 117.993 200.533 116.429C203.117 114.864 206.053 114.082 209.34 114.082C212.592 114.082 215.492 114.855 218.041 116.402C220.59 117.949 222.567 120.155 223.974 123.021C225.397 125.868 226.118 129.138 226.136 132.829V134.596ZM216.723 132.987C216.723 129.173 216.081 126.281 214.798 124.312C213.532 122.326 211.713 121.333 209.34 121.333C204.699 121.333 202.247 124.813 201.983 131.774L201.957 134.596C201.957 138.357 202.581 141.249 203.829 143.271C205.077 145.292 206.932 146.303 209.393 146.303C211.73 146.303 213.532 145.31 214.798 143.323C216.063 141.337 216.705 138.48 216.723 134.754V132.987ZM261.02 114.609V139.737C261.02 142.585 260.413 145.055 259.2 147.146C257.987 149.221 256.247 150.803 253.979 151.893C251.712 152.982 249.031 153.527 245.938 153.527C241.262 153.527 237.579 152.314 234.89 149.889C232.2 147.463 230.829 144.141 230.776 139.922V114.609H240.084V140.106C240.189 144.308 242.141 146.408 245.938 146.408C247.854 146.408 249.304 145.881 250.288 144.826C251.272 143.771 251.765 142.058 251.765 139.685V114.609H261.02ZM296.958 121.755H285.436V153H276.181V121.755H264.869V114.609H296.958V121.755Z" fill="white"/>
</g>
<path d="M136.844 45.052V46.522H140.932C140.666 48.216 139.098 49.63 136.228 50.344L136.956 51.8C140.778 50.806 142.948 48.482 142.948 45.052H136.844ZM139.966 53.466H144.698V55.608H139.966V53.466ZM138.16 57.05H146.518V52.01H138.16V57.05ZM148.226 47.11H146.518V44.31H144.67V51.492H146.518V48.622H148.226V47.11ZM153.993 45.304H152.131V47.18C152.131 49.574 151.151 52.038 148.981 53.06L150.087 54.558C151.543 53.844 152.509 52.486 153.069 50.848C153.601 52.388 154.511 53.634 155.855 54.32L156.975 52.864C154.903 51.842 153.993 49.504 153.993 47.18V45.304ZM161.217 49.266H159.341V44.31H157.493V57.204H159.341V50.806H161.217V49.266ZM169.727 45.444H166.843V44.212H164.981V45.444H162.111V46.886H169.713L169.727 45.444ZM164.519 49.518C164.519 48.902 165.093 48.58 165.919 48.58C166.745 48.58 167.319 48.902 167.319 49.518C167.319 50.134 166.745 50.456 165.919 50.456C165.093 50.456 164.519 50.134 164.519 49.518ZM169.083 49.518C169.083 48.146 167.781 47.236 165.919 47.236C164.057 47.236 162.755 48.146 162.755 49.518C162.755 50.876 164.057 51.8 165.919 51.8C167.781 51.8 169.083 50.876 169.083 49.518ZM170.441 55.622H165.723V54.712H170.441V55.622ZM170.441 53.326H165.723V52.346H163.889V57.05H172.275V52.346H170.441V53.326ZM173.983 47.404H172.275V44.324H170.427V51.87H172.275V48.916H173.983V47.404ZM177.51 45.528H175.676V54.026H176.824C178.784 54.026 180.926 53.886 183.124 53.424L182.928 51.884C181.038 52.262 179.204 52.402 177.51 52.444V45.528ZM183.922 44.296V57.19H185.77V44.296H183.922ZM190.221 46.998H194.393V45.5H188.387V54.138H189.479C191.719 54.138 193.483 54.068 195.429 53.718L195.247 52.192C193.581 52.472 192.055 52.57 190.221 52.598V46.998ZM199.853 49.07H197.977V44.31H196.129V57.232H197.977V50.596H199.853V49.07ZM201.021 55.0293C201.021 54.7148 201.126 54.4596 201.336 54.2637C201.55 54.0677 201.817 53.9697 202.136 53.9697C202.459 53.9697 202.726 54.0677 202.936 54.2637C203.15 54.4596 203.257 54.7148 203.257 55.0293C203.257 55.3392 203.152 55.5921 202.942 55.7881C202.733 55.9795 202.464 56.0752 202.136 56.0752C201.812 56.0752 201.546 55.9795 201.336 55.7881C201.126 55.5921 201.021 55.3392 201.021 55.0293ZM44.6084 78H42.6328V70.3848L40.2744 71.1162V69.5098L44.3965 68.0332H44.6084V78ZM58.4839 66.31H56.6219V72.764H58.4839V66.31ZM49.7479 69.628C49.7479 68.718 50.4619 68.172 51.4139 68.172C52.3659 68.172 53.0519 68.718 53.0519 69.628C53.0519 70.552 52.3659 71.084 51.4139 71.084C50.4619 71.084 49.7479 70.552 49.7479 69.628ZM54.8439 69.628C54.8439 67.92 53.3739 66.688 51.4139 66.688C49.4399 66.688 47.9559 67.92 47.9559 69.628C47.9559 71.35 49.4399 72.582 51.4139 72.582C53.3739 72.582 54.8439 71.35 54.8439 69.628ZM51.7359 77.622V76.81H58.4839V73.296H49.8879V74.71H56.6499V75.494H49.9019V79.05H58.8059V77.622H51.7359ZM64.4258 78V68.0469H67.9121C69.1198 68.0469 70.0358 68.2793 70.6602 68.7441C71.2845 69.2044 71.5967 69.8812 71.5967 70.7744C71.5967 71.262 71.4714 71.6927 71.2207 72.0664C70.9701 72.4355 70.6214 72.7067 70.1748 72.8799C70.6852 73.0075 71.0863 73.265 71.3779 73.6523C71.6742 74.0397 71.8223 74.5137 71.8223 75.0742C71.8223 76.0312 71.5169 76.7559 70.9062 77.248C70.2956 77.7402 69.4251 77.9909 68.2949 78H64.4258ZM66.4766 73.666V76.3525H68.2334C68.7165 76.3525 69.0924 76.2386 69.3613 76.0107C69.6348 75.7783 69.7715 75.4593 69.7715 75.0537C69.7715 74.1423 69.2998 73.6797 68.3564 73.666H66.4766ZM66.4766 72.2168H67.9941C69.0286 72.1986 69.5459 71.7861 69.5459 70.9795C69.5459 70.5283 69.4137 70.2048 69.1494 70.0088C68.8896 69.8083 68.4772 69.708 67.9121 69.708H66.4766V72.2168ZM81.1191 75.1289L82.459 68.0469H84.5029L82.2949 78H80.2305L78.6104 71.3418L76.9902 78H74.9258L72.7178 68.0469H74.7617L76.1084 75.1152L77.749 68.0469H79.4854L81.1191 75.1289ZM87.668 74.4932V78H85.6172V68.0469H89.5C90.2474 68.0469 90.9036 68.1836 91.4688 68.457C92.0384 68.7305 92.4759 69.1201 92.7812 69.626C93.0866 70.1273 93.2393 70.6992 93.2393 71.3418C93.2393 72.3171 92.9043 73.0872 92.2344 73.6523C91.569 74.2129 90.6462 74.4932 89.4658 74.4932H87.668ZM87.668 72.832H89.5C90.0423 72.832 90.4548 72.7044 90.7373 72.4492C91.0244 72.194 91.168 71.8294 91.168 71.3555C91.168 70.8678 91.0244 70.4736 90.7373 70.1729C90.4502 69.8721 90.0537 69.7171 89.5479 69.708H87.668V72.832ZM97.334 68.0469L99.8906 75.2656L102.434 68.0469H105.127V78H103.069V75.2793L103.274 70.583L100.588 78H99.1797L96.5 70.5898L96.7051 75.2793V78H94.6543V68.0469H97.334ZM113.17 68.844H114.472V72.498C114.038 72.526 113.604 72.54 113.17 72.554V68.844ZM117.706 72.246C117.23 72.302 116.74 72.358 116.236 72.386V68.844H117.258V67.374H110.384V68.844H111.392V72.582L110.048 72.596L110.244 74.094C112.386 74.094 115.298 74.038 117.832 73.59L117.706 72.246ZM113.8 74.92H111.952V78.98H120.73V77.51H113.8V74.92ZM120.268 69.95V66.31H118.42V75.802H120.268V71.476H121.976V69.95H120.268ZM125.083 69.082H126.735V74.542H125.083V69.082ZM123.361 75.984H128.443V67.626H123.361V75.984ZM132.307 66.296V71.224H131.229V66.506H129.507V78.616H131.229V72.708H132.307V79.19H134.057V66.296H132.307ZM147.117 70.888C144.191 70.482 142.707 68.802 142.707 67.304V66.688H140.733V67.304C140.733 68.816 139.263 70.482 136.323 70.888L137.023 72.372C139.277 72.036 140.901 70.986 141.727 69.6C142.553 70.986 144.163 72.036 146.417 72.372L147.117 70.888ZM147.537 73.324H135.889V74.822H140.747V79.218H142.595V74.822H147.537V73.324ZM149.216 69.572V73.548H150.322C152.898 73.548 154.536 73.492 156.328 73.156L156.174 71.672C154.564 71.966 153.15 72.05 151.05 72.064V70.944H155.082V67.066H149.202V68.55H153.262V69.572H149.216ZM154.662 77.804C152.982 77.804 152.114 77.482 152.114 76.768C152.114 76.054 152.982 75.732 154.662 75.732C156.342 75.732 157.21 76.054 157.21 76.768C157.21 77.482 156.342 77.804 154.662 77.804ZM154.662 74.318C151.974 74.318 150.294 75.214 150.294 76.768C150.294 78.308 151.974 79.218 154.662 79.218C157.35 79.218 159.03 78.308 159.03 76.768C159.03 75.214 157.35 74.318 154.662 74.318ZM160.612 69.544V68.046H158.904V66.31H157.056V74.08H158.904V72.26H160.612V70.762H158.904V69.544H160.612ZM170.467 66.296V79.232H172.315V66.296H170.467ZM165.385 67.206C163.439 67.206 161.997 68.97 161.997 71.798C161.997 74.64 163.439 76.418 165.385 76.418C167.331 76.418 168.773 74.64 168.773 71.798C168.773 68.97 167.331 67.206 165.385 67.206ZM165.385 68.872C166.337 68.872 166.995 69.894 166.995 71.798C166.995 73.716 166.337 74.738 165.385 74.738C164.433 74.738 163.775 73.716 163.775 71.798C163.775 69.894 164.433 68.872 165.385 68.872ZM181.036 68.718H186.594V72.134H181.036V68.718ZM184.746 76.208V73.59H188.4V67.262H179.23V73.59H182.898V76.208H177.998V77.706H189.674V76.208H184.746ZM201.209 70.874H194.237V68.466H201.069V66.996H192.347V72.344H201.209V70.874ZM202.553 73.604H190.863V75.102H195.749V79.19H197.597V75.102H202.553V73.604ZM209.329 69.082H210.981V74.542H209.329V69.082ZM207.607 75.984H212.689V67.626H207.607V75.984ZM216.553 66.296V71.224H215.475V66.506H213.753V78.616H215.475V72.708H216.553V79.19H218.303V66.296H216.553ZM230.832 66.31H228.97V75.634H230.832V66.31ZM228.158 72.624C226.072 71.938 225.134 70.356 225.134 68.844V68.69H227.682V67.234H220.668V68.69H223.258V68.844C223.258 70.454 222.32 72.148 220.178 72.82L221.116 74.262C222.614 73.772 223.65 72.778 224.224 71.518C224.812 72.666 225.792 73.59 227.22 74.038L228.158 72.624ZM224.098 77.51V74.794H222.25V78.98H231.154V77.51H224.098ZM238.152 73.016H240.616V71.532H235.73V68.928H240.532V67.458H233.882V73.016H236.304V75.158C235.17 75.186 234.064 75.186 233.056 75.186L233.28 76.698C235.674 76.698 238.558 76.67 241.316 76.236L241.204 74.892C240.224 74.99 239.188 75.06 238.152 75.116V73.016ZM241.904 66.31V79.232H243.752V66.31H241.904ZM249.435 68.494C250.373 68.494 251.059 69.096 251.059 70.062C251.059 71.042 250.373 71.616 249.435 71.616C248.497 71.616 247.811 71.042 247.811 70.062C247.811 69.096 248.497 68.494 249.435 68.494ZM254.811 70.804V73.52H256.659V66.31H254.811V69.306H252.739C252.389 67.906 251.087 66.968 249.435 66.968C247.517 66.968 246.061 68.256 246.061 70.062C246.061 71.868 247.517 73.156 249.435 73.156C251.101 73.156 252.403 72.204 252.753 70.804H254.811ZM255.455 74.024H253.635V74.5C253.635 75.466 253.215 76.6 252.165 77.37C251.143 76.642 250.723 75.564 250.723 74.5V74.024H248.931V74.5C248.931 75.788 248.231 77.09 246.551 77.692L247.461 79.022C248.623 78.616 249.393 77.832 249.841 76.866C250.261 77.874 250.989 78.714 252.179 79.162C253.341 78.7 254.083 77.832 254.503 76.824C254.951 77.832 255.721 78.616 256.939 79.022L257.863 77.692C256.141 77.146 255.455 75.872 255.455 74.5V74.024ZM269.832 69.922C266.934 69.6 265.534 68.144 265.534 66.842V66.45H263.63V66.842C263.63 68.158 262.23 69.586 259.332 69.922L259.976 71.35C262.174 71.07 263.77 70.174 264.582 68.942C265.408 70.174 266.976 71.084 269.174 71.35L269.832 69.922ZM267.116 77.622H261.95V76.502H267.116V77.622ZM267.116 75.116H261.95V74.038H260.116V79.05H268.936V74.038H267.116V75.116ZM258.758 71.938V73.394H270.406V71.938H258.758ZM274.143 67.528H272.309V76.026H273.457C275.417 76.026 277.559 75.886 279.757 75.424L279.561 73.884C277.671 74.262 275.837 74.402 274.143 74.444V67.528ZM280.555 66.296V79.19H282.403V66.296H280.555ZM286.854 68.998H291.026V67.5H285.02V76.138H286.112C288.352 76.138 290.116 76.068 292.062 75.718L291.88 74.192C290.214 74.472 288.688 74.57 286.854 74.598V68.998ZM296.486 71.07H294.61V66.31H292.762V79.232H294.61V72.596H296.486V71.07ZM297.654 77.0293C297.654 76.7148 297.759 76.4596 297.969 76.2637C298.183 76.0677 298.45 75.9697 298.769 75.9697C299.092 75.9697 299.359 76.0677 299.568 76.2637C299.783 76.4596 299.89 76.7148 299.89 77.0293C299.89 77.3392 299.785 77.5921 299.575 77.7881C299.366 77.9795 299.097 78.0752 298.769 78.0752C298.445 78.0752 298.178 77.9795 297.969 77.7881C297.759 77.5921 297.654 77.3392 297.654 77.0293Z" fill="white"/>
<path d="M67.6846 472.28C67.4112 472.28 67.2179 472.203 67.1046 472.05C66.9912 471.897 66.9346 471.713 66.9346 471.5C66.9346 471.287 66.9912 471.107 67.1046 470.96C67.2179 470.807 67.4112 470.73 67.6846 470.73C67.9579 470.73 68.1512 470.807 68.2646 470.96C68.3846 471.107 68.4446 471.287 68.4446 471.5C68.4446 471.713 68.3846 471.897 68.2646 472.05C68.1512 472.203 67.9579 472.28 67.6846 472.28ZM64.8946 478L64.1646 477.26L66.9346 474.47L64.1446 471.67L64.8846 470.92L67.6846 473.71L70.4946 470.93L71.2446 471.66L68.4346 474.47L71.2046 477.28L70.4746 478.02L67.6846 475.22L64.8946 478ZM64.7046 475.23C64.4979 475.23 64.3179 475.173 64.1646 475.06C64.0112 474.947 63.9346 474.753 63.9346 474.48C63.9346 474.213 64.0112 474.02 64.1646 473.9C64.3179 473.78 64.4979 473.72 64.7046 473.72C64.9179 473.72 65.1012 473.78 65.2546 473.9C65.4079 474.02 65.4846 474.213 65.4846 474.48C65.4846 474.753 65.4079 474.947 65.2546 475.06C65.1012 475.173 64.9179 475.23 64.7046 475.23ZM70.6546 475.23C70.4412 475.23 70.2579 475.173 70.1046 475.06C69.9579 474.947 69.8846 474.753 69.8846 474.48C69.8846 474.213 69.9579 474.02 70.1046 473.9C70.2579 473.78 70.4412 473.72 70.6546 473.72C70.8679 473.72 71.0512 473.78 71.2046 473.9C71.3579 474.02 71.4346 474.213 71.4346 474.48C71.4346 474.753 71.3579 474.947 71.2046 475.06C71.0512 475.173 70.8679 475.23 70.6546 475.23ZM67.6846 478.23C67.4112 478.23 67.2179 478.153 67.1046 478C66.9912 477.847 66.9346 477.663 66.9346 477.45C66.9346 477.243 66.9912 477.063 67.1046 476.91C67.2179 476.757 67.4112 476.68 67.6846 476.68C67.9579 476.68 68.1512 476.757 68.2646 476.91C68.3846 477.063 68.4446 477.243 68.4446 477.45C68.4446 477.663 68.3846 477.847 68.2646 478C68.1512 478.153 67.9579 478.23 67.6846 478.23ZM75.3809 470.53V471.58H78.3009C78.2709 472.02 78.2009 472.42 78.1109 472.8L74.8909 472.99L75.0609 474.11L77.7309 473.85C77.2109 474.86 76.3209 475.72 74.8109 476.47L75.5109 477.49C78.9409 475.74 79.6109 473.37 79.6109 470.53H75.3809ZM83.3509 473.16H82.0609V469.64H80.7409V478.84H82.0609V474.25H83.3509V473.16ZM88.2101 470.87C89.3801 470.87 90.1001 471.16 90.1001 471.73C90.1001 472.3 89.3801 472.59 88.2101 472.59C87.0601 472.59 86.3301 472.3 86.3301 471.73C86.3301 471.16 87.0601 470.87 88.2101 470.87ZM88.2101 473.64C90.2001 473.64 91.5201 472.9 91.5201 471.73C91.5201 470.57 90.2001 469.82 88.2101 469.82C86.2301 469.82 84.9001 470.57 84.9001 471.73C84.9001 472.9 86.2301 473.64 88.2101 473.64ZM86.3601 475.94H85.0201V478.7H91.4801V477.65H86.3601V475.94ZM84.0501 474.12V475.17H87.6201V476.75H88.9701V475.17H92.3901V474.12H84.0501ZM100.699 474.4H95.5693V473.37H100.419V472.35H95.5693V471.38H100.629V470.32H94.2293V475.44H100.699V474.4ZM93.2493 476.73V477.8H101.589V476.73H93.2493ZM104.119 471.57H107.099V470.5H102.809V476.67H103.589C105.189 476.67 106.449 476.62 107.839 476.37L107.709 475.28C106.519 475.48 105.429 475.55 104.119 475.57V471.57ZM110.999 473.05H109.659V469.65H108.339V478.88H109.659V474.14H110.999V473.05ZM115.808 470.87C116.978 470.87 117.698 471.16 117.698 471.73C117.698 472.3 116.978 472.59 115.808 472.59C114.658 472.59 113.928 472.3 113.928 471.73C113.928 471.16 114.658 470.87 115.808 470.87ZM115.808 473.64C117.798 473.64 119.118 472.9 119.118 471.73C119.118 470.57 117.798 469.82 115.808 469.82C113.828 469.82 112.498 470.57 112.498 471.73C112.498 472.9 113.828 473.64 115.808 473.64ZM113.958 475.94H112.618V478.7H119.078V477.65H113.958V475.94ZM111.648 474.12V475.17H115.218V476.75H116.568V475.17H119.988V474.12H111.648ZM127.157 469.64V478.88H128.477V469.64H127.157ZM123.527 470.29C122.137 470.29 121.107 471.55 121.107 473.57C121.107 475.6 122.137 476.87 123.527 476.87C124.917 476.87 125.947 475.6 125.947 473.57C125.947 471.55 124.917 470.29 123.527 470.29ZM123.527 471.48C124.207 471.48 124.677 472.21 124.677 473.57C124.677 474.94 124.207 475.67 123.527 475.67C122.847 475.67 122.377 474.94 122.377 473.57C122.377 472.21 122.847 471.48 123.527 471.48ZM134.876 477.18H139.676V476.24H134.876V475.68H139.896V474.71H133.546V478.75H139.966V477.77H134.876V477.18ZM139.666 473.03C139.916 472.03 139.916 471.24 139.916 470.59V469.96H136.886V471H138.636C138.626 471.55 138.576 472.19 138.346 473.03H136.036C136.356 471.9 136.356 471.05 136.356 470.46V469.96H133.316V471H135.066C135.046 471.52 134.976 472.18 134.706 473.03H132.536V474.08H140.866V473.03H139.666ZM143.336 470.52H142.016V476.6H142.816C144.156 476.6 145.636 476.52 147.166 476.2L147.036 475.12C145.746 475.37 144.496 475.47 143.336 475.5V470.52ZM150.236 473.12H148.946V469.64H147.626V478.84H148.946V474.21H150.236V473.12ZM154.365 473.85H152.615V471.42H154.365V473.85ZM157.315 472.15V473.08H155.655V472.15H157.315ZM155.655 474.13H157.315V476.36H158.635V469.65H157.315V471.1H155.655V470.39H151.315V474.89H155.655V474.13ZM153.875 477.65V475.73H152.555V478.7H158.835V477.65H153.875ZM166.004 471.62H167.834V470.53H162.774V471.62H164.684V472.13C164.684 473.65 163.934 475.38 162.424 476.08L163.164 477.13C164.214 476.63 164.954 475.62 165.364 474.42C165.774 475.51 166.494 476.43 167.514 476.9L168.244 475.86C166.734 475.16 166.004 473.53 166.004 472.13V471.62ZM171.174 473.16H169.834V469.65H168.514V478.86H169.834V474.25H171.174V473.16ZM175.964 477.87C174.734 477.87 174.104 477.66 174.104 477.18C174.104 476.7 174.734 476.48 175.964 476.48C177.194 476.48 177.824 476.7 177.824 477.18C177.824 477.66 177.194 477.87 175.964 477.87ZM175.964 475.48C173.974 475.48 172.774 476.09 172.774 477.18C172.774 478.26 173.974 478.87 175.964 478.87C177.954 478.87 179.164 478.26 179.164 477.18C179.164 476.09 177.954 475.48 175.964 475.48ZM176.654 473.98V473.22H179.214V472.17H174.154V471.09H179.164V470.04H172.844V473.22H175.334V473.98H171.834V475.03H180.164V473.98H176.654ZM185.183 470.11C183.253 470.11 181.753 471.17 181.753 472.78C181.753 474.38 183.253 475.44 185.183 475.44C187.123 475.44 188.623 474.38 188.623 472.78C188.623 471.17 187.123 470.11 185.183 470.11ZM185.183 471.19C186.443 471.19 187.333 471.78 187.333 472.78C187.333 473.76 186.443 474.36 185.183 474.36C183.933 474.36 183.043 473.76 183.043 472.78C183.043 471.78 183.933 471.19 185.183 471.19ZM181.023 476.68V477.76H189.363V476.68H181.023ZM195.042 476.77V475.4H197.832V474.34H192.492V473.31H197.622V470.24H191.172V471.29H196.322V472.28H191.182V475.4H193.722V476.77H190.222V477.85H198.562V476.77H195.042ZM207.401 470.66H205.361V469.69H204.041V470.66H201.981V471.7H207.401V470.66ZM203.701 473.79C203.701 473.32 204.101 473.06 204.701 473.06C205.301 473.06 205.701 473.32 205.701 473.79C205.701 474.28 205.301 474.54 204.701 474.54C204.101 474.54 203.701 474.28 203.701 473.79ZM205.361 475.46C206.321 475.26 206.951 474.64 206.951 473.79C206.951 472.76 206.021 472.06 204.701 472.06C203.381 472.06 202.451 472.76 202.451 473.79C202.451 474.64 203.081 475.26 204.041 475.46V476.24C203.231 476.26 202.471 476.26 201.811 476.26L201.971 477.33C203.531 477.33 205.601 477.33 207.541 476.95L207.441 476C206.781 476.1 206.071 476.15 205.361 476.19V475.46ZM210.381 473.4H209.231V469.65H207.911V478.86H209.231V474.49H210.381V473.4ZM214.541 473.85H212.791V471.42H214.541V473.85ZM217.491 472.15V473.08H215.831V472.15H217.491ZM215.831 474.13H217.491V476.36H218.811V469.65H217.491V471.1H215.831V470.39H211.491V474.89H215.831V474.13ZM214.051 477.65V475.73H212.731V478.7H219.011V477.65H214.051ZM226.62 469.64V478.88H227.94V469.64H226.62ZM222.99 470.29C221.6 470.29 220.57 471.55 220.57 473.57C220.57 475.6 221.6 476.87 222.99 476.87C224.38 476.87 225.41 475.6 225.41 473.57C225.41 471.55 224.38 470.29 222.99 470.29ZM222.99 471.48C223.67 471.48 224.14 472.21 224.14 473.57C224.14 474.94 223.67 475.67 222.99 475.67C222.31 475.67 221.84 474.94 221.84 473.57C221.84 472.21 222.31 471.48 222.99 471.48ZM236.939 472.03V473.1H238.379V476.37H239.699V469.65H238.379V472.03H236.939ZM237.549 474.15C236.099 473.66 235.469 472.53 235.469 471.44V471.32H237.259V470.27H232.309V471.32H234.119V471.45C234.119 472.61 233.459 473.82 231.949 474.31L232.619 475.36C233.689 475 234.409 474.27 234.819 473.36C235.219 474.19 235.899 474.85 236.909 475.18L237.549 474.15ZM234.949 477.65V475.81H233.629V478.7H239.909V477.65H234.949ZM246.549 470.4H244.599V469.61H243.279V470.4H241.319V471.34H246.549V470.4ZM242.939 473.01C242.939 472.65 243.319 472.46 243.939 472.46C244.559 472.46 244.929 472.65 244.929 473.01C244.929 473.36 244.559 473.55 243.939 473.55C243.319 473.55 242.939 473.36 242.939 473.01ZM246.779 474.64C246.079 474.74 245.349 474.8 244.599 474.85V474.38C245.569 474.23 246.179 473.73 246.179 473.01C246.179 472.12 245.289 471.58 243.939 471.58C242.579 471.58 241.689 472.12 241.689 473.01C241.689 473.73 242.299 474.23 243.279 474.38V474.91C242.489 474.94 241.739 474.94 241.089 474.94L241.229 475.95C242.799 475.94 244.969 475.9 246.879 475.54L246.779 474.64ZM243.689 476.39H242.369V478.7H248.809V477.65H243.689V476.39ZM248.499 472.66V469.64H247.179V476.84H248.499V473.74H249.659V472.66H248.499ZM256.188 473.59C255.518 473.69 254.808 473.75 254.088 473.78V473.13H255.668V472.09H252.508V471.12H255.618V470.07H251.188V473.13H252.768V473.84C251.938 473.87 251.128 473.87 250.418 473.87L250.598 474.89C252.198 474.88 254.328 474.85 256.288 474.5L256.188 473.59ZM256.778 477.72H253.158V477.05H256.778V477.72ZM256.778 476.05H253.158V475.36H251.848V478.75H258.078V475.36H256.778V476.05ZM256.758 469.65V474.99H258.078V469.65H256.758ZM261.387 470.52H260.077V476.59H260.897C262.297 476.59 263.827 476.49 265.397 476.16L265.257 475.06C263.907 475.33 262.597 475.43 261.387 475.46V470.52ZM265.967 469.64V478.85H267.287V469.64H265.967ZM270.466 471.57H273.446V470.5H269.156V476.67H269.936C271.536 476.67 272.796 476.62 274.186 476.37L274.056 475.28C272.866 475.48 271.776 475.55 270.466 475.57V471.57ZM277.346 473.05H276.006V469.65H274.686V478.88H276.006V474.14H277.346V473.05Z" fill="#B3B7C6"/>
<path d="M120.122 191.426H125.486V189.5H117.764V200.606H119.168C122.048 200.606 124.316 200.516 126.818 200.066L126.584 198.104C124.442 198.464 122.48 198.59 120.122 198.626V191.426ZM132.506 194.09H130.094V187.97H127.718V204.584H130.094V196.052H132.506V194.09ZM141.162 188.294C137.508 188.294 135.168 189.518 135.168 191.516C135.168 193.532 137.508 194.738 141.162 194.738C144.816 194.738 147.174 193.532 147.174 191.516C147.174 189.518 144.816 188.294 141.162 188.294ZM141.162 190.112C143.43 190.112 144.726 190.58 144.726 191.516C144.726 192.452 143.43 192.92 141.162 192.92C138.912 192.92 137.616 192.452 137.616 191.516C137.616 190.58 138.912 190.112 141.162 190.112ZM135.42 198.734V204.35H146.868V198.734H135.42ZM144.528 200.588V202.496H137.742V200.588H144.528ZM133.674 195.692V197.564H148.65V195.692H133.674ZM158.639 191.228H160.313V195.926C159.755 195.962 159.197 195.98 158.639 195.998V191.228ZM164.471 195.602C163.859 195.674 163.229 195.746 162.581 195.782V191.228H163.895V189.338H155.057V191.228H156.353V196.034L154.625 196.052L154.877 197.978C157.631 197.978 161.375 197.906 164.633 197.33L164.471 195.602ZM159.449 199.04H157.073V204.26H168.359V202.37H159.449V199.04ZM167.765 192.65V187.97H165.389V200.174H167.765V194.612H169.961V192.65H167.765ZM173.956 191.534H176.08V198.554H173.956V191.534ZM171.742 200.408H178.276V189.662H171.742V200.408ZM183.244 187.952V194.288H181.858V188.222H179.644V203.792H181.858V196.196H183.244V204.53H185.494V187.952H183.244ZM199.551 196.736C199.605 196.25 199.641 195.71 199.641 195.152C199.641 194.576 199.605 194.036 199.533 193.532H200.991V196.736H199.551ZM196.059 198.95C195.123 198.95 194.583 197.69 194.583 195.152C194.583 192.614 195.123 191.372 196.059 191.372C196.977 191.372 197.517 192.614 197.517 195.152C197.517 197.69 196.977 198.95 196.059 198.95ZM200.991 191.624H199.083C198.471 190.022 197.409 189.14 196.059 189.14C193.845 189.14 192.459 191.408 192.459 195.152C192.459 198.914 193.845 201.182 196.059 201.182C197.427 201.182 198.489 200.264 199.101 198.662H200.991V203.792H203.205V188.24H200.991V191.624ZM204.285 187.952V204.53H206.535V187.952H204.285ZM217.874 191.966V193.892H220.358V197.834H222.734V187.97H220.358V191.966H217.874ZM218.864 195.53C216.344 194.702 215.192 192.758 215.12 190.868H218.342V188.96H209.432V190.868H212.69C212.618 192.938 211.412 195.044 208.784 195.962L209.99 197.834C211.916 197.186 213.23 195.836 213.95 194.162C214.67 195.62 215.912 196.79 217.712 197.384L218.864 195.53ZM217.136 202.766C214.958 202.766 213.824 202.316 213.824 201.38C213.824 200.444 214.958 199.994 217.136 199.994C219.296 199.994 220.43 200.444 220.43 201.38C220.43 202.316 219.296 202.766 217.136 202.766ZM217.136 198.194C213.608 198.194 211.448 199.364 211.448 201.38C211.448 203.396 213.608 204.566 217.136 204.566C220.646 204.566 222.806 203.396 222.806 201.38C222.806 199.364 220.646 198.194 217.136 198.194Z" fill="#3EE0D0"/>
<defs>
<filter id="filter0_d" x="39.7012" y="114.082" width="261.257" height="47.4453" filterUnits="userSpaceOnUse" color-interpolation-filters="sRGB">
<feFlood flood-opacity="0" result="BackgroundImageFix"/>
<feColorMatrix in="SourceAlpha" type="matrix" values="0 0 0 0 0 0 0 0 0 0 0 0 0 0 0 0 0 0 127 0"/>
<feOffset dy="4"/>
<feGaussianBlur stdDeviation="2"/>
<feColorMatrix type="matrix" values="0 0 0 0 0 0 0 0 0 0 0 0 0 0 0 0 0 0 0.25 0"/>
<feBlend mode="normal" in2="BackgroundImageFix" result="effect1_dropShadow"/>
<feBlend mode="normal" in="SourceGraphic" in2="effect1_dropShadow" result="shape"/>
</filter>
<linearGradient id="paint0_linear" x1="264.647" y1="39.3082" x2="-54.8098" y2="312.67" gradientUnits="userSpaceOnUse">
<stop stop-color="#FF2264"/>
<stop offset="0.842871" stop-color="#9227AF"/>
</linearGradient>
</defs>
</svg>
