<svg width="312" height="496" viewBox="0 0 312 496" fill="none" xmlns="http://www.w3.org/2000/svg">
<path d="M0 0H312V496H0V0Z" fill="url(#paint0_linear)"/>
<path opacity="0.5" d="M274.862 152.025L278.862 148.197L277.475 142.795L272.167 141.293L268.167 145.121L269.554 150.523L274.862 152.025ZM272.716 143.317L275.946 144.232L276.778 147.458L274.379 149.77L271.148 148.856L270.32 145.705L272.716 143.317Z" fill="white"/>
<path opacity="0.5" d="M52.5191 322.103L49.4712 324.39L51.7585 327.438L54.8064 325.151L52.5191 322.103Z" fill="white"/>
<path opacity="0.5" d="M262 290.619L263.619 295.287L268.287 293.668L266.669 289L262 290.619Z" fill="white"/>
<path opacity="0.5" d="M41.4581 64.9999L37 67.1306L39.1307 71.5887L43.5888 69.4579L41.4581 64.9999Z" fill="white"/>
<path opacity="0.2" d="M286.326 318L277 321.947L280.947 331.273L290.273 327.326L286.326 318Z" fill="white"/>
<path opacity="0.5" d="M29.806 253L26 260.348L33.3481 264.154L37.1541 256.806L29.806 253Z" fill="white"/>
<path opacity="0.2" d="M280.971 45L278 51.4441L284.444 54.4149L287.415 47.9707L280.971 45Z" fill="white"/>
<path opacity="0.2" d="M30.3303 30.0001L27 36.4297L33.4296 39.76L36.7599 33.3304L30.3303 30.0001Z" fill="white"/>
<g filter="url(#filter0_d)">
<path d="M76.9273 166.32C65.1513 166.32 55.8073 171.952 55.8073 181.36C55.8073 191.152 61.9513 195.824 73.2793 197.936C82.5593 199.664 86.0793 201.328 86.0793 205.488C86.0793 208.88 82.5593 211.248 77.8233 211.248C71.1673 211.248 66.8153 207.92 66.1753 202.928H54.2073C54.7193 214.064 64.1273 221.04 76.9913 221.04C88.6393 221.04 98.0473 214.96 98.0473 204.976C98.0473 197.168 93.9513 191.216 81.9193 188.72C71.7433 186.608 67.7113 185.264 67.7113 181.36C67.7113 178.224 70.7193 176.048 76.1593 176.048C81.7273 176.048 85.1193 178.8 85.8232 183.344H97.8553C97.2793 173.424 88.5753 166.32 76.9273 166.32ZM130.745 221.04C146.937 221.04 158.905 209.456 158.905 193.648C158.905 177.84 146.937 166.256 130.745 166.256C114.553 166.256 102.585 177.84 102.585 193.648C102.585 209.456 114.553 221.04 130.745 221.04ZM130.745 210.544C121.273 210.544 114.233 203.44 114.233 193.648C114.233 183.792 121.273 176.752 130.745 176.752C140.217 176.752 147.257 183.792 147.257 193.648C147.257 203.44 140.217 210.544 130.745 210.544ZM165.827 167.6V219.76H203.523V209.456H177.475V167.6H165.827ZM209.389 219.76H229.613C246.893 219.76 257.581 209.136 257.581 193.712C257.581 178.288 246.893 167.6 229.613 167.6H209.389V219.76ZM221.037 209.456V177.904H229.805C239.789 177.904 245.933 183.664 245.933 193.712C245.933 203.76 239.789 209.456 229.805 209.456H221.037ZM103.714 291.04C119.906 291.04 131.874 279.456 131.874 263.648C131.874 247.84 119.906 236.256 103.714 236.256C87.522 236.256 75.554 247.84 75.554 263.648C75.554 279.456 87.522 291.04 103.714 291.04ZM103.714 280.544C94.242 280.544 87.202 273.44 87.202 263.648C87.202 253.792 94.242 246.752 103.714 246.752C113.186 246.752 120.226 253.792 120.226 263.648C120.226 273.44 113.186 280.544 103.714 280.544ZM138.156 266.656C138.156 281.44 147.692 291.04 162.028 291.04C176.364 291.04 185.9 281.44 185.9 266.656V237.6H174.252V266.656C174.252 274.976 169.644 280.544 162.028 280.544C154.412 280.544 149.804 274.976 149.804 266.656V237.6H138.156V266.656ZM237.107 237.6H191.539V247.904H208.499V289.76H220.147V247.904H237.107V237.6Z" fill="white"/>
</g>
<path d="M132.898 337.306V333.5H129.18V347.404H132.898V340.914H135.098V337.306H132.898ZM128.3 344.038V341.046C127.75 341.266 127.002 341.442 126.144 341.53V336.778H127.706V333.72H115.408V336.778H116.97V341.662H115.276V344.698H123.526C125.308 344.698 127.332 344.456 128.3 344.038ZM120.512 336.778H122.602V341.662H120.512V336.778ZM120.094 345.798H116.31V352.288H133.162V348.944H120.094V345.798ZM151.64 333.5V340.408H150.078V333.588H146.646V351.958H150.078V343.928H151.64V352.288H155.116V333.5H151.64ZM136.746 351.408H145.282V333.94H136.746V351.408ZM140.2 337.306H141.85V348.042H140.2V337.306ZM172.824 333.5V352.288H176.278V333.5H172.824ZM168.16 337.196H166.07C165.366 334.776 164.024 333.72 162.132 333.72C159.162 333.72 157.578 336.272 157.578 342.674C157.578 349.098 159.162 351.628 162.132 351.628C164.156 351.628 165.542 350.44 166.224 347.646H168.16V351.958H171.548V333.588H168.16V337.196ZM162.132 348.284C161.296 348.284 160.988 346.568 160.988 342.674C160.988 338.78 161.296 337.064 162.132 337.064C162.968 337.064 163.276 338.78 163.276 342.674C163.276 346.568 162.968 348.284 162.132 348.284ZM166.664 344.192C166.686 343.708 166.686 343.202 166.686 342.674C166.686 341.948 166.664 341.266 166.62 340.65H168.16V344.192H166.664ZM185.472 340.716L190.224 343.554L192.006 340.826L186.99 337.966C187.122 337.57 187.188 337.196 187.232 336.8H190.774V339.572H193.282V344.016H197V333.5H193.282V336.404H191.302V333.72H179.334V336.8H183.47C183.096 338.582 181.49 340.364 179.07 340.496V343.752C181.754 343.686 183.998 342.432 185.472 340.716ZM188.596 344.28C183.8 344.28 180.016 345.336 180.016 348.394C180.016 351.452 183.8 352.508 188.596 352.508C193.392 352.508 197.176 351.452 197.176 348.394C197.176 345.336 193.392 344.28 188.596 344.28ZM188.596 349.582C186.066 349.582 184.02 349.252 184.02 348.394C184.02 347.558 186.066 347.206 188.596 347.206C191.126 347.206 193.172 347.558 193.172 348.394C193.172 349.252 191.126 349.582 188.596 349.582Z" fill="#3EE0D0"/>
<path d="M127.966 67.65H125.806V64.5H124.024V72.852H125.806V69.36H127.966V67.65ZM121.144 66.552V64.878H112.288V66.39H119.344V66.858C119.344 69.612 116.626 70.854 112.288 70.872V72.42C117.616 72.42 121.144 70.746 121.144 66.552ZM112.954 79.674H125.806V73.698H112.954V79.674ZM114.736 75.21H124.024V78.162H114.736V75.21ZM145.281 70.728H143.121V64.5H141.339V79.872H143.121V72.438H145.281V70.728ZM135.849 64.95L134.031 64.878C134.013 71.34 132.411 76.668 129.333 77.154V78.954C131.727 78.774 133.581 76.776 134.679 73.428L138.639 78.918L140.079 77.892L135.237 71.34C135.633 69.486 135.831 67.344 135.849 64.95ZM156.907 65.778H152.587V64.23H150.787V65.778H146.467V67.146H156.907V65.778ZM162.595 67.722H160.435V64.5H158.653V73.14H160.435V69.378H162.595V67.722ZM151.687 73.338C154.225 73.338 156.187 72.33 156.187 70.638C156.187 68.964 154.225 67.938 151.687 67.938C149.131 67.938 147.169 68.964 147.169 70.638C147.169 72.33 149.131 73.338 151.687 73.338ZM151.687 69.234C153.397 69.234 154.495 69.846 154.495 70.638C154.495 71.43 153.397 72.042 151.687 72.042C149.959 72.042 148.879 71.43 148.879 70.638C148.879 69.846 149.959 69.234 151.687 69.234ZM158.707 75.354H149.311V73.968H147.583V79.674H160.435V73.968H158.707V75.354ZM149.311 78.27V76.722H158.707V78.27H149.311ZM176.4 79.89L178.182 79.872V64.5H176.4V79.89ZM164.718 78.954H171C172.476 78.954 174.042 78.666 174.978 78.198V76.56C174.042 77.01 172.458 77.316 171 77.316H166.536V64.968H164.718V78.954ZM197.224 70.728H195.064V64.5H193.282V79.872H195.064V72.438H197.224V70.728ZM183.688 77.334V66.678H190.744V65.058H181.87V78.954H187.882C189.358 78.954 191.014 78.684 191.95 78.216V76.596C191.014 77.046 189.43 77.334 187.972 77.334H183.688ZM199.797 79.728C200.517 79.728 201.057 79.17 201.057 78.45C201.057 77.73 200.517 77.172 199.797 77.172C199.077 77.172 198.519 77.73 198.519 78.45C198.519 79.17 199.077 79.728 199.797 79.728ZM66.9757 101.494H68.8657V87.076H63.9877V88.732H66.9757V101.494ZM84.8704 94.024H86.6524V86.5H84.8704V94.024ZM77.3644 93.826C80.2084 93.826 82.1164 92.332 82.1164 90.244C82.1164 88.156 80.2084 86.662 77.3644 86.662C74.5204 86.662 72.5944 88.156 72.5944 90.244C72.5944 92.332 74.5204 93.826 77.3644 93.826ZM77.3644 92.386C75.6004 92.386 74.3584 91.54 74.3584 90.244C74.3584 88.948 75.6004 88.102 77.3644 88.102C79.1284 88.102 80.3524 88.948 80.3524 90.244C80.3524 91.54 79.1284 92.386 77.3644 92.386ZM73.8184 101.674H87.0304V100.27H75.5824V98.938H86.6524V94.87H73.7824V96.274H84.8884V97.606H73.8184V101.674ZM95.2238 87.076V101.494H101.65C104.89 101.494 106.78 99.91 106.78 97.426C106.78 95.644 105.502 94.366 103.864 94.042C105.16 93.736 106.096 92.422 106.096 91.072C106.096 88.606 104.296 87.076 101.11 87.076H95.2238ZM101.056 93.43H97.1138V88.714H101.056C103.054 88.714 104.188 89.542 104.188 91.072C104.188 92.602 103.054 93.43 101.056 93.43ZM101.596 99.856H97.1138V94.996H101.596C103.612 94.996 104.872 95.842 104.872 97.426C104.872 99.01 103.612 99.856 101.596 99.856ZM125.196 87.076L121.776 98.668L118.356 87.076H116.34L112.938 98.632L109.518 87.076H107.556L111.93 101.494H113.838L117.33 89.992L120.804 101.494H122.712L127.104 87.076H125.196ZM129.097 87.076V101.494H130.987V97.084H134.209C137.953 97.084 140.149 95.086 140.149 92.08C140.149 89.074 137.953 87.076 134.209 87.076H129.097ZM134.065 95.374H130.987V88.786H134.065C136.675 88.786 138.259 89.938 138.259 92.08C138.259 94.222 136.675 95.374 134.065 95.374ZM142.245 87.076V101.494H144.135V90.856L148.779 99.064H150.147L154.791 90.856V101.494H156.681V87.076H155.025L149.463 96.868L143.901 87.076H142.245ZM178.154 90.208V86.5H176.372V97.912H178.154V91.918H180.314V90.208H178.154ZM175.238 94.69V93.196C174.608 93.466 173.762 93.664 172.7 93.772V88.39H174.572V86.878H164.312V88.39H166.184V93.88H164.258V95.392H170.198C172.43 95.392 174.284 95.104 175.238 94.69ZM167.912 88.39H170.972V93.88H170.414H167.912V88.39ZM167.102 96.76H165.302V101.674H178.568V100.054H167.102V96.76ZM194.64 86.5V92.692H192.138V86.59H190.446V101.602H192.138V94.384H194.64V101.872H196.332V86.5H194.64ZM182.022 100.954H188.61V87.058H182.022V100.954ZM183.714 88.678H186.936V99.334H183.714V88.678ZM206.375 90.856L212.999 94.636L213.827 93.142L207.239 89.488C207.671 88.624 207.995 87.67 208.175 86.68L206.339 86.392C205.673 90.028 202.541 92.98 199.229 92.962V94.654C202.037 94.636 204.665 93.178 206.375 90.856ZM214.223 96.274H198.869V97.93H205.619V102.232H207.437V97.93H214.223V96.274ZM232.257 89.74V88.228H230.097V86.5H228.315V95.662H230.097V93.178H232.257V91.666H230.097V89.74H232.257ZM216.723 90.19V94.96H222.249C224.427 94.96 226.263 94.69 227.199 94.276V92.818C226.209 93.25 224.445 93.502 222.357 93.502H218.487V91.612H225.651V86.878H216.687V88.336H223.887V90.19H216.723ZM223.743 96.148C220.071 96.148 217.155 96.868 217.155 99.01C217.155 101.134 220.071 101.872 223.743 101.872C227.433 101.872 230.331 101.134 230.331 99.01C230.331 96.868 227.433 96.148 223.743 96.148ZM223.743 100.45C221.115 100.45 219.045 100.054 219.045 99.01C219.045 97.966 221.115 97.57 223.743 97.57C226.371 97.57 228.441 97.966 228.441 99.01C228.441 100.054 226.371 100.45 223.743 100.45ZM246.062 101.872H247.862V86.5H246.062V101.872ZM238.808 101.152C241.526 101.152 243.452 98.884 243.452 94.006C243.452 89.128 241.526 86.86 238.808 86.86C236.072 86.86 234.146 89.128 234.146 94.006C234.146 98.884 236.072 101.152 238.808 101.152ZM238.808 99.514C237.17 99.514 235.928 97.912 235.928 94.006C235.928 90.118 237.17 88.498 238.808 88.498C240.41 88.498 241.67 90.118 241.67 94.006C241.67 97.912 240.41 99.514 238.808 99.514ZM83.309 121.46V117.77H89.069V109.058H75.749V117.77H81.491V121.46H74.741V123.134H90.095V121.46H83.309ZM77.531 110.732H87.287V116.114H77.531V110.732ZM106.599 114.728H94.9354V110.516H106.419V108.878H93.1174V116.366H106.599V114.728ZM107.409 118.166H92.0554V119.858H98.8054V124.232H100.623V119.858H107.409V118.166ZM127.501 108.5V114.692H124.999V108.59H123.307V123.602H124.999V116.384H127.501V123.872H129.193V108.5H127.501ZM114.883 122.954H121.471V109.058H114.883V122.954ZM116.575 110.678H119.797V121.334H116.575V110.678ZM146.075 108.5H144.293V119.912H146.075V108.5ZM137.309 114.188L141.737 117.464L142.727 116.15L137.957 112.676C138.155 111.992 138.299 111.236 138.317 110.444H142.277V108.896H132.323V110.444H136.535C136.355 113.432 134.717 115.592 132.125 115.952V117.59C134.411 117.356 136.247 116.096 137.309 114.188ZM134.843 122.054V118.778H133.043V123.674H146.489V122.054H134.843ZM161.644 108.5V123.872H163.426V108.5H161.644ZM155.218 121.28V117.356H159.052V115.718H151.708V110.732H158.872V109.094H149.944V117.356H153.436V121.28H149.044V122.954H155.344C157.45 122.954 159.268 122.756 160.366 122.306V120.632C159.268 121.1 157.396 121.28 155.326 121.28H155.218ZM175.952 113.378H179.048V117.05H180.83V108.5H179.048V111.722H175.898C175.466 109.904 173.756 108.68 171.254 108.68C168.338 108.68 166.52 110.336 166.52 112.658C166.52 114.98 168.338 116.636 171.254 116.636C173.864 116.636 175.61 115.322 175.952 113.378ZM168.284 112.658C168.284 111.128 169.49 110.174 171.254 110.174C173.018 110.174 174.224 111.128 174.224 112.658C174.224 114.188 173.018 115.142 171.254 115.142C169.49 115.142 168.284 114.188 168.284 112.658ZM182.108 122.486L178.76 119.948C179.03 119.282 179.21 118.562 179.282 117.77L177.554 117.518C177.392 119.696 176.15 121.514 174.71 121.964L172.28 120.002C172.55 119.318 172.748 118.58 172.82 117.77L171.11 117.518C170.93 119.948 169.4 121.892 167.708 122.054V123.674C169.202 123.566 170.588 122.72 171.542 121.352L174.206 123.674C175.718 123.584 177.104 122.72 178.058 121.316L181.082 123.782L182.108 122.486ZM197.947 114.08L198.541 112.73L192.169 110.21C192.511 109.67 192.763 109.076 192.889 108.446L191.107 108.14C190.513 110.768 187.201 112.478 184.231 112.586V114.062C186.841 114.008 189.523 113.018 191.215 111.362L197.947 114.08ZM183.673 115.268V116.69H199.027V115.268H183.673ZM196.201 119.282H186.499V117.842H184.735V123.692H197.947V117.842H196.201V119.282ZM186.499 122.288V120.668H196.201V122.288H186.499ZM213.551 123.89L215.333 123.872V108.5H213.551V123.89ZM201.869 122.954H208.151C209.627 122.954 211.193 122.666 212.129 122.198V120.56C211.193 121.01 209.609 121.316 208.151 121.316H203.687V108.968H201.869V122.954ZM234.376 114.728H232.216V108.5H230.434V123.872H232.216V116.438H234.376V114.728ZM220.84 121.334V110.678H227.896V109.058H219.022V122.954H225.034C226.51 122.954 228.166 122.684 229.102 122.216V120.596C228.166 121.046 226.582 121.334 225.124 121.334H220.84ZM236.948 123.728C237.668 123.728 238.208 123.17 238.208 122.45C238.208 121.73 237.668 121.172 236.948 121.172C236.228 121.172 235.67 121.73 235.67 122.45C235.67 123.17 236.228 123.728 236.948 123.728Z" fill="white"/>
<defs>
<filter id="filter0_d" x="50.207" y="166.256" width="211.374" height="132.784" filterUnits="userSpaceOnUse" color-interpolation-filters="sRGB">
<feFlood flood-opacity="0" result="BackgroundImageFix"/>
<feColorMatrix in="SourceAlpha" type="matrix" values="0 0 0 0 0 0 0 0 0 0 0 0 0 0 0 0 0 0 127 0"/>
<feOffset dy="4"/>
<feGaussianBlur stdDeviation="2"/>
<feColorMatrix type="matrix" values="0 0 0 0 0 0 0 0 0 0 0 0 0 0 0 0 0 0 0.25 0"/>
<feBlend mode="normal" in2="BackgroundImageFix" result="effect1_dropShadow"/>
<feBlend mode="normal" in="SourceGraphic" in2="effect1_dropShadow" result="shape"/>
</filter>
<linearGradient id="paint0_linear" x1="242.853" y1="38.8383" x2="-68.376" y2="286.183" gradientUnits="userSpaceOnUse">
<stop stop-color="#FF2264"/>
<stop offset="0.842871" stop-color="#9227AF"/>
</linearGradient>
</defs>
</svg>
