<svg width="462" height="498" viewBox="0 0 462 498" fill="none" xmlns="http://www.w3.org/2000/svg">
<path d="M0 0H462V498H0V0Z" fill="url(#paint0_linear)"/>
<path opacity="0.5" d="M70.1947 251.166L74.9711 246.595L73.3145 240.143L66.9761 238.349L62.1997 242.921L63.8563 249.373L70.1947 251.166ZM67.6312 240.767L71.4894 241.859L72.4825 245.712L69.6175 248.473L65.7594 247.381L64.7704 243.619L67.6312 240.767Z" fill="white"/>
<path opacity="0.5" d="M389.252 279L394 274.636L392.705 268.091L386.748 266L382 270.364L383.295 276.909L389.252 279ZM387.266 268.455L390.892 269.727L391.669 273.636L388.82 276.273L385.194 275L384.417 271.182L387.266 268.455Z" fill="white"/>
<path opacity="0.5" d="M86.6398 370L83 372.731L85.7315 376.371L89.3713 373.64L86.6398 370Z" fill="white"/>
<path opacity="0.5" d="M416 299.933L417.933 305.508L423.508 303.575L421.575 298L416 299.933Z" fill="white"/>
<path opacity="0.5" d="M77.3238 107L72 109.544L74.5445 114.868L79.8683 112.324L77.3238 107Z" fill="white"/>
<path opacity="0.2" d="M381.735 381.375L370.598 386.088L375.311 397.225L386.448 392.512L381.735 381.375Z" fill="white"/>
<path opacity="0.5" d="M27.5451 283L23 291.775L31.775 296.32L36.3201 287.545L27.5451 283Z" fill="white"/>
<path opacity="0.2" d="M424.548 66.0001L421 73.6956L428.696 77.2432L432.243 69.5477L424.548 66.0001Z" fill="white"/>
<path opacity="0.2" d="M53.977 57.0001L50 64.6782L57.6782 68.6552L61.6552 60.9771L53.977 57.0001Z" fill="white"/>
<g filter="url(#filter0_d)">
<path d="M151.927 158.32C140.151 158.32 130.807 163.952 130.807 173.36C130.807 183.152 136.951 187.824 148.279 189.936C157.559 191.664 161.079 193.328 161.079 197.488C161.079 200.88 157.559 203.248 152.823 203.248C146.167 203.248 141.815 199.92 141.175 194.928H129.207C129.719 206.064 139.127 213.04 151.991 213.04C163.639 213.04 173.047 206.96 173.047 196.976C173.047 189.168 168.951 183.216 156.919 180.72C146.743 178.608 142.711 177.264 142.711 173.36C142.711 170.224 145.719 168.048 151.159 168.048C156.727 168.048 160.119 170.8 160.823 175.344H172.855C172.279 165.424 163.575 158.32 151.927 158.32ZM205.745 213.04C221.937 213.04 233.905 201.456 233.905 185.648C233.905 169.84 221.937 158.256 205.745 158.256C189.553 158.256 177.585 169.84 177.585 185.648C177.585 201.456 189.553 213.04 205.745 213.04ZM205.745 202.544C196.273 202.544 189.233 195.44 189.233 185.648C189.233 175.792 196.273 168.752 205.745 168.752C215.217 168.752 222.257 175.792 222.257 185.648C222.257 195.44 215.217 202.544 205.745 202.544ZM240.827 159.6V211.76H278.523V201.456H252.475V159.6H240.827ZM284.389 211.76H304.613C321.893 211.76 332.581 201.136 332.581 185.712C332.581 170.288 321.893 159.6 304.613 159.6H284.389V211.76ZM296.037 201.456V169.904H304.805C314.789 169.904 320.933 175.664 320.933 185.712C320.933 195.76 314.789 201.456 304.805 201.456H296.037ZM178.714 283.04C194.906 283.04 206.874 271.456 206.874 255.648C206.874 239.84 194.906 228.256 178.714 228.256C162.522 228.256 150.554 239.84 150.554 255.648C150.554 271.456 162.522 283.04 178.714 283.04ZM178.714 272.544C169.242 272.544 162.202 265.44 162.202 255.648C162.202 245.792 169.242 238.752 178.714 238.752C188.186 238.752 195.226 245.792 195.226 255.648C195.226 265.44 188.186 272.544 178.714 272.544ZM213.156 258.656C213.156 273.44 222.692 283.04 237.028 283.04C251.364 283.04 260.9 273.44 260.9 258.656V229.6H249.252V258.656C249.252 266.976 244.644 272.544 237.028 272.544C229.412 272.544 224.804 266.976 224.804 258.656V229.6H213.156V258.656ZM312.107 229.6H266.539V239.904H283.499V281.76H295.147V239.904H312.107V229.6Z" fill="white"/>
</g>
<path d="M207.898 329.306V325.5H204.18V339.404H207.898V332.914H210.098V329.306H207.898ZM203.3 336.038V333.046C202.75 333.266 202.002 333.442 201.144 333.53V328.778H202.706V325.72H190.408V328.778H191.97V333.662H190.276V336.698H198.526C200.308 336.698 202.332 336.456 203.3 336.038ZM195.512 328.778H197.602V333.662H195.512V328.778ZM195.094 337.798H191.31V344.288H208.162V340.944H195.094V337.798ZM226.64 325.5V332.408H225.078V325.588H221.646V343.958H225.078V335.928H226.64V344.288H230.116V325.5H226.64ZM211.746 343.408H220.282V325.94H211.746V343.408ZM215.2 329.306H216.85V340.042H215.2V329.306ZM247.824 325.5V344.288H251.278V325.5H247.824ZM243.16 329.196H241.07C240.366 326.776 239.024 325.72 237.132 325.72C234.162 325.72 232.578 328.272 232.578 334.674C232.578 341.098 234.162 343.628 237.132 343.628C239.156 343.628 240.542 342.44 241.224 339.646H243.16V343.958H246.548V325.588H243.16V329.196ZM237.132 340.284C236.296 340.284 235.988 338.568 235.988 334.674C235.988 330.78 236.296 329.064 237.132 329.064C237.968 329.064 238.276 330.78 238.276 334.674C238.276 338.568 237.968 340.284 237.132 340.284ZM241.664 336.192C241.686 335.708 241.686 335.202 241.686 334.674C241.686 333.948 241.664 333.266 241.62 332.65H243.16V336.192H241.664ZM260.472 332.716L265.224 335.554L267.006 332.826L261.99 329.966C262.122 329.57 262.188 329.196 262.232 328.8H265.774V331.572H268.282V336.016H272V325.5H268.282V328.404H266.302V325.72H254.334V328.8H258.47C258.096 330.582 256.49 332.364 254.07 332.496V335.752C256.754 335.686 258.998 334.432 260.472 332.716ZM263.596 336.28C258.8 336.28 255.016 337.336 255.016 340.394C255.016 343.452 258.8 344.508 263.596 344.508C268.392 344.508 272.176 343.452 272.176 340.394C272.176 337.336 268.392 336.28 263.596 336.28ZM263.596 341.582C261.066 341.582 259.02 341.252 259.02 340.394C259.02 339.558 261.066 339.206 263.596 339.206C266.126 339.206 268.172 339.558 268.172 340.394C268.172 341.252 266.126 341.582 263.596 341.582Z" fill="#3EE0D0"/>
<path d="M202.966 59.65H200.806V56.5H199.024V64.852H200.806V61.36H202.966V59.65ZM196.144 58.552V56.878H187.288V58.39H194.344V58.858C194.344 61.612 191.626 62.854 187.288 62.872V64.42C192.616 64.42 196.144 62.746 196.144 58.552ZM187.954 71.674H200.806V65.698H187.954V71.674ZM189.736 67.21H199.024V70.162H189.736V67.21ZM220.281 62.728H218.121V56.5H216.339V71.872H218.121V64.438H220.281V62.728ZM210.849 56.95L209.031 56.878C209.013 63.34 207.411 68.668 204.333 69.154V70.954C206.727 70.774 208.581 68.776 209.679 65.428L213.639 70.918L215.079 69.892L210.237 63.34C210.633 61.486 210.831 59.344 210.849 56.95ZM231.907 57.778H227.587V56.23H225.787V57.778H221.467V59.146H231.907V57.778ZM237.595 59.722H235.435V56.5H233.653V65.14H235.435V61.378H237.595V59.722ZM226.687 65.338C229.225 65.338 231.187 64.33 231.187 62.638C231.187 60.964 229.225 59.938 226.687 59.938C224.131 59.938 222.169 60.964 222.169 62.638C222.169 64.33 224.131 65.338 226.687 65.338ZM226.687 61.234C228.397 61.234 229.495 61.846 229.495 62.638C229.495 63.43 228.397 64.042 226.687 64.042C224.959 64.042 223.879 63.43 223.879 62.638C223.879 61.846 224.959 61.234 226.687 61.234ZM233.707 67.354H224.311V65.968H222.583V71.674H235.435V65.968H233.707V67.354ZM224.311 70.27V68.722H233.707V70.27H224.311ZM251.4 71.89L253.182 71.872V56.5H251.4V71.89ZM239.718 70.954H246C247.476 70.954 249.042 70.666 249.978 70.198V68.56C249.042 69.01 247.458 69.316 246 69.316H241.536V56.968H239.718V70.954ZM272.224 62.728H270.064V56.5H268.282V71.872H270.064V64.438H272.224V62.728ZM258.688 69.334V58.678H265.744V57.058H256.87V70.954H262.882C264.358 70.954 266.014 70.684 266.95 70.216V68.596C266.014 69.046 264.43 69.334 262.972 69.334H258.688ZM274.797 71.728C275.517 71.728 276.057 71.17 276.057 70.45C276.057 69.73 275.517 69.172 274.797 69.172C274.077 69.172 273.519 69.73 273.519 70.45C273.519 71.17 274.077 71.728 274.797 71.728ZM141.976 93.494H143.866V79.076H138.988V80.732H141.976V93.494ZM159.87 86.024H161.652V78.5H159.87V86.024ZM152.364 85.826C155.208 85.826 157.116 84.332 157.116 82.244C157.116 80.156 155.208 78.662 152.364 78.662C149.52 78.662 147.594 80.156 147.594 82.244C147.594 84.332 149.52 85.826 152.364 85.826ZM152.364 84.386C150.6 84.386 149.358 83.54 149.358 82.244C149.358 80.948 150.6 80.102 152.364 80.102C154.128 80.102 155.352 80.948 155.352 82.244C155.352 83.54 154.128 84.386 152.364 84.386ZM148.818 93.674H162.03V92.27H150.582V90.938H161.652V86.87H148.782V88.274H159.888V89.606H148.818V93.674ZM170.224 79.076V93.494H176.65C179.89 93.494 181.78 91.91 181.78 89.426C181.78 87.644 180.502 86.366 178.864 86.042C180.16 85.736 181.096 84.422 181.096 83.072C181.096 80.606 179.296 79.076 176.11 79.076H170.224ZM176.056 85.43H172.114V80.714H176.056C178.054 80.714 179.188 81.542 179.188 83.072C179.188 84.602 178.054 85.43 176.056 85.43ZM176.596 91.856H172.114V86.996H176.596C178.612 86.996 179.872 87.842 179.872 89.426C179.872 91.01 178.612 91.856 176.596 91.856ZM200.196 79.076L196.776 90.668L193.356 79.076H191.34L187.938 90.632L184.518 79.076H182.556L186.93 93.494H188.838L192.33 81.992L195.804 93.494H197.712L202.104 79.076H200.196ZM204.097 79.076V93.494H205.987V89.084H209.209C212.953 89.084 215.149 87.086 215.149 84.08C215.149 81.074 212.953 79.076 209.209 79.076H204.097ZM209.065 87.374H205.987V80.786H209.065C211.675 80.786 213.259 81.938 213.259 84.08C213.259 86.222 211.675 87.374 209.065 87.374ZM217.245 79.076V93.494H219.135V82.856L223.779 91.064H225.147L229.791 82.856V93.494H231.681V79.076H230.025L224.463 88.868L218.901 79.076H217.245ZM253.154 82.208V78.5H251.372V89.912H253.154V83.918H255.314V82.208H253.154ZM250.238 86.69V85.196C249.608 85.466 248.762 85.664 247.7 85.772V80.39H249.572V78.878H239.312V80.39H241.184V85.88H239.258V87.392H245.198C247.43 87.392 249.284 87.104 250.238 86.69ZM242.912 80.39H245.972V85.88H245.414H242.912V80.39ZM242.102 88.76H240.302V93.674H253.568V92.054H242.102V88.76ZM269.64 78.5V84.692H267.138V78.59H265.446V93.602H267.138V86.384H269.64V93.872H271.332V78.5H269.64ZM257.022 92.954H263.61V79.058H257.022V92.954ZM258.714 80.678H261.936V91.334H258.714V80.678ZM281.375 82.856L287.999 86.636L288.827 85.142L282.239 81.488C282.671 80.624 282.995 79.67 283.175 78.68L281.339 78.392C280.673 82.028 277.541 84.98 274.229 84.962V86.654C277.037 86.636 279.665 85.178 281.375 82.856ZM289.223 88.274H273.869V89.93H280.619V94.232H282.437V89.93H289.223V88.274ZM307.257 81.74V80.228H305.097V78.5H303.315V87.662H305.097V85.178H307.257V83.666H305.097V81.74H307.257ZM291.723 82.19V86.96H297.249C299.427 86.96 301.263 86.69 302.199 86.276V84.818C301.209 85.25 299.445 85.502 297.357 85.502H293.487V83.612H300.651V78.878H291.687V80.336H298.887V82.19H291.723ZM298.743 88.148C295.071 88.148 292.155 88.868 292.155 91.01C292.155 93.134 295.071 93.872 298.743 93.872C302.433 93.872 305.331 93.134 305.331 91.01C305.331 88.868 302.433 88.148 298.743 88.148ZM298.743 92.45C296.115 92.45 294.045 92.054 294.045 91.01C294.045 89.966 296.115 89.57 298.743 89.57C301.371 89.57 303.441 89.966 303.441 91.01C303.441 92.054 301.371 92.45 298.743 92.45ZM321.062 93.872H322.862V78.5H321.062V93.872ZM313.808 93.152C316.526 93.152 318.452 90.884 318.452 86.006C318.452 81.128 316.526 78.86 313.808 78.86C311.072 78.86 309.146 81.128 309.146 86.006C309.146 90.884 311.072 93.152 313.808 93.152ZM313.808 91.514C312.17 91.514 310.928 89.912 310.928 86.006C310.928 82.118 312.17 80.498 313.808 80.498C315.41 80.498 316.67 82.118 316.67 86.006C316.67 89.912 315.41 91.514 313.808 91.514ZM158.309 113.46V109.77H164.069V101.058H150.749V109.77H156.491V113.46H149.741V115.134H165.095V113.46H158.309ZM152.531 102.732H162.287V108.114H152.531V102.732ZM181.599 106.728H169.935V102.516H181.419V100.878H168.117V108.366H181.599V106.728ZM182.409 110.166H167.055V111.858H173.805V116.232H175.623V111.858H182.409V110.166ZM202.501 100.5V106.692H199.999V100.59H198.307V115.602H199.999V108.384H202.501V115.872H204.193V100.5H202.501ZM189.883 114.954H196.471V101.058H189.883V114.954ZM191.575 102.678H194.797V113.334H191.575V102.678ZM221.075 100.5H219.293V111.912H221.075V100.5ZM212.309 106.188L216.737 109.464L217.727 108.15L212.957 104.676C213.155 103.992 213.299 103.236 213.317 102.444H217.277V100.896H207.323V102.444H211.535C211.355 105.432 209.717 107.592 207.125 107.952V109.59C209.411 109.356 211.247 108.096 212.309 106.188ZM209.843 114.054V110.778H208.043V115.674H221.489V114.054H209.843ZM236.644 100.5V115.872H238.426V100.5H236.644ZM230.218 113.28V109.356H234.052V107.718H226.708V102.732H233.872V101.094H224.944V109.356H228.436V113.28H224.044V114.954H230.344C232.45 114.954 234.268 114.756 235.366 114.306V112.632C234.268 113.1 232.396 113.28 230.326 113.28H230.218ZM250.952 105.378H254.048V109.05H255.83V100.5H254.048V103.722H250.898C250.466 101.904 248.756 100.68 246.254 100.68C243.338 100.68 241.52 102.336 241.52 104.658C241.52 106.98 243.338 108.636 246.254 108.636C248.864 108.636 250.61 107.322 250.952 105.378ZM243.284 104.658C243.284 103.128 244.49 102.174 246.254 102.174C248.018 102.174 249.224 103.128 249.224 104.658C249.224 106.188 248.018 107.142 246.254 107.142C244.49 107.142 243.284 106.188 243.284 104.658ZM257.108 114.486L253.76 111.948C254.03 111.282 254.21 110.562 254.282 109.77L252.554 109.518C252.392 111.696 251.15 113.514 249.71 113.964L247.28 112.002C247.55 111.318 247.748 110.58 247.82 109.77L246.11 109.518C245.93 111.948 244.4 113.892 242.708 114.054V115.674C244.202 115.566 245.588 114.72 246.542 113.352L249.206 115.674C250.718 115.584 252.104 114.72 253.058 113.316L256.082 115.782L257.108 114.486ZM272.947 106.08L273.541 104.73L267.169 102.21C267.511 101.67 267.763 101.076 267.889 100.446L266.107 100.14C265.513 102.768 262.201 104.478 259.231 104.586V106.062C261.841 106.008 264.523 105.018 266.215 103.362L272.947 106.08ZM258.673 107.268V108.69H274.027V107.268H258.673ZM271.201 111.282H261.499V109.842H259.735V115.692H272.947V109.842H271.201V111.282ZM261.499 114.288V112.668H271.201V114.288H261.499ZM288.551 115.89L290.333 115.872V100.5H288.551V115.89ZM276.869 114.954H283.151C284.627 114.954 286.193 114.666 287.129 114.198V112.56C286.193 113.01 284.609 113.316 283.151 113.316H278.687V100.968H276.869V114.954ZM309.376 106.728H307.216V100.5H305.434V115.872H307.216V108.438H309.376V106.728ZM295.84 113.334V102.678H302.896V101.058H294.022V114.954H300.034C301.51 114.954 303.166 114.684 304.102 114.216V112.596C303.166 113.046 301.582 113.334 300.124 113.334H295.84ZM311.948 115.728C312.668 115.728 313.208 115.17 313.208 114.45C313.208 113.73 312.668 113.172 311.948 113.172C311.228 113.172 310.67 113.73 310.67 114.45C310.67 115.17 311.228 115.728 311.948 115.728Z" fill="white"/>
<g opacity="0.4" filter="url(#filter1_d)">
<path d="M389.762 150.076L394.406 146.027L393.139 139.955L387.313 138.015L382.669 142.063L383.936 148.136L389.762 150.076ZM387.82 140.292L391.366 141.473L392.126 145.1L389.34 147.546L385.793 146.365L385.033 142.822L387.82 140.292Z" fill="white"/>
<path d="M410.989 137.901L406.803 141.039L409.945 145.222L414.131 142.083L410.989 137.901Z" fill="white"/>
<path d="M357.105 120L354.309 125.393L359.707 128.185L362.502 122.793L357.105 120Z" fill="white"/>
<path d="M440.103 177.093L434.699 165.622C434.614 165.369 434.445 165.201 434.192 165.116L427.099 161.658L430.223 151.03C430.392 150.609 430.139 150.102 429.801 149.849C429.379 149.596 428.872 149.596 428.535 149.934L420.597 156.682C420.513 156.766 420.344 156.935 420.344 157.019L416.629 165.454L406.665 170.008L364.952 155.248L332.021 134.92C332.021 134.92 331.936 134.92 331.936 134.836H331.852H331.767H331.683L314.457 132.896C314.204 132.896 314.035 132.896 313.782 133.064L305.676 137.872C305.591 137.957 305.507 138.041 305.422 138.125C305.422 138.125 305.422 138.21 305.338 138.21C305.253 138.294 305.169 138.378 305.169 138.547C305.169 138.631 305.169 138.716 305.169 138.8L305 144.198C305 144.283 305 144.367 305 144.536L308.884 159.634C308.884 159.718 308.969 159.887 309.053 159.971L322.057 179.961C322.141 180.13 322.31 180.214 322.479 180.299L345.7 191.77C345.869 191.854 345.953 191.854 346.122 191.854L369.681 193.119C369.681 193.119 369.681 193.119 369.765 193.119C369.849 193.119 369.934 193.119 370.103 193.035L370.609 192.866L378.124 202.566C378.209 202.651 378.293 202.735 378.378 202.735L379.898 203.831C380.067 204 380.32 204 380.489 204C380.742 204 380.995 203.916 381.249 203.663L383.951 200.964C384.12 200.795 384.289 200.542 384.289 200.204L384.457 188.986L405.567 182.407C405.567 182.407 405.567 182.407 405.652 182.407C405.736 182.407 405.736 182.407 405.821 182.323L416.46 175.828L425.748 179.118C425.833 179.118 425.917 179.202 426.002 179.202L434.868 179.961C435.037 179.961 435.205 179.961 435.29 179.877L439.596 178.359C439.85 178.274 440.103 178.021 440.187 177.768C440.187 177.684 440.187 177.347 440.103 177.093ZM422.202 158.115L427.268 153.814L424.988 161.489L419.5 164.104L422.202 158.115ZM363.854 181.058L398.643 182.407L371.2 190.505L363.854 181.058ZM362.841 178.865L355.748 168.659L385.808 170.683L401.176 180.299L362.841 178.865ZM354.144 166.466L351.61 162.839L364.445 157.356L382.009 168.321L354.144 166.466ZM351.442 166.297L344.518 165.791L349.584 163.598L351.442 166.297ZM373.143 160.393L399.065 169.502L386.399 168.659L373.143 160.393ZM350.344 161.068L335.229 139.39L362.165 156.007L350.344 161.068ZM331.345 137.45L348.402 161.911L340.042 165.454L333.118 154.91L324.674 143.692L331.345 137.45ZM353.046 168.49L359.632 177.937L351.273 173.298L342.829 167.815L353.046 168.49ZM405.061 180.299L390.199 171.02L406.496 172.117L413.758 174.985L405.061 180.299ZM415.278 173.382L409.367 171.02L416.038 167.984L415.278 173.382ZM314.626 135.004L329.15 136.607L323.07 142.343L313.866 137.029C313.697 136.944 313.444 136.86 313.191 136.86L311.08 137.113L314.626 135.004ZM346.375 189.745L323.577 178.527L310.911 158.875L307.111 144.114L307.28 139.643L312.937 138.969L322.817 144.704L331.43 156.175L339.113 167.9C339.198 167.984 339.282 168.153 339.451 168.237L350.259 175.238L361.574 181.479L369.005 191.095L346.375 189.745ZM380.235 201.723L379.56 201.217L372.636 192.276L382.178 189.408L382.009 199.867L380.235 201.723ZM434.699 178.021L426.17 177.346L417.304 174.141L418.402 166.972L425.917 163.429L433.01 166.888L437.739 176.925L434.699 178.021Z" fill="white"/>
</g>
<defs>
<filter id="filter0_d" x="125.207" y="158.256" width="211.374" height="132.784" filterUnits="userSpaceOnUse" color-interpolation-filters="sRGB">
<feFlood flood-opacity="0" result="BackgroundImageFix"/>
<feColorMatrix in="SourceAlpha" type="matrix" values="0 0 0 0 0 0 0 0 0 0 0 0 0 0 0 0 0 0 127 0"/>
<feOffset dy="4"/>
<feGaussianBlur stdDeviation="2"/>
<feColorMatrix type="matrix" values="0 0 0 0 0 0 0 0 0 0 0 0 0 0 0 0 0 0 0.25 0"/>
<feBlend mode="normal" in2="BackgroundImageFix" result="effect1_dropShadow"/>
<feBlend mode="normal" in="SourceGraphic" in2="effect1_dropShadow" result="shape"/>
</filter>
<filter id="filter1_d" x="301" y="120" width="143.187" height="92" filterUnits="userSpaceOnUse" color-interpolation-filters="sRGB">
<feFlood flood-opacity="0" result="BackgroundImageFix"/>
<feColorMatrix in="SourceAlpha" type="matrix" values="0 0 0 0 0 0 0 0 0 0 0 0 0 0 0 0 0 0 127 0"/>
<feOffset dy="4"/>
<feGaussianBlur stdDeviation="2"/>
<feColorMatrix type="matrix" values="0 0 0 0 0 0 0 0 0 0 0 0 0 0 0 0 0 0 0.25 0"/>
<feBlend mode="normal" in2="BackgroundImageFix" result="effect1_dropShadow"/>
<feBlend mode="normal" in="SourceGraphic" in2="effect1_dropShadow" result="shape"/>
</filter>
<linearGradient id="paint0_linear" x1="359.609" y1="38.9949" x2="42.844" y2="410.273" gradientUnits="userSpaceOnUse">
<stop stop-color="#FF2264"/>
<stop offset="0.842871" stop-color="#9227AF"/>
</linearGradient>
</defs>
</svg>
