<svg width="340" height="496" viewBox="0 0 340 496" fill="none" xmlns="http://www.w3.org/2000/svg">
<path d="M0 0H340V496H0V0Z" fill="url(#paint0_linear)"/>
<path opacity="0.5" d="M318.862 133.026L322.862 129.198L321.475 123.795L316.167 122.293L312.167 126.121L313.554 131.524L318.862 133.026ZM316.716 124.317L319.946 125.232L320.778 128.458L318.379 130.77L315.148 129.856L314.32 126.705L316.716 124.317Z" fill="white"/>
<path opacity="0.5" d="M37.0479 301L34 303.287L36.2873 306.335L39.3352 304.048L37.0479 301Z" fill="white"/>
<path opacity="0.5" d="M295 288.619L296.619 293.287L301.287 291.668L299.669 287L295 288.619Z" fill="white"/>
<path opacity="0.5" d="M54.4581 61.0001L50 63.1309L52.1307 67.5889L56.5888 65.4582L54.4581 61.0001Z" fill="white"/>
<path opacity="0.2" d="M319.326 307L310 310.946L313.947 320.273L323.273 316.326L319.326 307Z" fill="white"/>
<path opacity="0.5" d="M50.806 273L47 280.348L54.3481 284.154L58.1541 276.806L50.806 273Z" fill="white"/>
<path opacity="0.2" d="M31.3303 39.0001L28 45.4297L34.4296 48.76L37.7599 42.3304L31.3303 39.0001Z" fill="white"/>
<g filter="url(#filter0_d)">
<path d="M93.6383 160.64H44.7423V189.12H93.6383V160.64ZM82.9503 179.264H55.4303V170.56H82.9503V179.264ZM96.8383 193.664H41.5423V203.648H63.6223V215.936H74.7583V203.648H96.8383V193.664ZM146.625 203.008V196.48H156.033V187.072H116.865V183.36H155.393V161.28H106.049V170.688H144.705V174.4H106.177V196.48H114.881V203.008H103.105V212.736H158.401V203.008H146.625ZM125.697 196.48H135.809V203.008H125.697V196.48ZM240.333 179.968H233.933V160H223.117V214.656H233.933V190.464H240.333V179.968ZM208.269 161.472L197.261 161.088C197.197 183.936 191.373 199.936 182.605 200.96V212.096C190.925 212.032 197.773 206.336 202.253 196.096L213.133 212.032L221.965 205.824L206.157 183.552C207.501 177.152 208.269 169.728 208.269 161.472ZM289.287 183.872V178.816C293.959 177.024 296.775 174.208 296.775 170.176C296.775 162.304 286.215 159.104 271.815 159.104C257.415 159.104 246.855 162.304 246.855 170.176C246.855 174.208 249.671 177.024 254.343 178.816V183.872H244.167V192.064H299.463V183.872H289.287ZM271.815 167.168C280.007 167.168 285.255 168.128 285.255 170.176C285.255 172.288 280.007 173.184 271.815 173.184C263.623 173.184 258.375 172.288 258.375 170.176C258.375 168.128 263.623 167.168 271.815 167.168ZM265.031 180.992C267.143 181.184 269.447 181.248 271.815 181.248C274.183 181.248 276.487 181.184 278.599 180.992V183.872H265.031V180.992ZM271.815 193.92C257.095 193.92 246.855 196.736 246.855 204.608C246.855 212.48 257.095 215.296 271.815 215.296C286.535 215.296 296.775 212.48 296.775 204.608C296.775 196.736 286.535 193.92 271.815 193.92ZM271.815 207.232C263.879 207.232 258.375 206.592 258.375 204.608C258.375 202.688 263.879 201.984 271.815 201.984C279.751 201.984 285.255 202.688 285.255 204.608C285.255 206.592 279.751 207.232 271.815 207.232ZM134.156 230H123.34V284.656H134.156V230ZM100.108 230.64C89.8043 230.64 82.8923 238.704 82.8923 256.688C82.8923 274.672 89.8043 282.736 100.108 282.736C110.412 282.736 117.26 274.672 117.26 256.688C117.26 238.704 110.412 230.64 100.108 230.64ZM100.108 240.56C103.692 240.56 106.572 244.464 106.572 256.688C106.572 268.976 103.692 272.816 100.108 272.816C96.4603 272.816 93.5803 268.976 93.5803 256.688C93.5803 244.464 96.4603 240.56 100.108 240.56ZM197.255 230H187.143V270.512H197.255V230ZM168.903 251.824H173.383V269.552H183.367V230.256H173.383V241.712H168.903V230.64H159.175V238.512H153.543V230.64H143.815V263.408H168.903V251.824ZM153.543 254.832V246.896H159.175V254.832H153.543ZM157.959 274.928V267.12H146.951V284.656H197.895V274.928H157.959ZM257.345 258.288H218.177V254H255.809V245.04H218.177V240.752H256.705V231.28H207.489V267.76H257.345V258.288ZM204.417 272.816V282.736H259.713V272.816H204.417Z" fill="white"/>
</g>
<path d="M120.931 73.872H122.731V58.5H120.931V73.872ZM113.677 73.152C116.395 73.152 118.321 70.884 118.321 66.006C118.321 61.128 116.395 58.86 113.677 58.86C110.941 58.86 109.015 61.128 109.015 66.006C109.015 70.884 110.941 73.152 113.677 73.152ZM113.677 71.514C112.039 71.514 110.797 69.912 110.797 66.006C110.797 62.118 112.039 60.498 113.677 60.498C115.279 60.498 116.539 62.118 116.539 66.006C116.539 69.912 115.279 71.514 113.677 71.514ZM140.459 58.5H138.767V70.038H140.459V58.5ZM132.809 63.936H135.059V69.768H136.733V58.59H135.059V62.28H132.809V58.77H131.171V61.668H127.805V58.77H126.149V67.662H132.809V63.936ZM127.805 66.204V63.108H131.171V66.204H127.805ZM128.939 72.054V69.066H127.121V73.674H140.837V72.054H128.939ZM157.576 67.284H145.804V64.746H157.144V63.18H145.804V60.66H157.342V59.058H144.022V68.886H157.576V67.284ZM142.996 71.496V73.134H158.35V71.496H142.996ZM177.919 73.872H179.701V58.5H177.919V73.872ZM166.075 72.918C171.331 72.918 174.607 68.922 174.607 62.766V59.058H166.075V60.696H172.789V62.802C172.789 67.95 170.269 71.208 166.075 71.226V72.918ZM196.584 62.154V58.5H194.802V69.912H196.584V63.864H198.744V62.154H196.584ZM191.922 60.966V58.878H183.066V60.444H190.122V61.182C190.122 64.242 187.368 65.88 183.066 65.898V67.5C188.34 67.5 191.922 65.34 191.922 60.966ZM185.532 68.832H183.732V73.674H196.998V72.054H185.532V68.832ZM208.534 65.574V63.99H214.42V62.55H202.864V60.12H214.24V58.68H201.082V63.99H206.77V65.574H199.984V67.014H215.338V65.574H208.534ZM207.652 68.292C203.98 68.292 200.884 68.994 200.884 71.1C200.884 73.206 203.98 73.926 207.652 73.926C211.324 73.926 214.42 73.206 214.42 71.1C214.42 68.994 211.324 68.292 207.652 68.292ZM207.652 72.522C205.15 72.522 202.756 72.162 202.756 71.1C202.756 70.056 205.15 69.696 207.652 69.696C210.154 69.696 212.548 70.056 212.548 71.1C212.548 72.162 210.154 72.522 207.652 72.522ZM231.213 62.154V58.5H229.431V69.912H231.213V63.864H233.373V62.154H231.213ZM226.875 63.126C226.875 60.552 225.057 58.662 222.087 58.662C219.117 58.662 217.281 60.552 217.281 63.126C217.281 65.7 219.117 67.59 222.087 67.59C225.057 67.59 226.875 65.7 226.875 63.126ZM219.063 63.126C219.063 61.308 220.269 60.156 222.087 60.156C223.887 60.156 225.093 61.308 225.093 63.126C225.093 64.944 223.887 66.078 222.087 66.078C220.269 66.078 219.063 64.944 219.063 63.126ZM220.359 68.652H218.541V73.674H231.627V72.054H220.359V68.652ZM85.4896 80.95H72.2776V88.402H85.4896V80.95ZM83.7076 86.764H74.0596V82.606H83.7076V86.764ZM86.5696 90.256H71.2156V91.948H77.9656V96.232H79.8016V91.948H86.5696V90.256ZM100.05 93.514V90.526H103.11V88.942H91.338V86.548H102.876V81.058H89.556V82.642H101.112V85.018H89.556V90.526H92.364V93.514H88.53V95.134H103.884V93.514H100.05ZM94.146 90.526H98.268V93.514H94.146V90.526ZM114.394 93.496V90.598H120.424V89.014H108.652V86.584H120.19V81.058H106.87V82.642H118.426V85.054H106.87V90.598H112.576V93.496H105.844V95.134H121.198V93.496H114.394ZM142.748 88.492H140.03V82.804H142.586V81.148H129.158V82.804H131.714V88.492H128.996V90.13H142.748V88.492ZM133.514 82.804H138.23V88.492H133.514V82.804ZM128.204 93.442V95.134H143.558V93.442H128.204ZM158.082 95.872H159.864V80.5H158.082V95.872ZM146.4 94.954H152.628C154.122 94.954 155.724 94.684 156.66 94.216V92.578C155.724 93.028 154.14 93.316 152.682 93.316H148.182V88.708H155.058V81.058H146.364V82.696H153.276V87.07H146.4V94.954ZM175.397 95.872H177.179V80.5H175.397V95.872ZM163.715 94.954H172.427V81.058H163.715V94.954ZM165.497 93.28V82.732H170.645V93.28H165.497ZM192.837 80.5V83.668H189.687C189.273 81.886 187.563 80.68 185.043 80.68C182.127 80.68 180.309 82.3 180.309 84.568C180.309 86.836 182.127 88.456 185.043 88.456C187.617 88.456 189.363 87.196 189.723 85.324H192.837V88.852H194.619V80.5H192.837ZM185.043 86.962C183.279 86.962 182.073 86.062 182.073 84.568C182.073 83.074 183.279 82.174 185.043 82.174C186.807 82.174 188.013 83.074 188.013 84.568C188.013 86.062 186.807 86.962 185.043 86.962ZM181.713 95.674H194.619V89.698H181.713V95.674ZM183.495 91.21H192.837V94.162H183.495V91.21ZM215.197 80.5V86.062H211.237V87.736H215.197V95.872H216.979V80.5H215.197ZM208.933 80.95L207.115 80.878C207.097 87.34 205.585 92.65 202.633 93.136V94.954C205.063 94.756 206.917 92.578 207.961 88.942L211.795 94.99L213.289 94.018L208.483 86.674C208.771 84.964 208.933 83.056 208.933 80.95ZM232.385 80.5V95.872H234.167V80.5H232.385ZM227.651 86.242H222.467V80.95H220.703V94.954H229.415V80.95H227.651V86.242ZM222.467 93.316V87.88H227.651V93.316H222.467ZM244.606 85.666L251.176 90.22L252.148 88.798L245.38 84.244C245.884 83.218 246.244 82.084 246.46 80.896L244.624 80.572C243.832 84.874 240.772 88.474 237.442 88.474V90.166C240.268 90.166 242.878 88.384 244.606 85.666ZM237.136 93.46V95.134H252.49V93.46H237.136ZM255.566 86.458H268.922V85.198H257.294V84.172H268.706V80.68H255.566V81.94H266.978V82.984H255.566V86.458ZM254.45 88.87H269.804V87.574H254.45V88.87ZM255.512 95.692H269.012V94.432H257.24V93.424H268.742V89.986H255.476V91.246H267.014V92.236H255.512V95.692ZM110.95 108.728H108.79V102.5H107.008V117.872H108.79V110.438H110.95V108.728ZM101.518 102.95L99.6997 102.878C99.6817 109.34 98.0797 114.668 95.0017 115.154V116.954C97.3957 116.774 99.2497 114.776 100.348 111.428L104.308 116.918L105.748 115.892L100.906 109.34C101.302 107.486 101.5 105.344 101.518 102.95ZM124.16 109.7V107.774C125.672 107.324 126.644 106.532 126.644 105.344C126.644 103.256 123.584 102.41 119.858 102.41C116.132 102.41 113.072 103.256 113.072 105.344C113.072 106.532 114.044 107.324 115.556 107.774V109.7H112.19V111.14H127.544V109.7H124.16ZM114.962 105.344C114.962 104.282 117.176 103.814 119.858 103.814C122.54 103.814 124.754 104.282 124.754 105.344C124.754 106.424 122.54 106.892 119.858 106.892C117.176 106.892 114.962 106.424 114.962 105.344ZM117.32 108.152C118.112 108.242 118.958 108.296 119.858 108.296C120.758 108.296 121.604 108.242 122.396 108.152V109.7H117.32V108.152ZM119.858 112.328C116.186 112.328 113.108 112.994 113.108 115.1C113.108 117.206 116.186 117.908 119.858 117.908C123.53 117.908 126.608 117.206 126.608 115.1C126.608 112.994 123.53 112.328 119.858 112.328ZM119.858 116.504C117.374 116.504 114.998 116.162 114.998 115.1C114.998 114.056 117.374 113.732 119.858 113.732C122.342 113.732 124.736 114.056 124.736 115.1C124.736 116.162 122.342 116.504 119.858 116.504ZM139.891 103.616H135.571V102.23H133.771V103.616H129.451V104.948H139.891V103.616ZM143.419 105.704V102.5H141.637V110.528H143.419V107.234H145.579V105.704H143.419ZM134.671 110.474C137.191 110.474 139.171 109.646 139.171 108.098C139.171 106.55 137.191 105.722 134.671 105.722C132.133 105.722 130.153 106.55 130.153 108.098C130.153 109.646 132.133 110.474 134.671 110.474ZM134.671 106.982C136.381 106.982 137.479 107.432 137.479 108.098C137.479 108.764 136.381 109.214 134.671 109.214C132.943 109.214 131.863 108.764 131.863 108.098C131.863 107.432 132.943 106.982 134.671 106.982ZM132.331 115.136H143.419V111.356H130.549V112.67H141.673V113.876H130.585V117.674H143.797V116.36H132.331V115.136ZM159.37 106.856L165.994 110.636L166.822 109.142L160.234 105.488C160.666 104.624 160.99 103.67 161.17 102.68L159.334 102.392C158.668 106.028 155.536 108.98 152.224 108.962V110.654C155.032 110.636 157.66 109.178 159.37 106.856ZM167.218 112.274H151.864V113.93H158.614V118.232H160.432V113.93H167.218V112.274ZM188.569 102.5H186.787V111.05H188.569V102.5ZM184.069 106.658C184.069 104.3 182.197 102.662 179.263 102.662C176.311 102.662 174.439 104.3 174.439 106.658C174.439 109.034 176.311 110.654 179.263 110.654C182.197 110.654 184.069 109.034 184.069 106.658ZM176.221 106.658C176.221 105.074 177.463 104.138 179.263 104.138C181.045 104.138 182.287 105.074 182.287 106.658C182.287 108.242 181.045 109.178 179.263 109.178C177.463 109.178 176.221 108.242 176.221 106.658ZM189.811 116.486L186.499 113.912C186.751 113.246 186.913 112.544 186.985 111.77L185.257 111.518C185.095 113.678 183.889 115.514 182.449 115.964L180.091 114.02C180.379 113.336 180.577 112.58 180.667 111.752L178.939 111.518C178.741 113.894 177.247 115.892 175.555 116.054V117.674C177.031 117.566 178.399 116.72 179.353 115.37L181.963 117.674C183.475 117.584 184.861 116.702 185.797 115.28L188.749 117.746L189.811 116.486ZM205.812 108.08L206.406 106.73L200.034 104.21C200.376 103.67 200.628 103.076 200.754 102.446L198.972 102.14C198.378 104.768 195.066 106.478 192.096 106.586V108.062C194.706 108.008 197.388 107.018 199.08 105.362L205.812 108.08ZM191.538 109.268V110.69H206.892V109.268H191.538ZM204.066 113.282H194.364V111.842H192.6V117.692H205.812V111.842H204.066V113.282ZM194.364 116.288V114.668H204.066V116.288H194.364ZM221.416 117.89L223.198 117.872V102.5H221.416V117.89ZM209.734 116.954H216.016C217.492 116.954 219.058 116.666 219.994 116.198V114.56C219.058 115.01 217.474 115.316 216.016 115.316H211.552V102.968H209.734V116.954ZM242.241 108.728H240.081V102.5H238.299V117.872H240.081V110.438H242.241V108.728ZM228.705 115.334V104.678H235.761V103.058H226.887V116.954H232.899C234.375 116.954 236.031 116.684 236.967 116.216V114.596C236.031 115.046 234.447 115.334 232.989 115.334H228.705ZM244.813 117.728C245.533 117.728 246.073 117.17 246.073 116.45C246.073 115.73 245.533 115.172 244.813 115.172C244.093 115.172 243.535 115.73 243.535 116.45C243.535 117.17 244.093 117.728 244.813 117.728Z" fill="white"/>
<path d="M20.3806 384.356C20.3806 383.872 19.9626 383.465 19.4566 383.465C18.9616 383.465 18.5436 383.872 18.5436 384.356C18.5436 384.818 18.9836 385.247 19.4676 385.247C19.9626 385.247 20.3806 384.829 20.3806 384.356ZM23.0536 391.803L23.7356 391.143L20.1056 387.678L23.7026 384.18L23.0756 383.52L19.4786 387.073L15.9146 383.52L15.2876 384.191L18.8846 387.678C17.6856 388.844 16.4646 389.999 15.2656 391.154L15.9366 391.803C17.1136 390.626 18.3126 389.46 19.4896 388.283L23.0536 391.803ZM17.0806 387.689C17.0806 387.194 16.6296 386.787 16.1456 386.787C15.6726 386.787 15.2326 387.194 15.2326 387.689C15.2326 388.151 15.6836 388.569 16.1566 388.569C16.6626 388.569 17.0806 388.14 17.0806 387.689ZM23.9116 387.689C23.9116 387.183 23.4826 386.787 22.9766 386.787C22.5036 386.787 22.0856 387.183 22.0856 387.689C22.0856 388.162 22.5146 388.558 22.9986 388.558C23.4936 388.558 23.9116 388.162 23.9116 387.689ZM20.3806 391.11C20.3806 390.626 19.9626 390.23 19.4566 390.23C18.9616 390.23 18.5546 390.626 18.5546 391.11C18.5546 391.583 18.9836 391.979 19.4676 391.979C19.9846 391.979 20.3806 391.583 20.3806 391.11ZM38.3787 386.468H37.0807V382.75H35.9917V392.144H37.0807V387.513H38.3787V386.468ZM33.1757 389.097H34.2757V383.113H28.8967V384.125H33.1757V389.097ZM31.2947 390.56V386.578H30.1947V390.56H28.5557V391.583H32.1417C33.4287 391.583 34.5397 391.462 35.2107 391.187V390.164C34.5397 390.45 33.3957 390.56 32.1307 390.56H31.2947ZM44.3727 390.681V388.404H48.0137V387.392H40.8637V384.103H47.9037V383.091H39.7527V388.404H43.2617V390.681H39.1367V391.693H48.5197V390.681H44.3727ZM56.0648 383.641H53.4248V382.585H52.3248V383.641H49.6848V384.532H56.0648V383.641ZM58.2208 385.324V382.75H57.1318V389.79H58.2208V386.369H59.5408V385.324H58.2208ZM52.8748 388.91C54.4368 388.91 55.6468 388.217 55.6468 386.985C55.6468 385.753 54.4368 385.06 52.8748 385.06C51.3128 385.06 50.0918 385.753 50.0918 386.985C50.0918 388.217 51.3128 388.91 52.8748 388.91ZM52.8748 385.896C53.9308 385.896 54.6018 386.358 54.6018 386.985C54.6018 387.623 53.9308 388.074 52.8748 388.074C51.8188 388.074 51.1478 387.623 51.1478 386.985C51.1478 386.358 51.8188 385.896 52.8748 385.896ZM51.4668 389.449H50.3668V392.023H58.4738V391.055H51.4668V389.449ZM71.1369 382.75V386.149H68.7169V387.172H71.1369V392.144H72.2259V382.75H71.1369ZM67.3089 383.025L66.1979 382.981C66.1869 386.93 65.2629 390.175 63.4589 390.472V391.583C64.9439 391.462 66.0769 390.131 66.7149 387.909L69.0579 391.605L69.9709 391.011L67.0339 386.523C67.2099 385.478 67.3089 384.312 67.3089 383.025ZM81.7069 382.75V386.6H79.6719V383.025H78.5939V386.259H75.5249V383.025H74.4469V391.583H79.6719V387.623H81.7069V392.144H82.8069V382.75H81.7069ZM75.5249 390.582V387.26H78.5939V390.582H75.5249ZM96.537 388.118H89.343V386.567H96.273V385.61H89.343V384.07H96.394V383.091H88.254V389.097H96.537V388.118ZM87.627 390.692V391.693H97.01V390.692H87.627ZM106.205 382.75V386.534H104.676V382.805H103.642V391.979H104.676V387.546H106.205V392.144H107.239V382.75H106.205ZM99.517 390.615V387.744H102.3V383.091H98.494V384.059H101.266V386.776H98.494V391.583H100.221C101.387 391.583 102.344 391.44 102.96 391.165V390.164C102.267 390.472 101.376 390.615 100.243 390.615H99.517ZM116.467 382.75V388.514H117.556V382.75H116.467ZM115.785 387.579V386.644C115.378 386.831 114.839 386.952 114.179 387.018V383.905H115.378V382.981H108.932V383.905H110.12V387.084H108.899V387.997H112.76C114.102 387.997 115.213 387.832 115.785 387.579ZM111.165 383.905H113.134V387.084H112.837H111.165V383.905ZM109.504 389.966H116.456V392.144H117.556V389.031H109.515L109.504 389.966ZM130.956 384.433V382.75H129.867V387.458H130.956V385.434H132.276V384.433H130.956ZM128.272 382.915H127.205V384.081H123.85V382.915H122.783V387.117H128.272V382.915ZM123.85 386.237V384.95H127.205V386.237H123.85ZM124.191 390.395H130.956V387.975H123.091V388.822H129.878V389.592H123.113V392.023H131.187V391.176H124.191V390.395ZM139.436 385.522H141.031V388.239H142.065V382.75H141.031V384.521H139.436V382.805H138.402V387.931H139.436V385.522ZM135.564 385.907L137.423 387.689L138.138 386.974L135.905 384.895C136.048 384.29 136.114 383.619 136.114 382.893L135.069 382.86C135.069 384.939 134.519 386.556 133.034 386.974V387.964C134.255 387.744 135.08 387.007 135.564 385.907ZM138.039 388.426C135.795 388.426 133.87 388.899 133.87 390.285C133.87 391.671 135.795 392.144 138.039 392.144C140.283 392.144 142.208 391.671 142.208 390.285C142.208 388.899 140.283 388.426 138.039 388.426ZM138.039 391.253C136.499 391.253 135.025 391 135.025 390.285C135.025 389.57 136.499 389.317 138.039 389.317C139.579 389.317 141.053 389.57 141.053 390.285C141.053 391 139.579 391.253 138.039 391.253ZM154.376 382.75V392.144H155.465V382.75H154.376ZM150.9 383.025L149.789 382.981C149.778 386.93 148.744 390.186 146.863 390.483V391.583C148.348 391.473 149.492 390.219 150.185 388.151L152.682 391.561L153.562 390.934L150.526 386.886C150.768 385.764 150.889 384.466 150.9 383.025ZM158.731 390.538H157.631L157.279 393.024H158.181L158.731 390.538ZM170.704 392.144H171.804V382.75H170.704V392.144ZM166.271 391.704C167.932 391.704 169.109 390.318 169.109 387.337C169.109 384.356 167.932 382.97 166.271 382.97C164.599 382.97 163.422 384.356 163.422 387.337C163.422 390.318 164.599 391.704 166.271 391.704ZM166.271 390.703C165.27 390.703 164.511 389.724 164.511 387.337C164.511 384.961 165.27 383.971 166.271 383.971C167.25 383.971 168.02 384.961 168.02 387.337C168.02 389.724 167.25 390.703 166.271 390.703ZM182.638 382.75H181.604V389.801H182.638V382.75ZM177.963 386.072H179.338V389.636H180.361V382.805H179.338V385.06H177.963V382.915H176.962V384.686H174.905V382.915H173.893V388.349H177.963V386.072ZM174.905 387.458V385.566H176.962V387.458H174.905ZM175.598 391.033V389.207H174.487V392.023H182.869V391.033H175.598ZM193.098 388.118H185.904V386.567H192.834V385.61H185.904V384.07H192.955V383.091H184.815V389.097H193.098V388.118ZM184.188 390.692V391.693H193.571V390.692H184.188ZM204.593 386.556H203.273V382.75H202.184V392.144H203.273V387.601H204.593V386.556ZM195.111 384.092H199.115V385.379C199.115 388.525 197.663 390.516 195.111 390.527V391.561C198.301 391.561 200.226 389.097 200.226 385.357V383.091H195.111V384.092ZM212.988 386.281L217.08 388.569L217.597 387.689L213.505 385.412C213.692 385.016 213.835 384.576 213.923 384.103H217.289V383.102H208.918V384.103H212.768C212.306 386.138 210.667 387.326 208.709 387.491V388.503C210.447 388.393 212.02 387.612 212.988 386.281ZM213.659 390.67V388.283H212.57V390.67H208.434V391.693H217.817V390.67H213.659ZM226.693 392.144H227.782V382.75H226.693V392.144ZM219.455 391.561C222.667 391.561 224.669 389.119 224.669 385.357V383.091H219.455V384.092H223.558V385.379C223.558 388.525 222.018 390.516 219.455 390.527V391.561ZM241.38 386.369L241.666 385.511L237.816 384.378C237.937 384.18 238.025 383.971 238.069 383.74H241.413V382.86H233.317V383.74H236.958C236.584 384.796 234.758 385.39 233.163 385.434V386.325C234.659 386.292 236.221 385.874 237.189 385.093L241.38 386.369ZM237.904 387.106V385.973H236.826V387.106H232.679V387.986H242.062V387.106H237.904ZM237.365 388.745C235.121 388.745 233.229 389.163 233.229 390.45C233.229 391.737 235.121 392.177 237.365 392.177C239.609 392.177 241.501 391.737 241.501 390.45C241.501 389.163 239.609 388.745 237.365 388.745ZM237.365 391.319C235.836 391.319 234.384 391.099 234.384 390.45C234.384 389.812 235.836 389.603 237.365 389.603C238.894 389.603 240.346 389.812 240.346 390.45C240.346 391.099 238.894 391.319 237.365 391.319ZM250.3 390.703V388.877H252.17V387.909H244.976V386.446H252.027V383.091H243.887V384.059H250.949V385.511H243.887V388.877H245.603V390.703H243.26V391.693H252.643V390.703H250.3ZM246.692 388.877H249.211V390.703H246.692V388.877ZM262.63 382.75H261.541V387.788H262.63V382.75ZM260.76 387.293V386.446C260.111 386.721 258.967 386.82 257.68 386.82H257.636V385.885H259.935V385.071H255.447V383.74H259.825V382.926H254.391V385.885H256.558V386.82H253.841V387.656H257.647C258.989 387.656 260.166 387.557 260.76 387.293ZM255.744 391.209V390.549H262.63V388.294H254.655V389.108H261.563V389.768H254.677V392.023H262.872V391.209H255.744ZM272.092 385.412L276.14 387.722L276.646 386.809L272.62 384.576C272.884 384.048 273.082 383.465 273.192 382.86L272.07 382.684C271.663 384.906 269.749 386.71 267.725 386.699V387.733C269.441 387.722 271.047 386.831 272.092 385.412ZM276.888 388.723H267.505V389.735H271.63V392.364H272.741V389.735H276.888V388.723ZM289.936 382.75H288.847V387.975H289.936V382.75ZM287.186 385.291C287.186 383.85 286.042 382.849 284.249 382.849C282.445 382.849 281.301 383.85 281.301 385.291C281.301 386.743 282.445 387.733 284.249 387.733C286.042 387.733 287.186 386.743 287.186 385.291ZM282.39 385.291C282.39 384.323 283.149 383.751 284.249 383.751C285.338 383.751 286.097 384.323 286.097 385.291C286.097 386.259 285.338 386.831 284.249 386.831C283.149 386.831 282.39 386.259 282.39 385.291ZM290.695 391.297L288.671 389.724C288.825 389.317 288.924 388.888 288.968 388.415L287.912 388.261C287.813 389.581 287.076 390.703 286.196 390.978L284.755 389.79C284.931 389.372 285.052 388.91 285.107 388.404L284.051 388.261C283.93 389.713 283.017 390.934 281.983 391.033V392.023C282.885 391.957 283.721 391.44 284.304 390.615L285.899 392.023C286.823 391.968 287.67 391.429 288.242 390.56L290.046 392.067L290.695 391.297ZM300.473 386.16L300.836 385.335L296.942 383.795C297.151 383.465 297.305 383.102 297.382 382.717L296.293 382.53C295.93 384.136 293.906 385.181 292.091 385.247V386.149C293.686 386.116 295.325 385.511 296.359 384.499L300.473 386.16ZM291.75 386.886V387.755H301.133V386.886H291.75ZM299.406 389.339H293.477V388.459H292.399V392.034H300.473V388.459H299.406V389.339ZM293.477 391.176V390.186H299.406V391.176H293.477ZM310.009 392.155L311.098 392.144V382.75H310.009V392.155ZM302.87 391.583H306.709C307.611 391.583 308.568 391.407 309.14 391.121V390.12C308.568 390.395 307.6 390.582 306.709 390.582H303.981V383.036H302.87V391.583ZM322.735 386.556H321.415V382.75H320.326V392.144H321.415V387.601H322.735V386.556ZM314.463 390.593V384.081H318.775V383.091H313.352V391.583H317.026C317.928 391.583 318.94 391.418 319.512 391.132V390.142C318.94 390.417 317.972 390.593 317.081 390.593H314.463ZM324.307 392.056C324.747 392.056 325.077 391.715 325.077 391.275C325.077 390.835 324.747 390.494 324.307 390.494C323.867 390.494 323.526 390.835 323.526 391.275C323.526 391.715 323.867 392.056 324.307 392.056Z" fill="#B3B7C6"/>
<defs>
<filter id="filter0_d" x="37.542" y="159.104" width="265.921" height="133.552" filterUnits="userSpaceOnUse" color-interpolation-filters="sRGB">
<feFlood flood-opacity="0" result="BackgroundImageFix"/>
<feColorMatrix in="SourceAlpha" type="matrix" values="0 0 0 0 0 0 0 0 0 0 0 0 0 0 0 0 0 0 127 0"/>
<feOffset dy="4"/>
<feGaussianBlur stdDeviation="2"/>
<feColorMatrix type="matrix" values="0 0 0 0 0 0 0 0 0 0 0 0 0 0 0 0 0 0 0.25 0"/>
<feBlend mode="normal" in2="BackgroundImageFix" result="effect1_dropShadow"/>
<feBlend mode="normal" in="SourceGraphic" in2="effect1_dropShadow" result="shape"/>
</filter>
<linearGradient id="paint0_linear" x1="264.647" y1="38.8383" x2="-51.5564" y2="312.689" gradientUnits="userSpaceOnUse">
<stop stop-color="#FF2264"/>
<stop offset="0.842871" stop-color="#9227AF"/>
</linearGradient>
</defs>
</svg>
