<svg width="180" height="112" viewBox="0 0 180 112" fill="none" xmlns="http://www.w3.org/2000/svg">
<path d="M112.859 40.1017L119.043 34.7035L117.356 26.6062L109.599 24.0195L103.415 29.4177L105.101 37.515L112.859 40.1017ZM110.273 27.056L114.995 28.6305L116.007 33.4664L112.297 36.7278L107.575 35.1533L106.563 30.4299L110.273 27.056Z" fill="white"/>
<path d="M141.124 23.8677L135.549 28.0527L139.733 33.6295L145.308 29.4445L141.124 23.8677Z" fill="white"/>
<path d="M69.3767 2.29764e-05L65.6538 7.19043L72.8421 10.9144L76.565 3.72397L69.3767 2.29764e-05Z" fill="white"/>
<mask id="path-4-inside-1" fill="white">
<path d="M179.888 76.1245L172.692 60.8296C172.58 60.4922 172.355 60.2673 172.017 60.1548L162.573 55.5438L166.733 41.3735C166.958 40.8112 166.621 40.1365 166.171 39.7991C165.609 39.4617 164.934 39.4617 164.485 39.9115L153.916 48.9085C153.804 49.021 153.579 49.2459 153.579 49.3584L148.632 60.6046L135.365 66.6776L79.8251 46.9967L35.9775 19.8932C35.9775 19.8932 35.8651 19.8932 35.8651 19.7807H35.7527H35.6402H35.5278L12.5921 17.1941C12.2548 17.1941 12.03 17.1941 11.6927 17.419L0.899438 23.8294C0.787008 23.9418 0.674578 24.0543 0.562149 24.1668C0.562149 24.1668 0.562149 24.2792 0.449719 24.2792C0.337289 24.3917 0.224859 24.5042 0.224859 24.7291C0.224859 24.8415 0.224859 24.954 0.224859 25.0665L0 32.2641C0 32.3765 0 32.489 0 32.7139L5.17177 52.8447C5.17177 52.9572 5.2842 53.1821 5.39663 53.2946L22.7108 79.9482C22.8232 80.1731 23.0481 80.2856 23.273 80.3981L54.1911 95.693C54.416 95.8054 54.5284 95.8054 54.7533 95.8054L86.1212 97.4924C86.1212 97.4924 86.1212 97.4924 86.2336 97.4924C86.346 97.4924 86.4585 97.4924 86.6833 97.3799L87.3579 97.155L97.3641 110.088C97.4766 110.201 97.589 110.313 97.7014 110.313L99.7252 111.775C99.95 112 100.287 112 100.512 112C100.849 112 101.187 111.888 101.524 111.55L105.122 107.951C105.347 107.726 105.572 107.389 105.572 106.939L105.796 91.9817L133.904 83.2096C133.904 83.2096 133.904 83.2096 134.016 83.2096C134.129 83.2096 134.129 83.2096 134.241 83.0972L148.407 74.4375L160.775 78.8236C160.887 78.8236 160.999 78.936 161.112 78.936L172.917 79.9482C173.142 79.9482 173.367 79.9482 173.479 79.8357L179.213 77.8114C179.55 77.699 179.888 77.3616 180 77.0242C180 76.9117 180 76.4619 179.888 76.1245ZM156.052 50.8204L162.798 45.0848L159.763 55.3189L152.455 58.8052L156.052 50.8204ZM78.3635 81.4102L124.685 83.2096L88.1449 94.006L78.3635 81.4102ZM77.0144 78.4862L67.5703 64.8782L107.595 67.5773L128.057 80.3981L77.0144 78.4862ZM65.4341 61.9542L62.0612 57.1183L79.1505 49.8082L102.536 64.4284L65.4341 61.9542ZM61.8363 61.7293L52.6171 61.0545L59.3629 58.1305L61.8363 61.7293ZM90.7308 53.8569L125.247 66.0028L108.382 64.8782L90.7308 53.8569ZM60.3748 54.7566L40.2498 25.8537L76.1149 48.0088L60.3748 54.7566ZM35.0781 23.2671L57.7889 55.8812L46.6583 60.6046L37.4391 46.5468L26.1961 31.5893L35.0781 23.2671ZM63.9725 64.6533L72.742 77.2491L61.6115 71.0637L50.3685 63.7536L63.9725 64.6533ZM133.229 80.3981L113.442 68.0272L135.141 69.4892L144.809 73.3129L133.229 80.3981ZM146.833 71.1761L138.963 68.0272L147.845 63.9785L146.833 71.1761ZM12.817 20.0057L32.1549 22.1424L24.06 29.7899L11.8051 22.7048C11.5803 22.5923 11.243 22.4798 10.9057 22.4798L8.09494 22.8172L12.817 20.0057ZM55.0906 92.9939L24.7345 78.0363L7.87008 51.8326L2.81074 32.1516L3.0356 26.1911L10.5684 25.2914L23.7227 32.9389L35.1905 48.2338L45.4216 63.8661C45.534 63.9785 45.6465 64.2034 45.8713 64.3159L60.2623 73.6503L75.3279 81.9725L85.2217 94.7933L55.0906 92.9939ZM100.175 108.964L99.2755 108.289L90.0562 96.3677L102.761 92.544L102.536 106.489L100.175 108.964ZM172.692 77.3616L161.337 76.4619L149.532 72.1883L150.993 62.629L160.999 57.9055L170.443 62.5165L176.74 75.8995L172.692 77.3616Z"/>
</mask>
<path d="M179.888 76.1245L172.692 60.8296C172.58 60.4922 172.355 60.2673 172.017 60.1548L162.573 55.5438L166.733 41.3735C166.958 40.8112 166.621 40.1365 166.171 39.7991C165.609 39.4617 164.934 39.4617 164.485 39.9115L153.916 48.9085C153.804 49.021 153.579 49.2459 153.579 49.3584L148.632 60.6046L135.365 66.6776L79.8251 46.9967L35.9775 19.8932C35.9775 19.8932 35.8651 19.8932 35.8651 19.7807H35.7527H35.6402H35.5278L12.5921 17.1941C12.2548 17.1941 12.03 17.1941 11.6927 17.419L0.899438 23.8294C0.787008 23.9418 0.674578 24.0543 0.562149 24.1668C0.562149 24.1668 0.562149 24.2792 0.449719 24.2792C0.337289 24.3917 0.224859 24.5042 0.224859 24.7291C0.224859 24.8415 0.224859 24.954 0.224859 25.0665L0 32.2641C0 32.3765 0 32.489 0 32.7139L5.17177 52.8447C5.17177 52.9572 5.2842 53.1821 5.39663 53.2946L22.7108 79.9482C22.8232 80.1731 23.0481 80.2856 23.273 80.3981L54.1911 95.693C54.416 95.8054 54.5284 95.8054 54.7533 95.8054L86.1212 97.4924C86.1212 97.4924 86.1212 97.4924 86.2336 97.4924C86.346 97.4924 86.4585 97.4924 86.6833 97.3799L87.3579 97.155L97.3641 110.088C97.4766 110.201 97.589 110.313 97.7014 110.313L99.7252 111.775C99.95 112 100.287 112 100.512 112C100.849 112 101.187 111.888 101.524 111.55L105.122 107.951C105.347 107.726 105.572 107.389 105.572 106.939L105.796 91.9817L133.904 83.2096C133.904 83.2096 133.904 83.2096 134.016 83.2096C134.129 83.2096 134.129 83.2096 134.241 83.0972L148.407 74.4375L160.775 78.8236C160.887 78.8236 160.999 78.936 161.112 78.936L172.917 79.9482C173.142 79.9482 173.367 79.9482 173.479 79.8357L179.213 77.8114C179.55 77.699 179.888 77.3616 180 77.0242C180 76.9117 180 76.4619 179.888 76.1245ZM156.052 50.8204L162.798 45.0848L159.763 55.3189L152.455 58.8052L156.052 50.8204ZM78.3635 81.4102L124.685 83.2096L88.1449 94.006L78.3635 81.4102ZM77.0144 78.4862L67.5703 64.8782L107.595 67.5773L128.057 80.3981L77.0144 78.4862ZM65.4341 61.9542L62.0612 57.1183L79.1505 49.8082L102.536 64.4284L65.4341 61.9542ZM61.8363 61.7293L52.6171 61.0545L59.3629 58.1305L61.8363 61.7293ZM90.7308 53.8569L125.247 66.0028L108.382 64.8782L90.7308 53.8569ZM60.3748 54.7566L40.2498 25.8537L76.1149 48.0088L60.3748 54.7566ZM35.0781 23.2671L57.7889 55.8812L46.6583 60.6046L37.4391 46.5468L26.1961 31.5893L35.0781 23.2671ZM63.9725 64.6533L72.742 77.2491L61.6115 71.0637L50.3685 63.7536L63.9725 64.6533ZM133.229 80.3981L113.442 68.0272L135.141 69.4892L144.809 73.3129L133.229 80.3981ZM146.833 71.1761L138.963 68.0272L147.845 63.9785L146.833 71.1761ZM12.817 20.0057L32.1549 22.1424L24.06 29.7899L11.8051 22.7048C11.5803 22.5923 11.243 22.4798 10.9057 22.4798L8.09494 22.8172L12.817 20.0057ZM55.0906 92.9939L24.7345 78.0363L7.87008 51.8326L2.81074 32.1516L3.0356 26.1911L10.5684 25.2914L23.7227 32.9389L35.1905 48.2338L45.4216 63.8661C45.534 63.9785 45.6465 64.2034 45.8713 64.3159L60.2623 73.6503L75.3279 81.9725L85.2217 94.7933L55.0906 92.9939ZM100.175 108.964L99.2755 108.289L90.0562 96.3677L102.761 92.544L102.536 106.489L100.175 108.964ZM172.692 77.3616L161.337 76.4619L149.532 72.1883L150.993 62.629L160.999 57.9055L170.443 62.5165L176.74 75.8995L172.692 77.3616Z" fill="white" stroke="white" stroke-width="2" mask="url(#path-4-inside-1)"/>
</svg>
