<svg width="50" height="28" viewBox="0 0 50 28" fill="none" xmlns="http://www.w3.org/2000/svg">
<rect width="50" height="22" rx="5" fill="#3EE0D0"/>
<path d="M11.5734 7.152H12.6894V10.284C12.3174 10.308 11.9454 10.32 11.5734 10.332V7.152ZM15.4614 10.068C15.0534 10.116 14.6334 10.164 14.2014 10.188V7.152H15.0774V5.892H9.18541V7.152H10.0494V10.356L8.89741 10.368L9.06541 11.652C10.9014 11.652 13.3974 11.604 15.5694 11.22L15.4614 10.068ZM12.1134 12.36H10.5294V15.84H18.0534V14.58H12.1134V12.36ZM17.6574 8.1V4.98H16.0734V13.116H17.6574V9.408H19.1214V8.1H17.6574ZM21.7845 7.356H23.2005V12.036H21.7845V7.356ZM20.3085 13.272H24.6645V6.108H20.3085V13.272ZM27.9765 4.968V9.192H27.0525V5.148H25.5765V15.528H27.0525V10.464H27.9765V16.02H29.4765V4.968H27.9765ZM31.9955 9.564C34.0835 9.384 35.4395 8.604 36.0275 7.56C36.6155 8.604 37.9715 9.384 40.0475 9.564L40.5995 8.34C38.5355 8.16 37.4555 7.44 37.1795 6.696H40.1195V5.436H31.9475V6.696H34.8755C34.5995 7.44 33.5195 8.16 31.4675 8.34L31.9955 9.564ZM38.2355 14.04C38.2355 14.592 37.4795 14.832 36.0035 14.832C34.5275 14.832 33.7715 14.592 33.7715 14.04C33.7715 13.476 34.5275 13.236 36.0035 13.236C37.4795 13.236 38.2355 13.476 38.2355 14.04ZM41.0195 11.256V9.996H31.0355V11.256H35.2355V12.06C33.3155 12.216 32.1755 12.9 32.1755 14.04C32.1755 15.312 33.6155 16.032 36.0035 16.032C38.3915 16.032 39.8435 15.312 39.8435 14.04C39.8435 12.912 38.7155 12.228 36.8195 12.072V11.256H41.0195Z" fill="#192737"/>
<path d="M25 28L21.5359 22H28.4641L25 28Z" fill="#3EE0D0"/>
</svg>
