<svg width="62" height="28" viewBox="0 0 62 28" fill="none" xmlns="http://www.w3.org/2000/svg">
<rect x="0.5" width="61" height="22" rx="5" fill="#FF2264"/>
<path d="M11.3339 7.272H13.4939V12.096H11.3339V7.272ZM9.77388 13.344H15.0539V6.024H9.77388V13.344ZM19.6979 9.144H18.0899V4.992H16.5059V16.032H18.0899V10.452H19.6979V9.144ZM20.8849 5.616V6.876H24.3889C24.1609 8.328 22.8169 9.54 20.3569 10.152L20.9809 11.4C24.2569 10.548 26.1169 8.556 26.1169 5.616H20.8849ZM23.5609 12.828H27.6169V14.664H23.5609V12.828ZM22.0129 15.9H29.1769V11.58H22.0129V15.9ZM30.6409 7.38H29.1769V4.98H27.5929V11.136H29.1769V8.676H30.6409V7.38ZM39.1 4.98V11.244H40.696V4.98H39.1ZM33.34 11.736V15.9H40.696V11.736H33.34ZM39.148 12.972V14.664H34.9V12.972H39.148ZM34.684 5.484C32.968 5.484 31.672 6.588 31.672 8.148C31.672 9.696 32.968 10.8 34.684 10.8C36.4 10.8 37.684 9.696 37.684 8.148C37.684 6.588 36.4 5.484 34.684 5.484ZM34.684 6.804C35.512 6.804 36.136 7.308 36.136 8.148C36.136 8.976 35.512 9.48 34.684 9.48C33.844 9.48 33.22 8.976 33.22 8.148C33.22 7.308 33.844 6.804 34.684 6.804ZM46.6111 9.804H44.4391V8.352H46.6111V9.804ZM48.1711 5.688H46.6111V7.14H44.4391V5.688H42.8791V11.052H48.1711V5.688ZM43.8751 13.356H49.6711V16.044H51.2551V12.096H43.8751V13.356ZM52.7191 7.668H51.2551V4.98H49.6711V11.604H51.2551V8.964H52.7191V7.668Z" fill="white"/>
<path d="M31 28L27.5359 22H34.4641L31 28Z" fill="#FF2264"/>
</svg>
