<svg width="312" height="496" viewBox="0 0 312 496" fill="none" xmlns="http://www.w3.org/2000/svg">
<path d="M0 0H312V496H0V0Z" fill="url(#paint0_linear)"/>
<path opacity="0.5" d="M274.862 152.025L278.862 148.197L277.475 142.795L272.167 141.293L268.167 145.121L269.554 150.523L274.862 152.025ZM272.716 143.317L275.946 144.232L276.778 147.458L274.379 149.77L271.148 148.856L270.32 145.705L272.716 143.317Z" fill="white"/>
<path opacity="0.5" d="M52.5191 322.103L49.4712 324.39L51.7585 327.438L54.8064 325.151L52.5191 322.103Z" fill="white"/>
<path opacity="0.5" d="M262 290.619L263.619 295.287L268.287 293.668L266.669 289L262 290.619Z" fill="white"/>
<path opacity="0.5" d="M41.4581 64.9999L37 67.1306L39.1307 71.5887L43.5888 69.4579L41.4581 64.9999Z" fill="white"/>
<path opacity="0.2" d="M286.326 318L277 321.947L280.947 331.273L290.273 327.326L286.326 318Z" fill="white"/>
<path opacity="0.5" d="M29.806 253L26 260.348L33.3481 264.154L37.1541 256.806L29.806 253Z" fill="white"/>
<path opacity="0.2" d="M280.971 45L278 51.4441L284.444 54.4149L287.415 47.9707L280.971 45Z" fill="white"/>
<path opacity="0.2" d="M30.3303 30.0001L27 36.4297L33.4296 39.76L36.7599 33.3304L30.3303 30.0001Z" fill="white"/>
<g filter="url(#filter0_d)">
<path d="M76.9273 166.32C65.1513 166.32 55.8073 171.952 55.8073 181.36C55.8073 191.152 61.9513 195.824 73.2793 197.936C82.5593 199.664 86.0793 201.328 86.0793 205.488C86.0793 208.88 82.5593 211.248 77.8233 211.248C71.1673 211.248 66.8153 207.92 66.1753 202.928H54.2073C54.7193 214.064 64.1273 221.04 76.9913 221.04C88.6393 221.04 98.0473 214.96 98.0473 204.976C98.0473 197.168 93.9513 191.216 81.9193 188.72C71.7433 186.608 67.7113 185.264 67.7113 181.36C67.7113 178.224 70.7193 176.048 76.1593 176.048C81.7273 176.048 85.1193 178.8 85.8232 183.344H97.8553C97.2793 173.424 88.5753 166.32 76.9273 166.32ZM130.745 221.04C146.937 221.04 158.905 209.456 158.905 193.648C158.905 177.84 146.937 166.256 130.745 166.256C114.553 166.256 102.585 177.84 102.585 193.648C102.585 209.456 114.553 221.04 130.745 221.04ZM130.745 210.544C121.273 210.544 114.233 203.44 114.233 193.648C114.233 183.792 121.273 176.752 130.745 176.752C140.217 176.752 147.257 183.792 147.257 193.648C147.257 203.44 140.217 210.544 130.745 210.544ZM165.827 167.6V219.76H203.523V209.456H177.475V167.6H165.827ZM209.389 219.76H229.613C246.893 219.76 257.581 209.136 257.581 193.712C257.581 178.288 246.893 167.6 229.613 167.6H209.389V219.76ZM221.037 209.456V177.904H229.805C239.789 177.904 245.933 183.664 245.933 193.712C245.933 203.76 239.789 209.456 229.805 209.456H221.037ZM103.714 291.04C119.906 291.04 131.874 279.456 131.874 263.648C131.874 247.84 119.906 236.256 103.714 236.256C87.522 236.256 75.554 247.84 75.554 263.648C75.554 279.456 87.522 291.04 103.714 291.04ZM103.714 280.544C94.242 280.544 87.202 273.44 87.202 263.648C87.202 253.792 94.242 246.752 103.714 246.752C113.186 246.752 120.226 253.792 120.226 263.648C120.226 273.44 113.186 280.544 103.714 280.544ZM138.156 266.656C138.156 281.44 147.692 291.04 162.028 291.04C176.364 291.04 185.9 281.44 185.9 266.656V237.6H174.252V266.656C174.252 274.976 169.644 280.544 162.028 280.544C154.412 280.544 149.804 274.976 149.804 266.656V237.6H138.156V266.656ZM237.107 237.6H191.539V247.904H208.499V289.76H220.147V247.904H237.107V237.6Z" fill="white"/>
</g>
<path d="M49.6094 338.5H45.8914V357.288H49.6094V338.5ZM37.9054 338.72C34.3634 338.72 31.9874 341.492 31.9874 347.674C31.9874 353.856 34.3634 356.628 37.9054 356.628C41.4474 356.628 43.8014 353.856 43.8014 347.674C43.8014 341.492 41.4474 338.72 37.9054 338.72ZM37.9054 342.13C39.1374 342.13 40.1274 343.472 40.1274 347.674C40.1274 351.898 39.1374 353.218 37.9054 353.218C36.6514 353.218 35.6614 351.898 35.6614 347.674C35.6614 343.472 36.6514 342.13 37.9054 342.13ZM70.9475 339.578H64.0175V338.038H60.1895V339.578H53.2595V342.724H70.9475V339.578ZM53.9195 346.992C53.9195 349.566 57.3515 350.688 62.1035 350.688C66.8555 350.688 70.2875 349.566 70.2875 346.992C70.2875 344.418 66.8555 343.296 62.1035 343.296C57.3515 343.296 53.9195 344.418 53.9195 346.992ZM66.5035 346.992C66.5035 347.52 64.6775 347.784 62.1035 347.784C59.5295 347.784 57.7035 347.52 57.7035 346.992C57.7035 346.464 59.5295 346.2 62.1035 346.2C64.6775 346.2 66.5035 346.464 66.5035 346.992ZM71.6075 351.48H52.5995V354.78H60.1895V357.728H64.0175V354.78H71.6075V351.48ZM97.3956 349.214L98.5176 346.002L91.1036 343.868C91.2136 343.604 91.3236 343.34 91.3896 343.054H97.9016V339.688H91.3236V338.038H87.4956V339.688H80.9616V343.054H87.1216C85.9996 344.704 83.4036 345.716 80.5656 345.804V349.214C83.8656 349.148 86.8576 348.202 88.9036 346.596L97.3956 349.214ZM98.9356 350.314H79.9276V353.724H87.5396V357.728H91.3236V353.724H98.9356V350.314ZM120.934 345.364H118.734V338.5H115.016V357.288H118.734V348.972H120.934V345.364ZM101.618 342.328H108.46V344.022C108.46 349.522 106.128 352.844 101.618 352.888V356.408C108.13 356.408 112.244 351.656 112.244 344.022V338.94H101.618V342.328ZM146.062 341.14V338.5H142.344V347.916H146.062V344.528H148.262V341.14H146.062ZM140.298 338.72H136.69V340.26H132.444V338.72H128.836V347.52H140.298V338.72ZM132.444 344.638V343.076H136.69V344.638H132.444ZM133.148 354.076H146.062V348.576H129.452V351.062H142.41V351.788H129.496V357.288H146.26V354.802H133.148V354.076ZM159.216 339.622H156.114V338.214H152.418V339.622H149.14V342.328H159.216V339.622ZM163.352 345.628H164.87V350.094H168.28V338.5H164.87V342.328H163.352V338.588H159.986V349.434H163.352V345.628ZM158.952 346.288C158.952 344.11 156.906 342.768 154.31 342.768C151.714 342.768 149.668 344.11 149.668 346.288C149.668 348.466 151.714 349.808 154.31 349.808C156.906 349.808 158.952 348.466 158.952 346.288ZM152.902 346.288C152.902 345.672 153.54 345.32 154.31 345.32C155.08 345.32 155.718 345.672 155.718 346.288C155.718 346.882 155.08 347.256 154.31 347.256C153.54 347.256 152.902 346.882 152.902 346.288ZM159.524 350.116C154.53 350.116 150.658 351.062 150.658 353.812C150.658 356.562 154.53 357.508 159.524 357.508C164.518 357.508 168.39 356.562 168.39 353.812C168.39 351.062 164.518 350.116 159.524 350.116ZM159.524 354.736C156.818 354.736 154.574 354.45 154.574 353.812C154.574 353.174 156.818 352.888 159.524 352.888C162.23 352.888 164.474 353.174 164.474 353.812C164.474 354.45 162.23 354.736 159.524 354.736ZM180.246 338.192C175.296 338.192 171.622 339.578 171.622 342.504C171.622 345.43 175.296 346.816 180.246 346.816C185.196 346.816 188.87 345.43 188.87 342.504C188.87 339.578 185.196 338.192 180.246 338.192ZM180.246 341.074C183.062 341.074 184.91 341.602 184.91 342.504C184.91 343.428 183.062 343.934 180.246 343.934C177.43 343.934 175.582 343.428 175.582 342.504C175.582 341.602 177.43 341.074 180.246 341.074ZM189.75 347.696H170.742V350.754H189.75V347.696ZM175.626 351.722H171.842V357.288H188.87V354.186H175.626V351.722ZM209.752 345.056H212.612V348.224H216.33V338.5H212.612V341.58H209.708C208.916 339.688 206.848 338.522 204.032 338.522C200.424 338.522 198.004 340.458 198.004 343.362C198.004 346.288 200.424 348.202 204.032 348.202C206.892 348.202 209.004 347.014 209.752 345.056ZM201.7 343.362C201.7 342.24 202.602 341.514 204.032 341.514C205.462 341.514 206.364 342.24 206.364 343.362C206.364 344.484 205.462 345.21 204.032 345.21C202.602 345.21 201.7 344.484 201.7 343.362ZM218.2 354.868L214.702 352.008C215.01 351.106 215.186 350.116 215.23 349.104L211.688 348.84C211.578 351.59 210.236 353.834 208.586 354.076V357.288C210.478 357.244 212.062 356.298 213.206 354.846L215.956 357.332L218.2 354.868ZM204.802 350.424H202.844V348.884H199.588V357.288H208.058V348.884H204.802V350.424ZM202.844 354.626V353.02H204.802V354.626H202.844ZM236.788 345.496L237.976 342.724L230.65 340.282C230.936 339.754 231.134 339.204 231.266 338.61L227.504 337.972C226.932 340.678 223.368 342.372 219.782 342.504V345.474C223.302 345.408 226.514 344.352 228.67 342.614L236.788 345.496ZM219.232 346.2V349.038H238.24V346.2H219.232ZM233.51 350.908H223.962V349.918H220.332V357.288H237.14V349.918H233.51V350.908ZM223.962 354.604V353.548H233.51V354.604H223.962ZM258.566 338.5H254.848V357.288H258.566V338.5ZM245.058 338.83H241.23V356.408H248.996C250.8 356.408 252.714 356.078 253.858 355.506V352.118C252.714 352.668 250.778 353.02 248.996 353.02H245.058V338.83ZM281.401 345.364H279.201V338.5H275.483V357.288H279.201V348.972H281.401V345.364ZM265.979 353.042V342.306H273.129V338.94H262.195V356.408H269.477C271.281 356.408 273.459 356.1 274.603 355.528V352.206C273.459 352.734 271.523 353.042 269.741 353.042H265.979Z" fill="#3EE0D0"/>
<path d="M127.966 67.65H125.806V64.5H124.024V72.852H125.806V69.36H127.966V67.65ZM121.144 66.552V64.878H112.288V66.39H119.344V66.858C119.344 69.612 116.626 70.854 112.288 70.872V72.42C117.616 72.42 121.144 70.746 121.144 66.552ZM112.954 79.674H125.806V73.698H112.954V79.674ZM114.736 75.21H124.024V78.162H114.736V75.21ZM145.281 70.728H143.121V64.5H141.339V79.872H143.121V72.438H145.281V70.728ZM135.849 64.95L134.031 64.878C134.013 71.34 132.411 76.668 129.333 77.154V78.954C131.727 78.774 133.581 76.776 134.679 73.428L138.639 78.918L140.079 77.892L135.237 71.34C135.633 69.486 135.831 67.344 135.849 64.95ZM156.907 65.778H152.587V64.23H150.787V65.778H146.467V67.146H156.907V65.778ZM162.595 67.722H160.435V64.5H158.653V73.14H160.435V69.378H162.595V67.722ZM151.687 73.338C154.225 73.338 156.187 72.33 156.187 70.638C156.187 68.964 154.225 67.938 151.687 67.938C149.131 67.938 147.169 68.964 147.169 70.638C147.169 72.33 149.131 73.338 151.687 73.338ZM151.687 69.234C153.397 69.234 154.495 69.846 154.495 70.638C154.495 71.43 153.397 72.042 151.687 72.042C149.959 72.042 148.879 71.43 148.879 70.638C148.879 69.846 149.959 69.234 151.687 69.234ZM158.707 75.354H149.311V73.968H147.583V79.674H160.435V73.968H158.707V75.354ZM149.311 78.27V76.722H158.707V78.27H149.311ZM176.4 79.89L178.182 79.872V64.5H176.4V79.89ZM164.718 78.954H171C172.476 78.954 174.042 78.666 174.978 78.198V76.56C174.042 77.01 172.458 77.316 171 77.316H166.536V64.968H164.718V78.954ZM197.224 70.728H195.064V64.5H193.282V79.872H195.064V72.438H197.224V70.728ZM183.688 77.334V66.678H190.744V65.058H181.87V78.954H187.882C189.358 78.954 191.014 78.684 191.95 78.216V76.596C191.014 77.046 189.43 77.334 187.972 77.334H183.688ZM199.797 79.728C200.517 79.728 201.057 79.17 201.057 78.45C201.057 77.73 200.517 77.172 199.797 77.172C199.077 77.172 198.519 77.73 198.519 78.45C198.519 79.17 199.077 79.728 199.797 79.728ZM39.8646 99.46V95.77H45.6246V87.058H32.3046V95.77H38.0466V99.46H31.2966V101.134H46.6506V99.46H39.8646ZM34.0866 88.732H43.8426V94.114H34.0866V88.732ZM49.7091 92.8H63.0471V91.324H51.5091V88.174H62.8671V86.68H49.7091V92.8ZM48.6111 95.968H63.9651V94.456H48.6111V95.968ZM49.6731 101.692H63.1731V100.162H51.4911V97.192H49.6731V101.692ZM71.5285 87.076V101.494H77.9545C81.1945 101.494 83.0845 99.91 83.0845 97.426C83.0845 95.644 81.8065 94.366 80.1685 94.042C81.4645 93.736 82.4005 92.422 82.4005 91.072C82.4005 88.606 80.6005 87.076 77.4145 87.076H71.5285ZM77.3605 93.43H73.4185V88.714H77.3605C79.3585 88.714 80.4925 89.542 80.4925 91.072C80.4925 92.602 79.3585 93.43 77.3605 93.43ZM77.9005 99.856H73.4185V94.996H77.9005C79.9165 94.996 81.1765 95.842 81.1765 97.426C81.1765 99.01 79.9165 99.856 77.9005 99.856ZM101.501 87.076L98.0806 98.668L94.6606 87.076H92.6446L89.2426 98.632L85.8226 87.076H83.8606L88.2346 101.494H90.1426L93.6346 89.992L97.1086 101.494H99.0166L103.409 87.076H101.501ZM105.402 87.076V101.494H107.292V97.084H110.514C114.258 97.084 116.454 95.086 116.454 92.08C116.454 89.074 114.258 87.076 110.514 87.076H105.402ZM110.37 95.374H107.292V88.786H110.37C112.98 88.786 114.564 89.938 114.564 92.08C114.564 94.222 112.98 95.374 110.37 95.374ZM118.55 87.076V101.494H120.44V90.856L125.084 99.064H126.452L131.096 90.856V101.494H132.986V87.076H131.33L125.768 96.868L120.206 87.076H118.55ZM148.064 101.872H149.864V86.5H148.064V101.872ZM140.81 101.152C143.528 101.152 145.454 98.884 145.454 94.006C145.454 89.128 143.528 86.86 140.81 86.86C138.074 86.86 136.148 89.128 136.148 94.006C136.148 98.884 138.074 101.152 140.81 101.152ZM140.81 99.514C139.172 99.514 137.93 97.912 137.93 94.006C137.93 90.118 139.172 88.498 140.81 88.498C142.412 88.498 143.672 90.118 143.672 94.006C143.672 97.912 142.412 99.514 140.81 99.514ZM170.945 86.5V92.692H168.443V86.59H166.751V101.602H168.443V94.384H170.945V101.872H172.637V86.5H170.945ZM158.327 100.954H164.915V87.058H158.327V100.954ZM160.019 88.678H163.241V99.334H160.019V88.678ZM189.52 86.5H187.738V97.912H189.52V86.5ZM180.754 92.188L185.182 95.464L186.172 94.15L181.402 90.676C181.6 89.992 181.744 89.236 181.762 88.444H185.722V86.896H175.768V88.444H179.98C179.8 91.432 178.162 93.592 175.57 93.952V95.59C177.856 95.356 179.692 94.096 180.754 92.188ZM178.288 100.054V96.778H176.488V101.674H189.934V100.054H178.288ZM205.088 86.5V101.872H206.87V86.5H205.088ZM198.662 99.28V95.356H202.496V93.718H195.152V88.732H202.316V87.094H193.388V95.356H196.88V99.28H192.488V100.954H198.788C200.894 100.954 202.712 100.756 203.81 100.306V98.632C202.712 99.1 200.84 99.28 198.77 99.28H198.662ZM219.396 91.378H222.493V95.05H224.275V86.5H222.493V89.722H219.343C218.911 87.904 217.201 86.68 214.699 86.68C211.783 86.68 209.965 88.336 209.965 90.658C209.965 92.98 211.783 94.636 214.699 94.636C217.309 94.636 219.055 93.322 219.396 91.378ZM211.729 90.658C211.729 89.128 212.935 88.174 214.699 88.174C216.463 88.174 217.669 89.128 217.669 90.658C217.669 92.188 216.463 93.142 214.699 93.142C212.935 93.142 211.729 92.188 211.729 90.658ZM225.553 100.486L222.205 97.948C222.475 97.282 222.655 96.562 222.727 95.77L220.999 95.518C220.837 97.696 219.595 99.514 218.155 99.964L215.725 98.002C215.995 97.318 216.193 96.58 216.265 95.77L214.555 95.518C214.375 97.948 212.845 99.892 211.153 100.054V101.674C212.647 101.566 214.033 100.72 214.987 99.352L217.651 101.674C219.163 101.584 220.549 100.72 221.503 99.316L224.527 101.782L225.553 100.486ZM241.391 92.08L241.985 90.73L235.613 88.21C235.955 87.67 236.207 87.076 236.333 86.446L234.551 86.14C233.957 88.768 230.645 90.478 227.675 90.586V92.062C230.285 92.008 232.967 91.018 234.659 89.362L241.391 92.08ZM227.117 93.268V94.69H242.471V93.268H227.117ZM239.645 97.282H229.943V95.842H228.179V101.692H241.391V95.842H239.645V97.282ZM229.943 100.288V98.668H239.645V100.288H229.943ZM256.995 101.89L258.777 101.872V86.5H256.995V101.89ZM245.313 100.954H251.595C253.071 100.954 254.637 100.666 255.573 100.198V98.56C254.637 99.01 253.053 99.316 251.595 99.316H247.131V86.968H245.313V100.954ZM277.82 92.728H275.66V86.5H273.878V101.872H275.66V94.438H277.82V92.728ZM264.284 99.334V88.678H271.34V87.058H262.466V100.954H268.478C269.954 100.954 271.61 100.684 272.546 100.216V98.596C271.61 99.046 270.026 99.334 268.568 99.334H264.284ZM280.392 101.728C281.112 101.728 281.652 101.17 281.652 100.45C281.652 99.73 281.112 99.172 280.392 99.172C279.672 99.172 279.114 99.73 279.114 100.45C279.114 101.17 279.672 101.728 280.392 101.728Z" fill="white"/>
<path d="M68.1317 416.328H70.2757L64.6277 409.4L69.9077 403.512H67.8117L61.2357 410.904V403.512H59.5557V416.328H61.2357V413.176L63.5397 410.616L68.1317 416.328ZM73.6732 403.512H71.9932V416.328H80.7132V414.808H73.6732V403.512ZM92.4019 416.328H94.2419L88.9779 403.512H87.2019L81.9219 416.328H83.6819L84.9619 413.16H91.1219L92.4019 416.328ZM85.5539 411.672L88.0499 405.48L90.5299 411.672H85.5539ZM104.343 403.512H102.535L98.3754 410.472L94.3434 403.512H92.4394L97.4634 412.04V416.328H99.1594V412.04L104.343 403.512ZM107.966 406.952C105.726 406.952 104.014 407.992 104.014 409.608C104.014 411.208 105.166 412.008 107.662 412.344C109.854 412.632 110.558 413.064 110.558 413.816C110.558 414.632 109.486 415.208 108.078 415.208C106.446 415.208 105.614 414.488 105.518 413.768H103.902C104.014 415.368 105.582 416.552 108.03 416.552C110.302 416.552 112.174 415.496 112.174 413.72C112.174 412.296 111.198 411.4 108.446 411.032C106.206 410.728 105.63 410.264 105.63 409.512C105.63 408.824 106.59 408.296 107.918 408.296C109.246 408.296 110.286 408.84 110.35 409.608H111.966C111.886 408.056 110.206 406.952 107.966 406.952ZM126.103 407.176L123.687 414.328L121.287 407.176H119.623L117.239 414.28L114.839 407.176H113.127L116.359 416.328H118.023L120.423 409.32L122.839 416.328H124.503L127.735 407.176H126.103ZM132.93 416.552C134.594 416.552 135.714 415.752 136.178 414.968V416.328H137.826V407.176H136.178V408.536C135.714 407.752 134.594 406.952 132.93 406.952C130.338 406.952 128.402 409.016 128.402 411.752C128.402 414.488 130.338 416.552 132.93 416.552ZM133.074 415.096C131.234 415.096 130.018 413.656 130.018 411.752C130.018 409.848 131.234 408.408 133.074 408.408C134.93 408.408 136.21 409.848 136.21 411.752C136.21 413.656 134.93 415.096 133.074 415.096ZM145.309 416.552C147.901 416.552 149.837 414.488 149.837 411.752C149.837 409.016 147.901 406.952 145.309 406.952C143.645 406.952 142.525 407.752 142.061 408.536V407.176H140.413V420.216H142.061V414.968C142.525 415.752 143.645 416.552 145.309 416.552ZM145.165 415.096C143.309 415.096 142.029 413.656 142.029 411.752C142.029 409.848 143.309 408.408 145.165 408.408C147.005 408.408 148.221 409.848 148.221 411.752C148.221 413.656 147.005 415.096 145.165 415.096ZM152.449 417.4L158.305 402.44H156.641L150.785 417.4H152.449ZM160.181 403.512V416.328H164.725C169.141 416.328 171.701 413.752 171.701 409.928C171.701 406.104 169.141 403.512 164.725 403.512H160.181ZM164.773 414.808H161.861V405.016H164.773C168.021 405.016 170.005 406.808 170.005 409.928C170.005 413.048 168.021 414.808 164.773 414.808ZM177.947 416.552C180.043 416.552 181.691 415.416 182.187 413.832H180.507C180.171 414.584 179.195 415.16 177.947 415.16C176.315 415.16 175.179 413.992 175.003 412.424H182.491C182.523 412.2 182.523 411.96 182.523 411.752C182.523 409 180.619 406.952 177.947 406.952C175.275 406.952 173.355 409 173.355 411.752C173.355 414.504 175.275 416.552 177.947 416.552ZM180.907 411.08H175.003C175.179 409.496 176.299 408.344 177.947 408.344C179.595 408.344 180.715 409.48 180.907 411.08ZM188.927 407.176H186.895V405.672C186.895 404.92 187.311 404.488 187.983 404.488C188.223 404.488 188.543 404.488 188.767 404.536V403.144C188.479 403.08 188.095 403.048 187.695 403.048C186.127 403.048 185.247 404.104 185.247 405.624V407.176H183.439V408.632H185.247V416.328H186.895V408.632H188.927V407.176ZM191.339 402.952C190.715 402.952 190.251 403.416 190.251 404.04C190.251 404.664 190.715 405.128 191.339 405.128C191.979 405.128 192.443 404.664 192.443 404.04C192.443 403.416 191.979 402.952 191.339 402.952ZM192.171 416.344V407.176H190.523V416.344H192.171ZM194.757 407.176V416.328H196.405V411.592C196.405 409.896 197.557 408.392 199.157 408.392C200.645 408.392 201.541 409.4 201.541 411.256V416.328H203.189V410.968C203.189 408.504 201.669 406.952 199.509 406.952C197.829 406.952 196.789 407.896 196.405 408.568V407.176H194.757ZM206.339 402.952C205.715 402.952 205.251 403.416 205.251 404.04C205.251 404.664 205.715 405.128 206.339 405.128C206.979 405.128 207.443 404.664 207.443 404.04C207.443 403.416 206.979 402.952 206.339 402.952ZM207.171 416.344V407.176H205.523V416.344H207.171ZM212.445 411.688L208.749 416.328H210.653L213.453 412.792L216.253 416.328H218.269L214.525 411.656L218.077 407.176H216.173L213.517 410.552L210.893 407.176H208.877L212.445 411.688ZM224.895 407.88H236.751V406.6H226.479V404.44H236.591V403.16H224.895V407.88ZM223.919 410.488H237.567V409.208H223.919V410.488ZM230.735 416.712C233.999 416.712 236.751 416.072 236.751 414.2C236.751 412.328 233.999 411.704 230.735 411.704C227.471 411.704 224.719 412.328 224.719 414.2C224.719 416.072 227.471 416.712 230.735 416.712ZM230.735 415.464C228.511 415.464 226.383 415.144 226.383 414.2C226.383 413.272 228.511 412.952 230.735 412.952C232.959 412.952 235.087 413.272 235.087 414.2C235.087 415.144 232.959 415.464 230.735 415.464ZM250.526 416.664H252.11V403H250.526V416.664ZM243.998 411.896C246.446 411.896 248.222 410.136 248.222 407.592C248.222 405.048 246.446 403.288 243.998 403.288C241.534 403.288 239.774 405.048 239.774 407.592C239.774 410.136 241.534 411.896 243.998 411.896ZM243.998 410.456C242.366 410.456 241.326 409.224 241.326 407.592C241.326 405.96 242.366 404.712 243.998 404.712C245.614 404.712 246.67 405.96 246.67 407.592C246.67 409.224 245.614 410.456 243.998 410.456ZM239.31 415.848H244.798C246.766 415.848 248.462 415.608 249.374 415.192V413.72C248.446 414.152 246.766 414.36 244.894 414.36H239.31V415.848ZM29.9307 425.512V438.328H34.4747C38.8907 438.328 41.4507 435.752 41.4507 431.928C41.4507 428.104 38.8907 425.512 34.4747 425.512H29.9307ZM34.5227 436.808H31.6107V427.016H34.5227C37.7707 427.016 39.7547 428.808 39.7547 431.928C39.7547 435.048 37.7707 436.808 34.5227 436.808ZM43.6651 425.512V438.328H52.9131V436.84H45.3451V432.52H52.2091V431.032H45.3451V427H52.7691V425.512H43.6651ZM58.6713 431.848L54.0473 438.328H56.0153L59.7433 433.08L63.4553 438.328H65.4553L60.8153 431.8L65.2953 425.512H63.3433L59.7753 430.568L56.2393 425.512H54.2073L58.6713 431.848ZM67.6767 430.296H79.5487V429.176H69.2127V428.264H79.3567V425.16H67.6767V426.28H77.8207V427.208H67.6767V430.296ZM66.6847 432.44H80.3327V431.288H66.6847V432.44ZM67.6287 438.504H79.6287V437.384H69.1647V436.488H79.3887V433.432H67.5967V434.552H77.8527V435.432H67.6287V438.504ZM94.1597 432.024V430.808H99.4237V429.624H89.1357V428.552H99.0717V427.416H89.1357V426.344H99.2957V425.16H87.5517V430.808H92.5917V432.024H86.5597V433.256H100.208V432.024H94.1597ZM93.3757 434.184C90.1117 434.184 87.3757 434.792 87.3757 436.44C87.3757 438.088 90.1117 438.712 93.3757 438.712C96.6397 438.712 99.3757 438.088 99.3757 436.44C99.3757 434.792 96.6397 434.184 93.3757 434.184ZM93.3757 437.528C91.1517 437.528 89.0397 437.224 89.0397 436.44C89.0397 435.672 91.1517 435.352 93.3757 435.352C95.5997 435.352 97.7117 435.672 97.7117 436.44C97.7117 437.224 95.5997 437.528 93.3757 437.528ZM106.078 424.968H104.51V427.128H101.646V428.552H108.942V427.128H106.078V424.968ZM113.614 425V430.504H111.422V425.08H109.95V438.424H111.422V431.992H113.614V438.664H115.086V425H113.614ZM105.358 429.624C103.534 429.624 102.19 431.096 102.19 433.816C102.19 436.536 103.534 438.008 105.358 438.008C107.198 438.008 108.542 436.536 108.542 433.816C108.542 431.096 107.198 429.624 105.358 429.624ZM105.358 436.616C104.382 436.616 103.662 435.608 103.662 433.816C103.662 432.024 104.382 431.016 105.358 431.016C106.35 431.016 107.086 432.024 107.086 433.816C107.086 435.608 106.35 436.616 105.358 436.616ZM128.621 425V429.944H125.101V431.432H128.621V438.664H130.205V425H128.621ZM123.053 425.4L121.437 425.336C121.421 431.08 120.077 435.8 117.453 436.232V437.848C119.613 437.672 121.261 435.736 122.189 432.504L125.597 437.88L126.925 437.016L122.653 430.488C122.909 428.968 123.053 427.272 123.053 425.4ZM145.1 428.248V425H143.516V435.144H145.1V429.768H147.02V428.248H145.1ZM141.196 425.336H133.212V432.712H141.196V425.336ZM139.628 431.336H134.78V426.712H139.628V431.336ZM135.276 434.056H133.676V438.488H145.468V437.048H135.276V434.056ZM163.631 431.56H165.279V425.32H153.503V426.808H163.631V431.56ZM166.255 432.696H152.607V434.2H158.527V438.984H160.159V434.2H166.255V432.696ZM179.629 425V430.504H177.405V425.08H175.901V438.424H177.405V432.008H179.629V438.664H181.133V425H179.629ZM168.413 437.848H174.269V425.496H168.413V437.848ZM169.917 426.936H172.781V436.408H169.917V426.936ZM197.676 430.536H195.756V425H194.172V438.664H195.756V432.056H197.676V430.536ZM183.884 426.952H189.708V428.824C189.708 433.4 187.596 436.296 183.884 436.312V437.816C188.524 437.816 191.324 434.232 191.324 428.792V425.496H183.884V426.952ZM217.551 430.536H215.631V425H214.047V438.664H215.631V432.056H217.551V430.536ZM203.759 426.952H209.583V428.824C209.583 433.4 207.471 436.296 203.759 436.312V437.816C208.399 437.816 211.199 434.232 211.199 428.792V425.496H203.759V426.952ZM219.629 429.816H231.485V428.536H221.229V425H219.629V429.816ZM218.653 432.456H232.301V431.176H218.653V432.456ZM225.469 438.696C228.733 438.696 231.469 438.056 231.469 436.184C231.469 434.312 228.733 433.688 225.469 433.688C222.205 433.688 219.469 434.312 219.469 436.184C219.469 438.056 222.205 438.696 225.469 438.696ZM225.469 437.448C223.261 437.448 221.133 437.128 221.133 436.184C221.133 435.256 223.261 434.936 225.469 434.936C227.677 434.936 229.805 435.256 229.805 436.184C229.805 437.128 227.677 437.448 225.469 437.448ZM243.276 426.136H239.436V424.76H237.836V426.136H233.996V427.352H243.276V426.136ZM248.332 427.864H246.412V425H244.828V432.68H246.412V429.336H248.332V427.864ZM238.636 432.856C240.892 432.856 242.636 431.96 242.636 430.456C242.636 428.968 240.892 428.056 238.636 428.056C236.364 428.056 234.62 428.968 234.62 430.456C234.62 431.96 236.364 432.856 238.636 432.856ZM238.636 429.208C240.156 429.208 241.132 429.752 241.132 430.456C241.132 431.16 240.156 431.704 238.636 431.704C237.1 431.704 236.14 431.16 236.14 430.456C236.14 429.752 237.1 429.208 238.636 429.208ZM244.876 434.648H236.524V433.416H234.988V438.488H246.412V433.416H244.876V434.648ZM236.524 437.24V435.864H244.876V437.24H236.524ZM260.603 438.68L262.187 438.664V425H260.603V438.68ZM250.219 437.848H255.803C257.115 437.848 258.507 437.592 259.339 437.176V435.72C258.507 436.12 257.099 436.392 255.803 436.392H251.835V425.416H250.219V437.848ZM279.113 430.536H277.193V425H275.609V438.664H277.193V432.056H279.113V430.536ZM267.081 436.408V426.936H273.353V425.496H265.465V437.848H270.809C272.121 437.848 273.593 437.608 274.425 437.192V435.752C273.593 436.152 272.185 436.408 270.889 436.408H267.081ZM281.4 438.536C282.04 438.536 282.52 438.04 282.52 437.4C282.52 436.76 282.04 436.264 281.4 436.264C280.76 436.264 280.264 436.76 280.264 437.4C280.264 438.04 280.76 438.536 281.4 438.536Z" fill="white"/>
<defs>
<filter id="filter0_d" x="50.207" y="166.256" width="211.374" height="132.784" filterUnits="userSpaceOnUse" color-interpolation-filters="sRGB">
<feFlood flood-opacity="0" result="BackgroundImageFix"/>
<feColorMatrix in="SourceAlpha" type="matrix" values="0 0 0 0 0 0 0 0 0 0 0 0 0 0 0 0 0 0 127 0"/>
<feOffset dy="4"/>
<feGaussianBlur stdDeviation="2"/>
<feColorMatrix type="matrix" values="0 0 0 0 0 0 0 0 0 0 0 0 0 0 0 0 0 0 0.25 0"/>
<feBlend mode="normal" in2="BackgroundImageFix" result="effect1_dropShadow"/>
<feBlend mode="normal" in="SourceGraphic" in2="effect1_dropShadow" result="shape"/>
</filter>
<linearGradient id="paint0_linear" x1="242.853" y1="38.8383" x2="-68.376" y2="286.183" gradientUnits="userSpaceOnUse">
<stop stop-color="#FF2264"/>
<stop offset="0.842871" stop-color="#9227AF"/>
</linearGradient>
</defs>
</svg>
