<svg width="462" height="498" viewBox="0 0 462 498" fill="none" xmlns="http://www.w3.org/2000/svg">
<path d="M0 0H462V498H0V0Z" fill="url(#paint0_linear)"/>
<path opacity="0.5" d="M70.1947 251.166L74.9711 246.595L73.3145 240.143L66.9761 238.349L62.1997 242.921L63.8563 249.373L70.1947 251.166ZM67.6312 240.767L71.4894 241.859L72.4825 245.712L69.6175 248.473L65.7594 247.381L64.7704 243.619L67.6312 240.767Z" fill="white"/>
<path opacity="0.5" d="M389.252 279L394 274.636L392.705 268.091L386.748 266L382 270.364L383.295 276.909L389.252 279ZM387.266 268.455L390.892 269.727L391.669 273.636L388.82 276.273L385.194 275L384.417 271.182L387.266 268.455Z" fill="white"/>
<path opacity="0.5" d="M86.6398 370L83 372.731L85.7315 376.371L89.3713 373.64L86.6398 370Z" fill="white"/>
<path opacity="0.5" d="M416 299.933L417.933 305.508L423.508 303.575L421.575 298L416 299.933Z" fill="white"/>
<path opacity="0.5" d="M77.3238 107L72 109.544L74.5445 114.868L79.8683 112.324L77.3238 107Z" fill="white"/>
<path opacity="0.2" d="M381.735 381.375L370.598 386.088L375.311 397.225L386.448 392.512L381.735 381.375Z" fill="white"/>
<path opacity="0.5" d="M27.5451 283L23 291.775L31.775 296.32L36.3201 287.545L27.5451 283Z" fill="white"/>
<path opacity="0.2" d="M424.548 66.0001L421 73.6956L428.696 77.2432L432.243 69.5477L424.548 66.0001Z" fill="white"/>
<path opacity="0.2" d="M53.977 57.0001L50 64.6782L57.6782 68.6552L61.6552 60.9771L53.977 57.0001Z" fill="white"/>
<g filter="url(#filter0_d)">
<path d="M151.927 158.32C140.151 158.32 130.807 163.952 130.807 173.36C130.807 183.152 136.951 187.824 148.279 189.936C157.559 191.664 161.079 193.328 161.079 197.488C161.079 200.88 157.559 203.248 152.823 203.248C146.167 203.248 141.815 199.92 141.175 194.928H129.207C129.719 206.064 139.127 213.04 151.991 213.04C163.639 213.04 173.047 206.96 173.047 196.976C173.047 189.168 168.951 183.216 156.919 180.72C146.743 178.608 142.711 177.264 142.711 173.36C142.711 170.224 145.719 168.048 151.159 168.048C156.727 168.048 160.119 170.8 160.823 175.344H172.855C172.279 165.424 163.575 158.32 151.927 158.32ZM205.745 213.04C221.937 213.04 233.905 201.456 233.905 185.648C233.905 169.84 221.937 158.256 205.745 158.256C189.553 158.256 177.585 169.84 177.585 185.648C177.585 201.456 189.553 213.04 205.745 213.04ZM205.745 202.544C196.273 202.544 189.233 195.44 189.233 185.648C189.233 175.792 196.273 168.752 205.745 168.752C215.217 168.752 222.257 175.792 222.257 185.648C222.257 195.44 215.217 202.544 205.745 202.544ZM240.827 159.6V211.76H278.523V201.456H252.475V159.6H240.827ZM284.389 211.76H304.613C321.893 211.76 332.581 201.136 332.581 185.712C332.581 170.288 321.893 159.6 304.613 159.6H284.389V211.76ZM296.037 201.456V169.904H304.805C314.789 169.904 320.933 175.664 320.933 185.712C320.933 195.76 314.789 201.456 304.805 201.456H296.037ZM178.714 283.04C194.906 283.04 206.874 271.456 206.874 255.648C206.874 239.84 194.906 228.256 178.714 228.256C162.522 228.256 150.554 239.84 150.554 255.648C150.554 271.456 162.522 283.04 178.714 283.04ZM178.714 272.544C169.242 272.544 162.202 265.44 162.202 255.648C162.202 245.792 169.242 238.752 178.714 238.752C188.186 238.752 195.226 245.792 195.226 255.648C195.226 265.44 188.186 272.544 178.714 272.544ZM213.156 258.656C213.156 273.44 222.692 283.04 237.028 283.04C251.364 283.04 260.9 273.44 260.9 258.656V229.6H249.252V258.656C249.252 266.976 244.644 272.544 237.028 272.544C229.412 272.544 224.804 266.976 224.804 258.656V229.6H213.156V258.656ZM312.107 229.6H266.539V239.904H283.499V281.76H295.147V239.904H312.107V229.6Z" fill="white"/>
</g>
<path d="M124.609 345.5H120.891V364.288H124.609V345.5ZM112.905 345.72C109.363 345.72 106.987 348.492 106.987 354.674C106.987 360.856 109.363 363.628 112.905 363.628C116.447 363.628 118.801 360.856 118.801 354.674C118.801 348.492 116.447 345.72 112.905 345.72ZM112.905 349.13C114.137 349.13 115.127 350.472 115.127 354.674C115.127 358.898 114.137 360.218 112.905 360.218C111.651 360.218 110.661 358.898 110.661 354.674C110.661 350.472 111.651 349.13 112.905 349.13ZM145.947 346.578H139.017V345.038H135.189V346.578H128.259V349.724H145.947V346.578ZM128.919 353.992C128.919 356.566 132.351 357.688 137.103 357.688C141.855 357.688 145.287 356.566 145.287 353.992C145.287 351.418 141.855 350.296 137.103 350.296C132.351 350.296 128.919 351.418 128.919 353.992ZM141.503 353.992C141.503 354.52 139.677 354.784 137.103 354.784C134.529 354.784 132.703 354.52 132.703 353.992C132.703 353.464 134.529 353.2 137.103 353.2C139.677 353.2 141.503 353.464 141.503 353.992ZM146.607 358.48H127.599V361.78H135.189V364.728H139.017V361.78H146.607V358.48ZM172.396 356.214L173.518 353.002L166.104 350.868C166.214 350.604 166.324 350.34 166.39 350.054H172.902V346.688H166.324V345.038H162.496V346.688H155.962V350.054H162.122C161 351.704 158.404 352.716 155.566 352.804V356.214C158.866 356.148 161.858 355.202 163.904 353.596L172.396 356.214ZM173.936 357.314H154.928V360.724H162.54V364.728H166.324V360.724H173.936V357.314ZM195.934 352.364H193.734V345.5H190.016V364.288H193.734V355.972H195.934V352.364ZM176.618 349.328H183.46V351.022C183.46 356.522 181.128 359.844 176.618 359.888V363.408C183.13 363.408 187.244 358.656 187.244 351.022V345.94H176.618V349.328ZM221.062 348.14V345.5H217.344V354.916H221.062V351.528H223.262V348.14H221.062ZM215.298 345.72H211.69V347.26H207.444V345.72H203.836V354.52H215.298V345.72ZM207.444 351.638V350.076H211.69V351.638H207.444ZM208.148 361.076H221.062V355.576H204.452V358.062H217.41V358.788H204.496V364.288H221.26V361.802H208.148V361.076ZM234.216 346.622H231.114V345.214H227.418V346.622H224.14V349.328H234.216V346.622ZM238.352 352.628H239.87V357.094H243.28V345.5H239.87V349.328H238.352V345.588H234.986V356.434H238.352V352.628ZM233.952 353.288C233.952 351.11 231.906 349.768 229.31 349.768C226.714 349.768 224.668 351.11 224.668 353.288C224.668 355.466 226.714 356.808 229.31 356.808C231.906 356.808 233.952 355.466 233.952 353.288ZM227.902 353.288C227.902 352.672 228.54 352.32 229.31 352.32C230.08 352.32 230.718 352.672 230.718 353.288C230.718 353.882 230.08 354.256 229.31 354.256C228.54 354.256 227.902 353.882 227.902 353.288ZM234.524 357.116C229.53 357.116 225.658 358.062 225.658 360.812C225.658 363.562 229.53 364.508 234.524 364.508C239.518 364.508 243.39 363.562 243.39 360.812C243.39 358.062 239.518 357.116 234.524 357.116ZM234.524 361.736C231.818 361.736 229.574 361.45 229.574 360.812C229.574 360.174 231.818 359.888 234.524 359.888C237.23 359.888 239.474 360.174 239.474 360.812C239.474 361.45 237.23 361.736 234.524 361.736ZM255.246 345.192C250.296 345.192 246.622 346.578 246.622 349.504C246.622 352.43 250.296 353.816 255.246 353.816C260.196 353.816 263.87 352.43 263.87 349.504C263.87 346.578 260.196 345.192 255.246 345.192ZM255.246 348.074C258.062 348.074 259.91 348.602 259.91 349.504C259.91 350.428 258.062 350.934 255.246 350.934C252.43 350.934 250.582 350.428 250.582 349.504C250.582 348.602 252.43 348.074 255.246 348.074ZM264.75 354.696H245.742V357.754H264.75V354.696ZM250.626 358.722H246.842V364.288H263.87V361.186H250.626V358.722ZM284.752 352.056H287.612V355.224H291.33V345.5H287.612V348.58H284.708C283.916 346.688 281.848 345.522 279.032 345.522C275.424 345.522 273.004 347.458 273.004 350.362C273.004 353.288 275.424 355.202 279.032 355.202C281.892 355.202 284.004 354.014 284.752 352.056ZM276.7 350.362C276.7 349.24 277.602 348.514 279.032 348.514C280.462 348.514 281.364 349.24 281.364 350.362C281.364 351.484 280.462 352.21 279.032 352.21C277.602 352.21 276.7 351.484 276.7 350.362ZM293.2 361.868L289.702 359.008C290.01 358.106 290.186 357.116 290.23 356.104L286.688 355.84C286.578 358.59 285.236 360.834 283.586 361.076V364.288C285.478 364.244 287.062 363.298 288.206 361.846L290.956 364.332L293.2 361.868ZM279.802 357.424H277.844V355.884H274.588V364.288H283.058V355.884H279.802V357.424ZM277.844 361.626V360.02H279.802V361.626H277.844ZM311.788 352.496L312.976 349.724L305.65 347.282C305.936 346.754 306.134 346.204 306.266 345.61L302.504 344.972C301.932 347.678 298.368 349.372 294.782 349.504V352.474C298.302 352.408 301.514 351.352 303.67 349.614L311.788 352.496ZM294.232 353.2V356.038H313.24V353.2H294.232ZM308.51 357.908H298.962V356.918H295.332V364.288H312.14V356.918H308.51V357.908ZM298.962 361.604V360.548H308.51V361.604H298.962ZM333.566 345.5H329.848V364.288H333.566V345.5ZM320.058 345.83H316.23V363.408H323.996C325.8 363.408 327.714 363.078 328.858 362.506V359.118C327.714 359.668 325.778 360.02 323.996 360.02H320.058V345.83ZM356.401 352.364H354.201V345.5H350.483V364.288H354.201V355.972H356.401V352.364ZM340.979 360.042V349.306H348.129V345.94H337.195V363.408H344.477C346.281 363.408 348.459 363.1 349.603 362.528V359.206C348.459 359.734 346.523 360.042 344.741 360.042H340.979Z" fill="#3EE0D0"/>
<path d="M202.466 59.65H200.306V56.5H198.524V64.852H200.306V61.36H202.466V59.65ZM195.644 58.552V56.878H186.788V58.39H193.844V58.858C193.844 61.612 191.126 62.854 186.788 62.872V64.42C192.116 64.42 195.644 62.746 195.644 58.552ZM187.454 71.674H200.306V65.698H187.454V71.674ZM189.236 67.21H198.524V70.162H189.236V67.21ZM219.781 62.728H217.621V56.5H215.839V71.872H217.621V64.438H219.781V62.728ZM210.349 56.95L208.531 56.878C208.513 63.34 206.911 68.668 203.833 69.154V70.954C206.227 70.774 208.081 68.776 209.179 65.428L213.139 70.918L214.579 69.892L209.737 63.34C210.133 61.486 210.331 59.344 210.349 56.95ZM231.407 57.778H227.087V56.23H225.287V57.778H220.967V59.146H231.407V57.778ZM237.095 59.722H234.935V56.5H233.153V65.14H234.935V61.378H237.095V59.722ZM226.187 65.338C228.725 65.338 230.687 64.33 230.687 62.638C230.687 60.964 228.725 59.938 226.187 59.938C223.631 59.938 221.669 60.964 221.669 62.638C221.669 64.33 223.631 65.338 226.187 65.338ZM226.187 61.234C227.897 61.234 228.995 61.846 228.995 62.638C228.995 63.43 227.897 64.042 226.187 64.042C224.459 64.042 223.379 63.43 223.379 62.638C223.379 61.846 224.459 61.234 226.187 61.234ZM233.207 67.354H223.811V65.968H222.083V71.674H234.935V65.968H233.207V67.354ZM223.811 70.27V68.722H233.207V70.27H223.811ZM250.9 71.89L252.682 71.872V56.5H250.9V71.89ZM239.218 70.954H245.5C246.976 70.954 248.542 70.666 249.478 70.198V68.56C248.542 69.01 246.958 69.316 245.5 69.316H241.036V56.968H239.218V70.954ZM271.724 62.728H269.564V56.5H267.782V71.872H269.564V64.438H271.724V62.728ZM258.188 69.334V58.678H265.244V57.058H256.37V70.954H262.382C263.858 70.954 265.514 70.684 266.45 70.216V68.596C265.514 69.046 263.93 69.334 262.472 69.334H258.188ZM274.297 71.728C275.017 71.728 275.557 71.17 275.557 70.45C275.557 69.73 275.017 69.172 274.297 69.172C273.577 69.172 273.019 69.73 273.019 70.45C273.019 71.17 273.577 71.728 274.297 71.728ZM114.365 91.46V87.77H120.125V79.058H106.805V87.77H112.547V91.46H105.797V93.134H121.151V91.46H114.365ZM108.587 80.732H118.343V86.114H108.587V80.732ZM124.209 84.8H137.547V83.324H126.009V80.174H137.367V78.68H124.209V84.8ZM123.111 87.968H138.465V86.456H123.111V87.968ZM124.173 93.692H137.673V92.162H125.991V89.192H124.173V93.692ZM146.028 79.076V93.494H152.454C155.694 93.494 157.584 91.91 157.584 89.426C157.584 87.644 156.306 86.366 154.668 86.042C155.964 85.736 156.9 84.422 156.9 83.072C156.9 80.606 155.1 79.076 151.914 79.076H146.028ZM151.86 85.43H147.918V80.714H151.86C153.858 80.714 154.992 81.542 154.992 83.072C154.992 84.602 153.858 85.43 151.86 85.43ZM152.4 91.856H147.918V86.996H152.4C154.416 86.996 155.676 87.842 155.676 89.426C155.676 91.01 154.416 91.856 152.4 91.856ZM176.001 79.076L172.581 90.668L169.161 79.076H167.145L163.743 90.632L160.323 79.076H158.361L162.735 93.494H164.643L168.135 81.992L171.609 93.494H173.517L177.909 79.076H176.001ZM179.902 79.076V93.494H181.792V89.084H185.014C188.758 89.084 190.954 87.086 190.954 84.08C190.954 81.074 188.758 79.076 185.014 79.076H179.902ZM184.87 87.374H181.792V80.786H184.87C187.48 80.786 189.064 81.938 189.064 84.08C189.064 86.222 187.48 87.374 184.87 87.374ZM193.05 79.076V93.494H194.94V82.856L199.584 91.064H200.952L205.596 82.856V93.494H207.486V79.076H205.83L200.268 88.868L194.706 79.076H193.05ZM222.564 93.872H224.364V78.5H222.564V93.872ZM215.31 93.152C218.028 93.152 219.954 90.884 219.954 86.006C219.954 81.128 218.028 78.86 215.31 78.86C212.574 78.86 210.648 81.128 210.648 86.006C210.648 90.884 212.574 93.152 215.31 93.152ZM215.31 91.514C213.672 91.514 212.43 89.912 212.43 86.006C212.43 82.118 213.672 80.498 215.31 80.498C216.912 80.498 218.172 82.118 218.172 86.006C218.172 89.912 216.912 91.514 215.31 91.514ZM245.445 78.5V84.692H242.943V78.59H241.251V93.602H242.943V86.384H245.445V93.872H247.137V78.5H245.445ZM232.827 92.954H239.415V79.058H232.827V92.954ZM234.519 80.678H237.741V91.334H234.519V80.678ZM264.02 78.5H262.238V89.912H264.02V78.5ZM255.254 84.188L259.682 87.464L260.672 86.15L255.902 82.676C256.1 81.992 256.244 81.236 256.262 80.444H260.222V78.896H250.268V80.444H254.48C254.3 83.432 252.662 85.592 250.07 85.952V87.59C252.356 87.356 254.192 86.096 255.254 84.188ZM252.788 92.054V88.778H250.988V93.674H264.434V92.054H252.788ZM279.588 78.5V93.872H281.37V78.5H279.588ZM273.162 91.28V87.356H276.996V85.718H269.652V80.732H276.816V79.094H267.888V87.356H271.38V91.28H266.988V92.954H273.288C275.394 92.954 277.212 92.756 278.31 92.306V90.632C277.212 91.1 275.34 91.28 273.27 91.28H273.162ZM293.896 83.378H296.993V87.05H298.775V78.5H296.993V81.722H293.843C293.411 79.904 291.701 78.68 289.199 78.68C286.283 78.68 284.465 80.336 284.465 82.658C284.465 84.98 286.283 86.636 289.199 86.636C291.809 86.636 293.555 85.322 293.896 83.378ZM286.229 82.658C286.229 81.128 287.435 80.174 289.199 80.174C290.963 80.174 292.169 81.128 292.169 82.658C292.169 84.188 290.963 85.142 289.199 85.142C287.435 85.142 286.229 84.188 286.229 82.658ZM300.053 92.486L296.705 89.948C296.975 89.282 297.155 88.562 297.227 87.77L295.499 87.518C295.337 89.696 294.095 91.514 292.655 91.964L290.225 90.002C290.495 89.318 290.693 88.58 290.765 87.77L289.055 87.518C288.875 89.948 287.345 91.892 285.653 92.054V93.674C287.147 93.566 288.533 92.72 289.487 91.352L292.151 93.674C293.663 93.584 295.049 92.72 296.003 91.316L299.027 93.782L300.053 92.486ZM315.891 84.08L316.485 82.73L310.113 80.21C310.455 79.67 310.707 79.076 310.833 78.446L309.051 78.14C308.457 80.768 305.145 82.478 302.175 82.586V84.062C304.785 84.008 307.467 83.018 309.159 81.362L315.891 84.08ZM301.617 85.268V86.69H316.971V85.268H301.617ZM314.145 89.282H304.443V87.842H302.679V93.692H315.891V87.842H314.145V89.282ZM304.443 92.288V90.668H314.145V92.288H304.443ZM331.495 93.89L333.277 93.872V78.5H331.495V93.89ZM319.813 92.954H326.095C327.571 92.954 329.137 92.666 330.073 92.198V90.56C329.137 91.01 327.553 91.316 326.095 91.316H321.631V78.968H319.813V92.954ZM352.32 84.728H350.16V78.5H348.378V93.872H350.16V86.438H352.32V84.728ZM338.784 91.334V80.678H345.84V79.058H336.966V92.954H342.978C344.454 92.954 346.11 92.684 347.046 92.216V90.596C346.11 91.046 344.526 91.334 343.068 91.334H338.784ZM354.892 93.728C355.612 93.728 356.152 93.17 356.152 92.45C356.152 91.73 355.612 91.172 354.892 91.172C354.172 91.172 353.614 91.73 353.614 92.45C353.614 93.17 354.172 93.728 354.892 93.728Z" fill="white"/>
<path d="M132.148 428.494H134.56L128.206 420.7L134.146 414.076H131.788L124.39 422.392V414.076H122.5V428.494H124.39V424.948L126.982 422.068L132.148 428.494ZM138.382 414.076H136.492V428.494H146.302V426.784H138.382V414.076ZM159.452 428.494H161.522L155.6 414.076H153.602L147.662 428.494H149.642L151.082 424.93H158.012L159.452 428.494ZM151.748 423.256L154.556 416.29L157.346 423.256H151.748ZM172.886 414.076H170.852L166.172 421.906L161.636 414.076H159.494L165.146 423.67V428.494H167.054V423.67L172.886 414.076ZM176.962 417.946C174.442 417.946 172.516 419.116 172.516 420.934C172.516 422.734 173.812 423.634 176.62 424.012C179.086 424.336 179.878 424.822 179.878 425.668C179.878 426.586 178.672 427.234 177.088 427.234C175.252 427.234 174.316 426.424 174.208 425.614H172.39C172.516 427.414 174.28 428.746 177.034 428.746C179.59 428.746 181.696 427.558 181.696 425.56C181.696 423.958 180.598 422.95 177.502 422.536C174.982 422.194 174.334 421.672 174.334 420.826C174.334 420.052 175.414 419.458 176.908 419.458C178.402 419.458 179.572 420.07 179.644 420.934H181.462C181.372 419.188 179.482 417.946 176.962 417.946ZM197.366 418.198L194.648 426.244L191.948 418.198H190.076L187.394 426.19L184.694 418.198H182.768L186.404 428.494H188.276L190.976 420.61L193.694 428.494H195.566L199.202 418.198H197.366ZM205.046 428.746C206.918 428.746 208.178 427.846 208.7 426.964V428.494H210.554V418.198H208.7V419.728C208.178 418.846 206.918 417.946 205.046 417.946C202.13 417.946 199.952 420.268 199.952 423.346C199.952 426.424 202.13 428.746 205.046 428.746ZM205.208 427.108C203.138 427.108 201.77 425.488 201.77 423.346C201.77 421.204 203.138 419.584 205.208 419.584C207.296 419.584 208.736 421.204 208.736 423.346C208.736 425.488 207.296 427.108 205.208 427.108ZM218.973 428.746C221.889 428.746 224.067 426.424 224.067 423.346C224.067 420.268 221.889 417.946 218.973 417.946C217.101 417.946 215.841 418.846 215.319 419.728V418.198H213.465V432.868H215.319V426.964C215.841 427.846 217.101 428.746 218.973 428.746ZM218.811 427.108C216.723 427.108 215.283 425.488 215.283 423.346C215.283 421.204 216.723 419.584 218.811 419.584C220.881 419.584 222.249 421.204 222.249 423.346C222.249 425.488 220.881 427.108 218.811 427.108ZM227.005 429.7L233.593 412.87H231.721L225.133 429.7H227.005ZM235.703 414.076V428.494H240.815C245.783 428.494 248.663 425.596 248.663 421.294C248.663 416.992 245.783 414.076 240.815 414.076H235.703ZM240.869 426.784H237.593V415.768H240.869C244.523 415.768 246.755 417.784 246.755 421.294C246.755 424.804 244.523 426.784 240.869 426.784ZM255.69 428.746C258.048 428.746 259.902 427.468 260.46 425.686H258.57C258.192 426.532 257.094 427.18 255.69 427.18C253.854 427.18 252.576 425.866 252.378 424.102H260.802C260.838 423.85 260.838 423.58 260.838 423.346C260.838 420.25 258.696 417.946 255.69 417.946C252.684 417.946 250.524 420.25 250.524 423.346C250.524 426.442 252.684 428.746 255.69 428.746ZM259.02 422.59H252.378C252.576 420.808 253.836 419.512 255.69 419.512C257.544 419.512 258.804 420.79 259.02 422.59ZM268.043 418.198H265.757V416.506C265.757 415.66 266.225 415.174 266.981 415.174C267.251 415.174 267.611 415.174 267.863 415.228V413.662C267.539 413.59 267.107 413.554 266.657 413.554C264.893 413.554 263.903 414.742 263.903 416.452V418.198H261.869V419.836H263.903V428.494H265.757V419.836H268.043V418.198ZM270.756 413.446C270.054 413.446 269.532 413.968 269.532 414.67C269.532 415.372 270.054 415.894 270.756 415.894C271.476 415.894 271.998 415.372 271.998 414.67C271.998 413.968 271.476 413.446 270.756 413.446ZM271.692 428.512V418.198H269.838V428.512H271.692ZM274.602 418.198V428.494H276.456V423.166C276.456 421.258 277.752 419.566 279.552 419.566C281.226 419.566 282.234 420.7 282.234 422.788V428.494H284.088V422.464C284.088 419.692 282.378 417.946 279.948 417.946C278.058 417.946 276.888 419.008 276.456 419.764V418.198H274.602ZM287.631 413.446C286.929 413.446 286.407 413.968 286.407 414.67C286.407 415.372 286.929 415.894 287.631 415.894C288.351 415.894 288.873 415.372 288.873 414.67C288.873 413.968 288.351 413.446 287.631 413.446ZM288.567 428.512V418.198H286.713V428.512H288.567ZM294.501 423.274L290.343 428.494H292.485L295.635 424.516L298.785 428.494H301.053L296.841 423.238L300.837 418.198H298.695L295.707 421.996L292.755 418.198H290.487L294.501 423.274ZM308.507 418.99H321.845V417.55H310.289V415.12H321.665V413.68H308.507V418.99ZM307.409 421.924H322.763V420.484H307.409V421.924ZM315.077 428.926C318.749 428.926 321.845 428.206 321.845 426.1C321.845 423.994 318.749 423.292 315.077 423.292C311.405 423.292 308.309 423.994 308.309 426.1C308.309 428.206 311.405 428.926 315.077 428.926ZM315.077 427.522C312.575 427.522 310.181 427.162 310.181 426.1C310.181 425.056 312.575 424.696 315.077 424.696C317.579 424.696 319.973 425.056 319.973 426.1C319.973 427.162 317.579 427.522 315.077 427.522ZM337.341 428.872H339.123V413.5H337.341V428.872ZM329.997 423.508C332.751 423.508 334.749 421.528 334.749 418.666C334.749 415.804 332.751 413.824 329.997 413.824C327.225 413.824 325.245 415.804 325.245 418.666C325.245 421.528 327.225 423.508 329.997 423.508ZM329.997 421.888C328.161 421.888 326.991 420.502 326.991 418.666C326.991 416.83 328.161 415.426 329.997 415.426C331.815 415.426 333.003 416.83 333.003 418.666C333.003 420.502 331.815 421.888 329.997 421.888ZM324.723 427.954H330.897C333.111 427.954 335.019 427.684 336.045 427.216V425.56C335.001 426.046 333.111 426.28 331.005 426.28H324.723V427.954ZM89.172 436.076V450.494H94.284C99.252 450.494 102.132 447.596 102.132 443.294C102.132 438.992 99.252 436.076 94.284 436.076H89.172ZM94.338 448.784H91.062V437.768H94.338C97.992 437.768 100.224 439.784 100.224 443.294C100.224 446.804 97.992 448.784 94.338 448.784ZM104.623 436.076V450.494H115.027V448.82H106.513V443.96H114.235V442.286H106.513V437.75H114.865V436.076H104.623ZM121.505 443.204L116.303 450.494H118.517L122.711 444.59L126.887 450.494H129.137L123.917 443.15L128.957 436.076H126.761L122.747 441.764L118.769 436.076H116.483L121.505 443.204ZM131.636 441.458H144.992V440.198H133.364V439.172H144.776V435.68H131.636V436.94H143.048V437.984H131.636V441.458ZM130.52 443.87H145.874V442.574H130.52V443.87ZM131.582 450.692H145.082V449.432H133.31V448.424H144.812V444.986H131.546V446.246H143.084V447.236H131.582V450.692ZM161.43 443.402V442.034H167.352V440.702H155.778V439.496H166.956V438.218H155.778V437.012H167.208V435.68H153.996V442.034H159.666V443.402H152.88V444.788H168.234V443.402H161.43ZM160.548 445.832C156.876 445.832 153.798 446.516 153.798 448.37C153.798 450.224 156.876 450.926 160.548 450.926C164.22 450.926 167.298 450.224 167.298 448.37C167.298 446.516 164.22 445.832 160.548 445.832ZM160.548 449.594C158.046 449.594 155.67 449.252 155.67 448.37C155.67 447.506 158.046 447.146 160.548 447.146C163.05 447.146 165.426 447.506 165.426 448.37C165.426 449.252 163.05 449.594 160.548 449.594ZM174.838 435.464H173.074V437.894H169.852V439.496H178.06V437.894H174.838V435.464ZM183.316 435.5V441.692H180.85V435.59H179.194V450.602H180.85V443.366H183.316V450.872H184.972V435.5H183.316ZM174.028 440.702C171.976 440.702 170.464 442.358 170.464 445.418C170.464 448.478 171.976 450.134 174.028 450.134C176.098 450.134 177.61 448.478 177.61 445.418C177.61 442.358 176.098 440.702 174.028 440.702ZM174.028 448.568C172.93 448.568 172.12 447.434 172.12 445.418C172.12 443.402 172.93 442.268 174.028 442.268C175.144 442.268 175.972 443.402 175.972 445.418C175.972 447.434 175.144 448.568 174.028 448.568ZM200.199 435.5V441.062H196.239V442.736H200.199V450.872H201.981V435.5H200.199ZM193.935 435.95L192.117 435.878C192.099 442.34 190.587 447.65 187.635 448.136V449.954C190.065 449.756 191.919 447.578 192.963 443.942L196.797 449.99L198.291 449.018L193.485 441.674C193.773 439.964 193.935 438.056 193.935 435.95ZM218.737 439.154V435.5H216.955V446.912H218.737V440.864H220.897V439.154H218.737ZM214.345 435.878H205.363V444.176H214.345V435.878ZM212.581 442.628H207.127V437.426H212.581V442.628ZM207.685 445.688H205.885V450.674H219.151V449.054H207.685V445.688ZM239.584 442.88H241.438V435.86H228.19V437.534H239.584V442.88ZM242.536 444.158H227.182V445.85H233.842V451.232H235.678V445.85H242.536V444.158ZM257.583 435.5V441.692H255.081V435.59H253.389V450.602H255.081V443.384H257.583V450.872H259.275V435.5H257.583ZM244.965 449.954H251.553V436.058H244.965V449.954ZM246.657 437.678H249.879V448.334H246.657V437.678ZM277.885 441.728H275.725V435.5H273.943V450.872H275.725V443.438H277.885V441.728ZM262.369 437.696H268.921V439.802C268.921 444.95 266.545 448.208 262.369 448.226V449.918C267.589 449.918 270.739 445.886 270.739 439.766V436.058H262.369V437.696ZM300.245 441.728H298.085V435.5H296.303V450.872H298.085V443.438H300.245V441.728ZM284.729 437.696H291.281V439.802C291.281 444.95 288.905 448.208 284.729 448.226V449.918C289.949 449.918 293.099 445.886 293.099 439.766V436.058H284.729V437.696ZM302.583 440.918H315.921V439.478H304.383V435.5H302.583V440.918ZM301.485 443.888H316.839V442.448H301.485V443.888ZM309.153 450.908C312.825 450.908 315.903 450.188 315.903 448.082C315.903 445.976 312.825 445.274 309.153 445.274C305.481 445.274 302.403 445.976 302.403 448.082C302.403 450.188 305.481 450.908 309.153 450.908ZM309.153 449.504C306.669 449.504 304.275 449.144 304.275 448.082C304.275 447.038 306.669 446.678 309.153 446.678C311.637 446.678 314.031 447.038 314.031 448.082C314.031 449.144 311.637 449.504 309.153 449.504ZM329.186 436.778H324.866V435.23H323.066V436.778H318.746V438.146H329.186V436.778ZM334.874 438.722H332.714V435.5H330.932V444.14H332.714V440.378H334.874V438.722ZM323.966 444.338C326.504 444.338 328.466 443.33 328.466 441.638C328.466 439.964 326.504 438.938 323.966 438.938C321.41 438.938 319.448 439.964 319.448 441.638C319.448 443.33 321.41 444.338 323.966 444.338ZM323.966 440.234C325.676 440.234 326.774 440.846 326.774 441.638C326.774 442.43 325.676 443.042 323.966 443.042C322.238 443.042 321.158 442.43 321.158 441.638C321.158 440.846 322.238 440.234 323.966 440.234ZM330.986 446.354H321.59V444.968H319.862V450.674H332.714V444.968H330.986V446.354ZM321.59 449.27V447.722H330.986V449.27H321.59ZM348.678 450.89L350.46 450.872V435.5H348.678V450.89ZM336.996 449.954H343.278C344.754 449.954 346.32 449.666 347.256 449.198V447.56C346.32 448.01 344.736 448.316 343.278 448.316H338.814V435.968H336.996V449.954ZM369.502 441.728H367.342V435.5H365.56V450.872H367.342V443.438H369.502V441.728ZM355.966 448.334V437.678H363.022V436.058H354.148V449.954H360.16C361.636 449.954 363.292 449.684 364.228 449.216V447.596C363.292 448.046 361.708 448.334 360.25 448.334H355.966ZM372.075 450.728C372.795 450.728 373.335 450.17 373.335 449.45C373.335 448.73 372.795 448.172 372.075 448.172C371.355 448.172 370.797 448.73 370.797 449.45C370.797 450.17 371.355 450.728 372.075 450.728Z" fill="white"/>
<g opacity="0.4" filter="url(#filter1_d)">
<path d="M389.762 150.076L394.406 146.027L393.139 139.955L387.313 138.015L382.669 142.063L383.936 148.136L389.762 150.076ZM387.82 140.292L391.366 141.473L392.126 145.1L389.34 147.546L385.793 146.365L385.033 142.822L387.82 140.292Z" fill="white"/>
<path d="M410.989 137.901L406.803 141.039L409.945 145.222L414.131 142.083L410.989 137.901Z" fill="white"/>
<path d="M357.105 120L354.309 125.393L359.707 128.185L362.502 122.793L357.105 120Z" fill="white"/>
<path d="M440.103 177.093L434.699 165.622C434.614 165.369 434.445 165.201 434.192 165.116L427.099 161.658L430.223 151.03C430.392 150.609 430.139 150.102 429.801 149.849C429.379 149.596 428.872 149.596 428.535 149.934L420.597 156.682C420.513 156.766 420.344 156.935 420.344 157.019L416.629 165.454L406.665 170.008L364.952 155.248L332.021 134.92C332.021 134.92 331.936 134.92 331.936 134.836H331.852H331.767H331.683L314.457 132.896C314.204 132.896 314.035 132.896 313.782 133.064L305.676 137.872C305.591 137.957 305.507 138.041 305.422 138.125C305.422 138.125 305.422 138.21 305.338 138.21C305.253 138.294 305.169 138.378 305.169 138.547C305.169 138.631 305.169 138.716 305.169 138.8L305 144.198C305 144.283 305 144.367 305 144.536L308.884 159.634C308.884 159.718 308.969 159.887 309.053 159.971L322.057 179.961C322.141 180.13 322.31 180.214 322.479 180.299L345.7 191.77C345.869 191.854 345.953 191.854 346.122 191.854L369.681 193.119C369.681 193.119 369.681 193.119 369.765 193.119C369.849 193.119 369.934 193.119 370.103 193.035L370.609 192.866L378.124 202.566C378.209 202.651 378.293 202.735 378.378 202.735L379.898 203.831C380.067 204 380.32 204 380.489 204C380.742 204 380.995 203.916 381.249 203.663L383.951 200.964C384.12 200.795 384.289 200.542 384.289 200.204L384.457 188.986L405.567 182.407C405.567 182.407 405.567 182.407 405.652 182.407C405.736 182.407 405.736 182.407 405.821 182.323L416.46 175.828L425.748 179.118C425.833 179.118 425.917 179.202 426.002 179.202L434.868 179.961C435.037 179.961 435.205 179.961 435.29 179.877L439.596 178.359C439.85 178.274 440.103 178.021 440.187 177.768C440.187 177.684 440.187 177.347 440.103 177.093ZM422.202 158.115L427.268 153.814L424.988 161.489L419.5 164.104L422.202 158.115ZM363.854 181.058L398.643 182.407L371.2 190.505L363.854 181.058ZM362.841 178.865L355.748 168.659L385.808 170.683L401.176 180.299L362.841 178.865ZM354.144 166.466L351.61 162.839L364.445 157.356L382.009 168.321L354.144 166.466ZM351.442 166.297L344.518 165.791L349.584 163.598L351.442 166.297ZM373.143 160.393L399.065 169.502L386.399 168.659L373.143 160.393ZM350.344 161.068L335.229 139.39L362.165 156.007L350.344 161.068ZM331.345 137.45L348.402 161.911L340.042 165.454L333.118 154.91L324.674 143.692L331.345 137.45ZM353.046 168.49L359.632 177.937L351.273 173.298L342.829 167.815L353.046 168.49ZM405.061 180.299L390.199 171.02L406.496 172.117L413.758 174.985L405.061 180.299ZM415.278 173.382L409.367 171.02L416.038 167.984L415.278 173.382ZM314.626 135.004L329.15 136.607L323.07 142.343L313.866 137.029C313.697 136.944 313.444 136.86 313.191 136.86L311.08 137.113L314.626 135.004ZM346.375 189.745L323.577 178.527L310.911 158.875L307.111 144.114L307.28 139.643L312.937 138.969L322.817 144.704L331.43 156.175L339.113 167.9C339.198 167.984 339.282 168.153 339.451 168.237L350.259 175.238L361.574 181.479L369.005 191.095L346.375 189.745ZM380.235 201.723L379.56 201.217L372.636 192.276L382.178 189.408L382.009 199.867L380.235 201.723ZM434.699 178.021L426.17 177.346L417.304 174.141L418.402 166.972L425.917 163.429L433.01 166.888L437.739 176.925L434.699 178.021Z" fill="white"/>
</g>
<defs>
<filter id="filter0_d" x="125.207" y="158.256" width="211.374" height="132.784" filterUnits="userSpaceOnUse" color-interpolation-filters="sRGB">
<feFlood flood-opacity="0" result="BackgroundImageFix"/>
<feColorMatrix in="SourceAlpha" type="matrix" values="0 0 0 0 0 0 0 0 0 0 0 0 0 0 0 0 0 0 127 0"/>
<feOffset dy="4"/>
<feGaussianBlur stdDeviation="2"/>
<feColorMatrix type="matrix" values="0 0 0 0 0 0 0 0 0 0 0 0 0 0 0 0 0 0 0.25 0"/>
<feBlend mode="normal" in2="BackgroundImageFix" result="effect1_dropShadow"/>
<feBlend mode="normal" in="SourceGraphic" in2="effect1_dropShadow" result="shape"/>
</filter>
<filter id="filter1_d" x="301" y="120" width="143.187" height="92" filterUnits="userSpaceOnUse" color-interpolation-filters="sRGB">
<feFlood flood-opacity="0" result="BackgroundImageFix"/>
<feColorMatrix in="SourceAlpha" type="matrix" values="0 0 0 0 0 0 0 0 0 0 0 0 0 0 0 0 0 0 127 0"/>
<feOffset dy="4"/>
<feGaussianBlur stdDeviation="2"/>
<feColorMatrix type="matrix" values="0 0 0 0 0 0 0 0 0 0 0 0 0 0 0 0 0 0 0.25 0"/>
<feBlend mode="normal" in2="BackgroundImageFix" result="effect1_dropShadow"/>
<feBlend mode="normal" in="SourceGraphic" in2="effect1_dropShadow" result="shape"/>
</filter>
<linearGradient id="paint0_linear" x1="359.609" y1="38.9949" x2="42.844" y2="410.273" gradientUnits="userSpaceOnUse">
<stop stop-color="#FF2264"/>
<stop offset="0.842871" stop-color="#9227AF"/>
</linearGradient>
</defs>
</svg>
