<svg width="36" height="36" viewBox="0 0 36 36" fill="none" xmlns="http://www.w3.org/2000/svg">
<path d="M13.3455 4.5L5.01861 12.3993L4.11841 18.0256L5.01861 23.6518L9.29458 28.783L22.325 31.4386L29.7967 25.9023L32.0697 17.3504L30.2468 12.0617L25.9708 6.52546L13.3455 4.5Z" fill="url(#paint0_linear)"/>
<path d="M21.3348 14.9424L22.6626 13.7721L22.3025 12.0392L20.6371 11.4766L19.3093 12.6468L19.6694 14.3797L21.3348 14.9424ZM20.8172 12.3768L21.6274 12.6468L21.8074 13.502L21.1547 14.0647L20.3446 13.7946L20.1645 12.9394L20.8172 12.3768Z" fill="white"/>
<path d="M25.723 11.717L24.6071 12.5544L25.4445 13.6704L26.5605 12.8329L25.723 11.717Z" fill="white"/>
<path d="M14.6764 7.88388L13.8381 9.50244L15.4566 10.3408L16.295 8.72224L14.6764 7.88388Z" fill="white"/>
<path d="M35.9631 21.0862L34.5453 18.0481C34.5003 17.958 34.4328 17.8905 34.3653 17.868L32.5649 16.9903L33.375 14.2672C33.42 14.1097 33.3525 13.9296 33.2175 13.8171C33.0825 13.7271 32.8799 13.7271 32.7449 13.8396L30.6294 15.6175C30.5844 15.6625 30.5394 15.7075 30.5169 15.7525L29.5492 17.9355L27.0286 19.1283L16.0461 15.2349L7.33666 9.87872C7.31415 9.87872 7.31415 9.85621 7.29165 9.85621C7.29165 9.85621 7.26914 9.85621 7.26914 9.83371C7.24664 9.83371 7.22413 9.83371 7.22413 9.8112H7.20163L2.6781 9.29358C2.58808 9.29358 2.49806 9.29358 2.43055 9.33859L0.292566 10.6214C0.270061 10.6439 0.247556 10.6439 0.225051 10.6664L0.202546 10.6889C0.180041 10.7114 0.180041 10.7114 0.157536 10.7339C0.157536 10.7339 0.157536 10.7564 0.13503 10.7564C0.112525 10.8014 0.0900203 10.8689 0.0900203 10.9365L0 12.4218C0 12.4668 0 12.4893 0.0225051 12.5343L1.03523 16.5177C1.03523 16.5627 1.05774 16.6077 1.08024 16.6302L4.52352 21.9414C4.56853 22.009 4.61354 22.054 4.68106 22.0765L10.8249 25.1147C10.87 25.1372 10.915 25.1597 10.9825 25.1597L17.2164 25.4972H17.2389C17.2839 25.4972 17.3064 25.4972 17.3514 25.4747L17.3964 25.4522L19.3319 27.9728C19.3544 27.9953 19.3769 28.0178 19.4219 28.0403L19.827 28.3329C19.8945 28.3779 19.9845 28.4004 20.052 28.4004C20.1646 28.4004 20.2546 28.3554 20.3221 28.2879L21.0423 27.5677C21.1098 27.5002 21.1548 27.4102 21.1548 27.2976L21.1998 24.3945L26.7135 22.6616C26.736 22.6616 26.7585 22.6391 26.781 22.6391L29.5492 20.9512L31.9572 21.8064C31.9797 21.8289 32.0247 21.8289 32.0472 21.8289L34.3878 22.009C34.4328 22.009 34.5003 22.009 34.5453 21.9864L35.6931 21.5814C35.8056 21.5363 35.8731 21.4688 35.9181 21.3563C36.0306 21.2888 36.0081 21.1763 35.9631 21.0862ZM24.2155 18.9708L21.6949 18.7907L19.0618 17.1479L24.2155 18.9708ZM20.052 18.6782L13.188 18.2056L12.6254 17.3954L15.8436 16.0451L20.052 18.6782ZM12.7604 18.9708L14.2007 21.0412L12.4003 20.051L10.5324 18.8357L12.7604 18.9708ZM11.05 18.0706L11.8827 17.7105L12.1752 18.1381L11.05 18.0706ZM15.0109 15.5275L12.1527 16.7428L8.52943 11.5216L15.0109 15.5275ZM11.4326 17.0578L9.42963 17.913L7.67423 15.2124C7.67423 15.2124 7.67423 15.1899 7.65173 15.1899L5.46873 12.2868L7.0666 10.8014L11.4326 17.0578ZM2.6781 10.0813L6.23391 10.4864L4.8611 11.7691L2.49806 10.4188C2.43055 10.3738 2.34053 10.3513 2.25051 10.3738H2.2055L2.6781 10.0813ZM11.095 24.372L5.13116 21.4238L1.7779 16.2702L0.787678 12.3768L0.832688 11.319L2.2055 11.1615L4.74857 12.6243L7.02159 15.64L9.04704 18.7232C9.06955 18.7682 9.11456 18.8132 9.15957 18.8357L11.9952 20.6812C11.9952 20.6812 12.0177 20.6812 12.0177 20.7037L14.9884 22.3465L16.7888 24.6871L11.095 24.372ZM20.3896 27.1401L20.0295 27.5227L19.9395 27.4552L18.2066 25.2272L20.4346 24.5745L20.3896 27.1401ZM17.689 24.552L15.9336 22.279L24.2155 22.5941L17.689 24.552ZM15.4835 21.4913L13.7731 19.0383L21.4698 19.5559L25.1607 21.8739L15.4835 21.4913ZM26.601 21.8514L23.1127 19.6684L26.9611 19.9385L28.6715 20.6136L26.601 21.8514ZM29.2116 19.9835L28.0413 19.5109L29.3691 18.9033L29.2116 19.9835ZM31.2371 16.1801L32.2723 15.3024L31.7997 16.9228L30.6744 17.4629L31.2371 16.1801ZM34.4103 21.2663L32.2048 21.0862L29.9768 20.2986L30.2468 18.5432L32.1373 17.643L33.9377 18.5207L35.1079 21.0412L34.4103 21.2663Z" fill="white"/>
<defs>
<linearGradient id="paint0_linear" x1="25.875" y1="6.60937" x2="9.1406" y2="28.5469" gradientUnits="userSpaceOnUse">
<stop stop-color="#FF2264"/>
<stop offset="0.842871" stop-color="#9227AF"/>
</linearGradient>
</defs>
</svg>
