<svg width="36" height="36" viewBox="0 0 36 36" fill="none" xmlns="http://www.w3.org/2000/svg">
<path d="M13.2667 4.5L4.87945 12.4375L3.98001 18.104L4.87945 23.7705L9.19675 28.9197L22.3061 31.5956L29.8388 26.0415L32.0874 17.4294L30.2661 12.1002L25.9713 6.54622L13.2667 4.5Z" fill="url(#paint0_linear)"/>
<path d="M21.553 14.8885L22.7897 13.8092L22.4524 12.1902L20.9009 11.673L19.6641 12.7523L20.0014 14.3713L21.553 14.8885ZM21.0358 12.2801L21.9802 12.5949L22.1826 13.5618L21.4405 14.2139L20.4961 13.8991L20.2937 12.9547L21.0358 12.2801Z" fill="black"/>
<path d="M25.5614 11.7739L24.4463 12.6106L25.2831 13.7256L26.3981 12.8889L25.5614 11.7739Z" fill="black"/>
<path d="M14.9472 8.03159L14.2026 9.46925L15.6403 10.2138L16.3848 8.77616L14.9472 8.03159Z" fill="black"/>
<path d="M35.9775 21.2295L34.5384 18.1714C34.5159 18.104 34.471 18.059 34.4035 18.0365L32.5147 17.1146L33.3467 14.2814C33.3916 14.1689 33.3242 14.034 33.2342 13.9666C33.1218 13.8991 32.9869 13.8991 32.8969 13.9891L30.7833 15.7879C30.7608 15.8104 30.7158 15.8554 30.7158 15.8779L29.7264 18.1265L27.0731 19.3407L15.965 15.4057L7.1955 9.98656C7.1955 9.98656 7.17302 9.98656 7.17302 9.96408H7.15053H7.12805H7.10556L2.51843 9.4469C2.45097 9.4469 2.406 9.4469 2.33854 9.49187L0.179888 10.7736C0.157402 10.7961 0.134916 10.8185 0.11243 10.841C0.11243 10.841 0.11243 10.8635 0.0899438 10.8635C0.0674578 10.886 0.0449719 10.9085 0.0449719 10.9535C0.0449719 10.9759 0.0449719 10.9984 0.0449719 11.0209L0 12.46C0 12.4825 0 12.505 0 12.55L1.03435 16.5749C1.03435 16.5974 1.05684 16.6424 1.07933 16.6649L4.54216 21.9941C4.56465 22.039 4.60962 22.0615 4.65459 22.084L10.8382 25.1421C10.8832 25.1646 10.9057 25.1646 10.9507 25.1646L17.2242 25.5019C17.2242 25.5019 17.2242 25.5019 17.2467 25.5019C17.2692 25.5019 17.2917 25.5019 17.3367 25.4794L17.4716 25.4344L19.4728 28.0203C19.4953 28.0428 19.5178 28.0653 19.5403 28.0653L19.945 28.3576C19.99 28.4025 20.0575 28.4025 20.1024 28.4025C20.1699 28.4025 20.2374 28.3801 20.3048 28.3126L21.0244 27.5931C21.0693 27.5481 21.1143 27.4806 21.1143 27.3907L21.1593 24.4001L26.7808 22.6461C26.7808 22.6461 26.7808 22.6461 26.8032 22.6461C26.8257 22.6461 26.8257 22.6461 26.8482 22.6237L29.6814 20.8922L32.1549 21.7692C32.1774 21.7692 32.1999 21.7917 32.2224 21.7917L34.5834 21.9941C34.6284 21.9941 34.6733 21.9941 34.6958 21.9716L35.8426 21.5668C35.9101 21.5443 35.9775 21.4769 36 21.4094C36 21.3869 36 21.297 35.9775 21.2295ZM31.2105 16.1702L32.5597 15.0234L31.9525 17.0696L30.4909 17.7667L31.2105 16.1702ZM15.6727 22.2864L24.9369 22.6461L17.629 24.8048L15.6727 22.2864ZM15.4029 21.7017L13.5141 18.9809L21.5191 19.5206L25.6115 22.084L15.4029 21.7017ZM13.0868 18.3963L12.4122 17.4294L15.8301 15.9678L20.5072 18.891L13.0868 18.3963ZM12.3673 18.3513L10.5234 18.2164L11.8726 17.6318L12.3673 18.3513ZM18.1462 16.7773L25.0493 19.2058L21.6765 18.9809L18.1462 16.7773ZM12.075 16.9572L8.04997 11.1783L15.223 15.608L12.075 16.9572ZM7.01562 10.6611L11.5578 17.1821L9.33167 18.1265L7.48782 15.3157L5.23923 12.3251L7.01562 10.6611ZM12.7945 18.936L14.5484 21.4544L12.3223 20.2177L10.0737 18.7561L12.7945 18.936ZM26.6458 22.084L22.6883 19.6105L27.0281 19.9029L28.9619 20.6674L26.6458 22.084ZM29.3666 20.2402L27.7926 19.6105L29.569 18.8011L29.3666 20.2402ZM2.5634 10.009L6.43098 10.4363L4.81199 11.9653L2.36102 10.5487C2.31605 10.5262 2.24859 10.5037 2.18114 10.5037L1.61899 10.5712L2.5634 10.009ZM11.0181 24.6024L4.94691 21.6118L1.57402 16.3726L0.562149 12.4375L0.607121 11.2458L2.11368 11.0659L4.74453 12.5949L7.0381 15.653L9.08432 18.7786C9.10681 18.8011 9.12929 18.846 9.17427 18.8685L12.0525 20.7348L15.0656 22.3988L17.0443 24.9622L11.0181 24.6024ZM20.035 27.7954L19.8551 27.6605L18.0112 25.277L20.5522 24.5125L20.5072 27.3007L20.035 27.7954ZM34.5384 21.4769L32.2673 21.297L29.9063 20.4425L30.1986 18.5312L32.1999 17.5868L34.0887 18.5087L35.3479 21.1846L34.5384 21.4769Z" fill="black"/>
<defs>
<linearGradient id="paint0_linear" x1="8.43178" y1="28.1633" x2="28.0137" y2="8.58136" gradientUnits="userSpaceOnUse">
<stop offset="0.1695" stop-color="#0089E9"/>
<stop offset="1" stop-color="#3EE0D0"/>
</linearGradient>
</defs>
</svg>
